M48
; DRILL file {KiCad (6.0.0)} date Sun Aug  7 21:57:54 2022
; FORMAT={-:-/ absolute / inch / decimal}
; #@! TF.CreationDate,2022-08-07T21:57:54-07:00
; #@! TF.GenerationSoftware,Kicad,Pcbnew,(6.0.0)
; #@! TF.FileFunction,NonPlated,1,2,NPTH
FMAT,2
INCH
; #@! TA.AperFunction,NonPlated,NPTH,ComponentDrill
T1C0.0689
; #@! TA.AperFunction,NonPlated,NPTH,ComponentDrill
T2C0.1200
; #@! TA.AperFunction,NonPlated,NPTH,ComponentDrill
T3C0.1300
; #@! TA.AperFunction,NonPlated,NPTH,ComponentDrill
T4C0.1570
%
G90
G05
T1
X-0.2Y0.0
X-0.2Y-0.75
X-0.2Y-1.5
X-0.2Y-2.25
X-0.2Y-3.0
X0.2Y0.0
X0.2Y-0.75
X0.2Y-1.5
X0.2Y-2.25
X0.2Y-3.0
X0.55Y0.0
X0.55Y-0.75
X0.55Y-1.5
X0.55Y-2.25
X0.55Y-3.0
X0.95Y0.0
X0.95Y-0.75
X0.95Y-1.5
X0.95Y-2.25
X0.95Y-3.0
X1.675Y0.0
X1.8625Y-0.75
X1.8625Y-3.0
X1.9563Y-1.5
X2.075Y0.0
X2.1437Y-2.25
X2.2625Y-0.75
X2.2625Y-3.0
X2.3562Y-1.5
X2.425Y0.0
X2.5437Y-2.25
X2.8Y-0.75
X2.825Y0.0
X2.8937Y-3.0
X2.9875Y-1.5
X3.175Y0.0
X3.2Y-0.75
X3.2937Y-3.0
X3.3625Y-2.25
X3.3875Y-1.5
X3.55Y-0.75
X3.575Y0.0
X3.7375Y-1.5
X3.7625Y-2.25
X3.925Y0.0
X3.925Y-3.0
X3.95Y-0.75
X4.1125Y-2.25
X4.1375Y-1.5
X4.3Y-0.75
X4.325Y0.0
X4.325Y-3.0
X4.4875Y-1.5
X4.5125Y-2.25
X4.675Y0.0
X4.7Y-0.75
X4.8625Y-2.25
X4.8875Y-1.5
X5.05Y-0.75
X5.075Y0.0
X5.2375Y-1.5
X5.2625Y-2.25
X5.425Y0.0
X5.45Y-0.75
X5.5187Y-3.0
X5.6125Y-2.25
X5.6375Y-1.5
X5.8Y-0.75
X5.825Y0.0
X5.9188Y-3.0
X5.9875Y-1.5
X6.0125Y-2.25
X6.175Y0.0
X6.2Y-0.75
X6.3625Y-2.25
X6.3875Y-1.5
X6.55Y-0.75
X6.575Y0.0
X6.7375Y-1.5
X6.7625Y-2.25
X6.925Y0.0
X6.95Y-0.75
X7.1125Y-2.25
X7.1375Y-1.5
X7.3Y-0.75
X7.325Y0.0
X7.3937Y-3.0
X7.4875Y-1.5
X7.5125Y-2.25
X7.675Y0.0
X7.7Y-0.75
X7.7938Y-3.0
X7.8625Y-2.25
X7.8875Y-1.5
X8.05Y-0.75
X8.075Y0.0
X8.2375Y-1.5
X8.2625Y-2.25
X8.425Y0.0
X8.45Y-0.75
X8.6125Y-2.25
X8.6375Y-1.5
X8.8Y-0.75
X8.8Y-3.0
X8.825Y0.0
X8.9875Y-1.5
X9.0125Y-2.25
X9.175Y0.0
X9.2Y-0.75
X9.2Y-3.0
X9.3625Y-2.25
X9.3875Y-1.5
X9.55Y-0.75
X9.575Y0.0
X9.7375Y-1.5
X9.7625Y-2.25
X9.925Y0.0
X9.925Y-3.0
X9.95Y-0.75
X10.1125Y-2.25
X10.1375Y-1.5
X10.3Y-0.75
X10.325Y0.0
X10.325Y-3.0
X10.4875Y-1.5
X10.5125Y-2.25
X10.675Y0.0
X10.7Y-0.75
X10.8875Y-1.5
X10.9562Y-3.0
X11.05Y-0.75
X11.075Y0.0
X11.1437Y-2.25
X11.3562Y-3.0
X11.425Y0.0
X11.45Y-0.75
X11.5437Y-2.25
X11.7062Y-1.5
X11.825Y0.0
X11.9875Y-0.75
X11.9875Y-3.0
X12.1062Y-1.5
X12.175Y0.0
X12.175Y-2.25
X12.3875Y-0.75
X12.3875Y-3.0
X12.575Y0.0
X12.575Y-2.25
T2
X1.875Y-1.975
X2.8125Y-1.975
X5.25Y-3.275
X6.1875Y-3.275
X7.125Y-3.275
X8.0625Y-3.275
X11.4375Y-1.225
X12.375Y-1.225
T3
X1.4375Y-2.8775
T4
X0.0Y0.0
X0.0Y-0.75
X0.0Y-1.5
X0.0Y-2.25
X0.0Y-3.0
X0.75Y0.0
X0.75Y-0.75
X0.75Y-1.5
X0.75Y-2.25
X0.75Y-3.0
X1.875Y0.0
X1.875Y-2.575
X2.0625Y-0.75
X2.0625Y-3.0
X2.1562Y-1.5
X2.3438Y-2.25
X2.625Y0.0
X2.8125Y-2.575
X3.0Y-0.75
X3.0938Y-3.0
X3.1875Y-1.5
X3.375Y0.0
X3.5625Y-2.25
X3.75Y-0.75
X3.9375Y-1.5
X4.125Y0.0
X4.125Y-3.0
X4.3125Y-2.25
X4.5Y-0.75
X4.6875Y-1.5
X4.875Y0.0
X5.0625Y-2.25
X5.25Y-0.75
X5.25Y-2.675
X5.4375Y-1.5
X5.625Y0.0
X5.7188Y-3.0
X5.8125Y-2.25
X6.0Y-0.75
X6.1875Y-1.5
X6.1875Y-2.675
X6.375Y0.0
X6.5625Y-2.25
X6.75Y-0.75
X6.9375Y-1.5
X7.125Y0.0
X7.125Y-2.675
X7.3125Y-2.25
X7.5Y-0.75
X7.5938Y-3.0
X7.6875Y-1.5
X7.875Y0.0
X8.0625Y-2.25
X8.0625Y-2.675
X8.25Y-0.75
X8.4375Y-1.5
X8.625Y0.0
X8.8125Y-2.25
X9.0Y-0.75
X9.0Y-3.0
X9.1875Y-1.5
X9.375Y0.0
X9.5625Y-2.25
X9.75Y-0.75
X9.9375Y-1.5
X10.125Y0.0
X10.125Y-3.0
X10.3125Y-2.25
X10.5Y-0.75
X10.6875Y-1.5
X10.875Y0.0
X11.1562Y-3.0
X11.25Y-0.75
X11.3438Y-2.25
X11.4375Y-1.825
X11.625Y0.0
X11.9062Y-1.5
X12.1875Y-0.75
X12.1875Y-3.0
X12.375Y0.0
X12.375Y-1.825
X12.375Y-2.25
T0
M30
