%TF.GenerationSoftware,KiCad,Pcbnew,(6.0.0)*%
%TF.CreationDate,2022-08-07T21:57:51-07:00*%
%TF.ProjectId,IEE,4945452e-6b69-4636-9164-5f7063625858,rev?*%
%TF.SameCoordinates,Original*%
%TF.FileFunction,Soldermask,Top*%
%TF.FilePolarity,Negative*%
%FSLAX46Y46*%
G04 Gerber Fmt 4.6, Leading zero omitted, Abs format (unit mm)*
G04 Created by KiCad (PCBNEW (6.0.0)) date 2022-08-07 21:57:51*
%MOMM*%
%LPD*%
G01*
G04 APERTURE LIST*
%ADD10C,1.308000*%
%ADD11R,1.308000X1.308000*%
%ADD12C,1.750000*%
%ADD13C,3.987800*%
%ADD14O,1.676400X3.352800*%
%ADD15C,3.302000*%
%ADD16C,3.048000*%
%ADD17O,1.700000X1.700000*%
%ADD18R,1.700000X1.700000*%
G04 APERTURE END LIST*
D10*
%TO.C,J3*%
X66484375Y-19446875D03*
D11*
X64484375Y-19446875D03*
%TD*%
D12*
%TO.C,MX13*%
X49688750Y-38100000D03*
X59848750Y-38100000D03*
D13*
X54768750Y-38100000D03*
%TD*%
D14*
%TO.C,Q1*%
X33972500Y-55562500D03*
X36512500Y-55562500D03*
X39052500Y-55562500D03*
D15*
X36512500Y-73088500D03*
%TD*%
D12*
%TO.C,MX47*%
X209867500Y-57150000D03*
D13*
X204787500Y-57150000D03*
D12*
X199707500Y-57150000D03*
%TD*%
D13*
%TO.C,MX40*%
X171450000Y-19050000D03*
D12*
X166370000Y-19050000D03*
X176530000Y-19050000D03*
%TD*%
%TO.C,MX23*%
X105092500Y-38100000D03*
D13*
X100012500Y-38100000D03*
D12*
X94932500Y-38100000D03*
%TD*%
%TO.C,MX32*%
X128270000Y-19050000D03*
X138430000Y-19050000D03*
D13*
X133350000Y-19050000D03*
%TD*%
D12*
%TO.C,MX64*%
X261620000Y-19050000D03*
D13*
X266700000Y-19050000D03*
D12*
X271780000Y-19050000D03*
%TD*%
%TO.C,MX9*%
X24130000Y-57150000D03*
D13*
X19050000Y-57150000D03*
D12*
X13970000Y-57150000D03*
%TD*%
D16*
%TO.C,MX14*%
X71437500Y-50165000D03*
D12*
X54451250Y-57150000D03*
D13*
X71437500Y-65405000D03*
X59531250Y-57150000D03*
D16*
X47625000Y-50165000D03*
D13*
X47625000Y-65405000D03*
D12*
X64611250Y-57150000D03*
%TD*%
%TO.C,MX48*%
X194945000Y0D03*
X205105000Y0D03*
D13*
X200025000Y0D03*
%TD*%
D12*
%TO.C,MX72*%
X290195000Y0D03*
X300355000Y0D03*
D13*
X295275000Y0D03*
%TD*%
D12*
%TO.C,MX42*%
X190817500Y-57150000D03*
X180657500Y-57150000D03*
D13*
X185737500Y-57150000D03*
%TD*%
D12*
%TO.C,MX44*%
X175895000Y0D03*
D13*
X180975000Y0D03*
D12*
X186055000Y0D03*
%TD*%
D13*
%TO.C,MX73*%
X309562500Y-19050000D03*
D12*
X314642500Y-19050000D03*
X304482500Y-19050000D03*
%TD*%
%TO.C,MX1*%
X5080000Y0D03*
X-5080000Y0D03*
D13*
X0Y0D03*
%TD*%
D12*
%TO.C,MX17*%
X81280000Y-19050000D03*
D13*
X76200000Y-19050000D03*
D12*
X71120000Y-19050000D03*
%TD*%
%TO.C,MX21*%
X80645000Y0D03*
X90805000Y0D03*
D13*
X85725000Y0D03*
%TD*%
D12*
%TO.C,MX57*%
X252095000Y-76200000D03*
D13*
X257175000Y-76200000D03*
D12*
X262255000Y-76200000D03*
%TD*%
%TO.C,MX60*%
X247332500Y-38100000D03*
X257492500Y-38100000D03*
D13*
X252412500Y-38100000D03*
%TD*%
D12*
%TO.C,MX15*%
X47307500Y-76200000D03*
D13*
X52387500Y-76200000D03*
D12*
X57467500Y-76200000D03*
%TD*%
%TO.C,MX16*%
X71755000Y0D03*
X61595000Y0D03*
D13*
X66675000Y0D03*
%TD*%
%TO.C,MX65*%
X271462500Y-38100000D03*
D12*
X276542500Y-38100000D03*
X266382500Y-38100000D03*
%TD*%
%TO.C,MX6*%
X13970000Y0D03*
D13*
X19050000Y0D03*
D12*
X24130000Y0D03*
%TD*%
D16*
%TO.C,MX43*%
X180975000Y-83185000D03*
D12*
X197961250Y-76200000D03*
X187801250Y-76200000D03*
D13*
X180975000Y-67945000D03*
D16*
X204787500Y-83185000D03*
D13*
X192881250Y-76200000D03*
X204787500Y-67945000D03*
%TD*%
%TO.C,MX52*%
X228600000Y-76200000D03*
D12*
X233680000Y-76200000D03*
X223520000Y-76200000D03*
%TD*%
%TO.C,MX8*%
X24130000Y-38100000D03*
D13*
X19050000Y-38100000D03*
D12*
X13970000Y-38100000D03*
%TD*%
D13*
%TO.C,MX4*%
X0Y-57150000D03*
D12*
X-5080000Y-57150000D03*
X5080000Y-57150000D03*
%TD*%
%TO.C,MX30*%
X140176250Y-76200000D03*
D16*
X133350000Y-83185000D03*
X157162500Y-83185000D03*
D13*
X133350000Y-67945000D03*
X157162500Y-67945000D03*
D12*
X150336250Y-76200000D03*
D13*
X145256250Y-76200000D03*
%TD*%
D12*
%TO.C,MX53*%
X213995000Y0D03*
X224155000Y0D03*
D13*
X219075000Y0D03*
%TD*%
D12*
%TO.C,MX11*%
X52705000Y0D03*
D13*
X47625000Y0D03*
D12*
X42545000Y0D03*
%TD*%
%TO.C,MX41*%
X171132500Y-38100000D03*
D13*
X176212500Y-38100000D03*
D12*
X181292500Y-38100000D03*
%TD*%
D13*
%TO.C,MX5*%
X0Y-76200000D03*
D12*
X5080000Y-76200000D03*
X-5080000Y-76200000D03*
%TD*%
D13*
%TO.C,MX68*%
X285750000Y-19050000D03*
D12*
X280670000Y-19050000D03*
X290830000Y-19050000D03*
%TD*%
D13*
%TO.C,MX37*%
X157162500Y-38100000D03*
D12*
X162242500Y-38100000D03*
X152082500Y-38100000D03*
%TD*%
D13*
%TO.C,MX25*%
X104775000Y-76200000D03*
D12*
X99695000Y-76200000D03*
X109855000Y-76200000D03*
%TD*%
D13*
%TO.C,MX7*%
X19050000Y-19050000D03*
D12*
X13970000Y-19050000D03*
X24130000Y-19050000D03*
%TD*%
%TO.C,MX33*%
X133032500Y-38100000D03*
X143192500Y-38100000D03*
D13*
X138112500Y-38100000D03*
%TD*%
D12*
%TO.C,MX35*%
X147955000Y0D03*
D13*
X142875000Y0D03*
D12*
X137795000Y0D03*
%TD*%
%TO.C,MX22*%
X100330000Y-19050000D03*
X90170000Y-19050000D03*
D13*
X95250000Y-19050000D03*
%TD*%
D12*
%TO.C,MX66*%
X283051250Y-57150000D03*
D13*
X288131250Y-57150000D03*
D12*
X293211250Y-57150000D03*
%TD*%
%TO.C,MX58*%
X233045000Y0D03*
D13*
X238125000Y0D03*
D12*
X243205000Y0D03*
%TD*%
D13*
%TO.C,MX63*%
X257175000Y0D03*
D12*
X252095000Y0D03*
X262255000Y0D03*
%TD*%
D13*
%TO.C,MX71*%
X309562500Y-76200000D03*
D12*
X314642500Y-76200000D03*
X304482500Y-76200000D03*
%TD*%
%TO.C,MX34*%
X152717500Y-57150000D03*
X142557500Y-57150000D03*
D13*
X147637500Y-57150000D03*
%TD*%
D12*
%TO.C,MX18*%
X75882500Y-38100000D03*
X86042500Y-38100000D03*
D13*
X80962500Y-38100000D03*
%TD*%
%TO.C,MX55*%
X233362500Y-38100000D03*
D12*
X228282500Y-38100000D03*
X238442500Y-38100000D03*
%TD*%
D13*
%TO.C,MX28*%
X119062500Y-38100000D03*
D12*
X113982500Y-38100000D03*
X124142500Y-38100000D03*
%TD*%
D13*
%TO.C,MX46*%
X195262500Y-38100000D03*
D12*
X190182500Y-38100000D03*
X200342500Y-38100000D03*
%TD*%
D13*
%TO.C,MX36*%
X152400000Y-19050000D03*
D12*
X157480000Y-19050000D03*
X147320000Y-19050000D03*
%TD*%
%TO.C,MX54*%
X233680000Y-19050000D03*
D13*
X228600000Y-19050000D03*
D12*
X223520000Y-19050000D03*
%TD*%
%TO.C,MX56*%
X247967500Y-57150000D03*
D13*
X242887500Y-57150000D03*
D12*
X237807500Y-57150000D03*
%TD*%
%TO.C,MX61*%
X267017500Y-57150000D03*
D13*
X261937500Y-57150000D03*
D12*
X256857500Y-57150000D03*
%TD*%
%TO.C,MX3*%
X-5080000Y-38100000D03*
D13*
X0Y-38100000D03*
D12*
X5080000Y-38100000D03*
%TD*%
D13*
%TO.C,MX62*%
X283368750Y-76200000D03*
D12*
X278288750Y-76200000D03*
X288448750Y-76200000D03*
%TD*%
D13*
%TO.C,MX50*%
X214312500Y-38100000D03*
D12*
X209232500Y-38100000D03*
X219392500Y-38100000D03*
%TD*%
%TO.C,MX74*%
X309245000Y0D03*
X319405000Y0D03*
D13*
X314325000Y0D03*
%TD*%
%TO.C,MX26*%
X104775000Y0D03*
D12*
X99695000Y0D03*
X109855000Y0D03*
%TD*%
%TO.C,MX59*%
X252730000Y-19050000D03*
D13*
X247650000Y-19050000D03*
D12*
X242570000Y-19050000D03*
%TD*%
%TO.C,MX24*%
X104457500Y-57150000D03*
D13*
X109537500Y-57150000D03*
D12*
X114617500Y-57150000D03*
%TD*%
%TO.C,MX45*%
X185420000Y-19050000D03*
X195580000Y-19050000D03*
D13*
X190500000Y-19050000D03*
%TD*%
%TO.C,MX69*%
X314325000Y-46355000D03*
X302418750Y-38100000D03*
X290512500Y-46355000D03*
D16*
X290512500Y-31115000D03*
D12*
X297338750Y-38100000D03*
D16*
X314325000Y-31115000D03*
D12*
X307498750Y-38100000D03*
%TD*%
D13*
%TO.C,MX70*%
X314325000Y-57150000D03*
D12*
X319405000Y-57150000D03*
X309245000Y-57150000D03*
%TD*%
D13*
%TO.C,MX29*%
X128587500Y-57150000D03*
D12*
X123507500Y-57150000D03*
X133667500Y-57150000D03*
%TD*%
%TO.C,MX12*%
X57467500Y-19050000D03*
X47307500Y-19050000D03*
D13*
X52387500Y-19050000D03*
%TD*%
%TO.C,MX38*%
X166687500Y-57150000D03*
D12*
X171767500Y-57150000D03*
X161607500Y-57150000D03*
%TD*%
%TO.C,MX2*%
X-5080000Y-19050000D03*
X5080000Y-19050000D03*
D13*
X0Y-19050000D03*
%TD*%
%TO.C,MX10*%
X19050000Y-76200000D03*
D12*
X13970000Y-76200000D03*
X24130000Y-76200000D03*
%TD*%
D13*
%TO.C,MX31*%
X123825000Y0D03*
D12*
X118745000Y0D03*
X128905000Y0D03*
%TD*%
%TO.C,MX51*%
X218757500Y-57150000D03*
D13*
X223837500Y-57150000D03*
D12*
X228917500Y-57150000D03*
%TD*%
%TO.C,MX19*%
X95567500Y-57150000D03*
X85407500Y-57150000D03*
D13*
X90487500Y-57150000D03*
%TD*%
%TO.C,MX27*%
X114300000Y-19050000D03*
D12*
X109220000Y-19050000D03*
X119380000Y-19050000D03*
%TD*%
%TO.C,MX39*%
X167005000Y0D03*
D13*
X161925000Y0D03*
D12*
X156845000Y0D03*
%TD*%
D13*
%TO.C,MX67*%
X276225000Y0D03*
D12*
X281305000Y0D03*
X271145000Y0D03*
%TD*%
%TO.C,MX49*%
X204470000Y-19050000D03*
D13*
X209550000Y-19050000D03*
D12*
X214630000Y-19050000D03*
%TD*%
D13*
%TO.C,MX20*%
X78581250Y-76200000D03*
D12*
X73501250Y-76200000D03*
X83661250Y-76200000D03*
%TD*%
D17*
%TO.C,J2*%
X24447500Y-10715625D03*
X26987500Y-10715625D03*
X24447500Y-8175625D03*
X26987500Y-8175625D03*
X24447500Y-5635625D03*
D18*
X26987500Y-5635625D03*
%TD*%
M02*
