M48
; DRILL file {KiCad (6.0.0)} date Sun Aug  7 21:57:54 2022
; FORMAT={-:-/ absolute / inch / decimal}
; #@! TF.CreationDate,2022-08-07T21:57:54-07:00
; #@! TF.GenerationSoftware,Kicad,Pcbnew,(6.0.0)
; #@! TF.FileFunction,Plated,1,2,PTH
FMAT,2
INCH
; #@! TA.AperFunction,Plated,PTH,ViaDrill
T1C0.0157
; #@! TA.AperFunction,Plated,PTH,ComponentDrill
T2C0.0315
; #@! TA.AperFunction,Plated,PTH,ComponentDrill
T3C0.0394
; #@! TA.AperFunction,Plated,PTH,ComponentDrill
T4C0.0440
; #@! TA.AperFunction,Plated,PTH,ComponentDrill
T5C0.0579
%
G90
G05
T1
X-0.2717Y-1.0373
X-0.2717Y-1.7752
X-0.2283Y-1.0096
X-0.2283Y-1.7031
X-0.2283Y-2.4375
X-0.1766Y-2.661
X-0.1719Y-1.911
X0.3016Y-1.089
X0.5469Y-1.1406
X0.6Y-1.0464
X0.6587Y-1.5962
X0.6587Y-1.6587
X0.7656Y-1.2031
X0.9219Y-1.1094
X0.9375Y-0.6094
X0.9375Y-0.6562
X0.9423Y-2.589
X0.9531Y-1.1406
X0.9688Y-1.4219
X0.9844Y-1.1719
X1.0156Y-0.1406
X1.0156Y-1.2031
X1.0625Y-0.6562
X1.0625Y-1.5625
X1.0625Y-1.7188
X1.0625Y-2.3462
X1.0999Y-0.822
X1.1094Y-1.5312
X1.1094Y-1.6875
X1.1094Y-2.4087
X1.1094Y-2.6719
X1.1562Y-1.5625
X1.1562Y-1.7188
X1.1562Y-3.0962
X1.1625Y-0.3219
X1.1625Y-0.3711
X1.2031Y-1.5312
X1.2031Y-1.6875
X1.2031Y-3.1587
X1.2188Y-0.7812
X1.2646Y-0.75
X1.4221Y-0.75
X1.4531Y-1.7188
X1.4536Y-0.5464
X1.4851Y-0.4993
X1.5312Y-1.7031
X1.5672Y0.0672
X1.5672Y-0.0672
X1.5938Y-0.6094
X1.625Y-0.5781
X1.625Y-1.5312
X1.6406Y-0.4531
X1.6875Y-0.1562
X1.6967Y-0.8346
X1.7344Y-0.6875
X1.7748Y-0.8346
X1.8281Y-0.875
X1.8281Y-2.4688
X1.9125Y-0.8531
X1.94Y-1.5962
X1.94Y-1.6587
X1.9531Y-1.7344
X2.5469Y-0.2344
X2.5625Y-1.7031
X2.6019Y-1.7344
X2.7656Y-0.4531
X2.9531Y-0.2344
X2.9531Y-0.4531
X2.9891Y-2.589
X3.1719Y-0.2344
X3.1719Y-0.4531
X3.1875Y-2.625
X3.7475Y-0.0962
X3.7475Y-0.1587
X3.935Y-0.0962
X3.935Y-0.1587
X4.2704Y-2.589
X4.4531Y-2.5781
X5.5516Y-2.589
X5.7656Y-2.5625
X6.786Y-2.589
X7.0156Y-2.5625
X8.4579Y-2.589
X8.625Y-2.5469
X9.8641Y-2.589
X10.1094Y-2.5469
X11.3485Y-2.589
X11.5938Y-2.5469
X12.4375Y-0.2812
X12.4375Y-0.8281
X12.4688Y-0.2344
X12.4688Y-0.8594
X12.5Y-0.411
X12.5Y-0.4688
X12.5781Y-0.4688
X12.5938Y-0.2812
X12.5938Y-2.5312
X12.6094Y-1.0156
X12.6094Y-1.7812
X12.6719Y-0.5156
X12.6719Y-1.2812
X12.6719Y-1.9844
T2
X2.5388Y-0.7656
X2.6175Y-0.7656
T3
X0.9625Y-0.2219
X0.9625Y-0.3219
X0.9625Y-0.4219
X1.0625Y-0.2219
X1.0625Y-0.3219
X1.0625Y-0.4219
T4
X1.3375Y-2.1875
X1.4375Y-2.1875
X1.5375Y-2.1875
T5
X-0.15Y0.1
X-0.15Y-0.65
X-0.15Y-1.4
X-0.15Y-2.15
X-0.15Y-2.9
X0.1Y0.2
X0.1Y-0.55
X0.1Y-1.3
X0.1Y-2.05
X0.1Y-2.8
X0.6Y0.1
X0.6Y-0.65
X0.6Y-1.4
X0.6Y-2.15
X0.6Y-2.9
X0.85Y0.2
X0.85Y-0.55
X0.85Y-1.3
X0.85Y-2.05
X0.85Y-2.8
X1.725Y0.1
X1.9125Y-0.65
X1.9125Y-2.9
X1.975Y0.2
X2.0063Y-1.4
X2.1625Y-0.55
X2.1625Y-2.8
X2.1938Y-2.15
X2.2563Y-1.3
X2.4438Y-2.05
X2.475Y0.1
X2.725Y0.2
X2.85Y-0.65
X2.9438Y-2.9
X3.0375Y-1.4
X3.1Y-0.55
X3.1938Y-2.8
X3.225Y0.1
X3.2875Y-1.3
X3.4125Y-2.15
X3.475Y0.2
X3.6Y-0.65
X3.6625Y-2.05
X3.7875Y-1.4
X3.85Y-0.55
X3.975Y0.1
X3.975Y-2.9
X4.0375Y-1.3
X4.1625Y-2.15
X4.225Y0.2
X4.225Y-2.8
X4.35Y-0.65
X4.4125Y-2.05
X4.5375Y-1.4
X4.6Y-0.55
X4.725Y0.1
X4.7875Y-1.3
X4.9125Y-2.15
X4.975Y0.2
X5.1Y-0.65
X5.1625Y-2.05
X5.2875Y-1.4
X5.35Y-0.55
X5.475Y0.1
X5.5375Y-1.3
X5.5687Y-2.9
X5.6625Y-2.15
X5.725Y0.2
X5.8187Y-2.8
X5.85Y-0.65
X5.9125Y-2.05
X6.0375Y-1.4
X6.1Y-0.55
X6.225Y0.1
X6.2875Y-1.3
X6.4125Y-2.15
X6.475Y0.2
X6.6Y-0.65
X6.6625Y-2.05
X6.7875Y-1.4
X6.85Y-0.55
X6.975Y0.1
X7.0375Y-1.3
X7.1625Y-2.15
X7.225Y0.2
X7.35Y-0.65
X7.4125Y-2.05
X7.4437Y-2.9
X7.5375Y-1.4
X7.6Y-0.55
X7.6937Y-2.8
X7.725Y0.1
X7.7875Y-1.3
X7.9125Y-2.15
X7.975Y0.2
X8.1Y-0.65
X8.1625Y-2.05
X8.2875Y-1.4
X8.35Y-0.55
X8.475Y0.1
X8.5375Y-1.3
X8.6625Y-2.15
X8.725Y0.2
X8.85Y-0.65
X8.85Y-2.9
X8.9125Y-2.05
X9.0375Y-1.4
X9.1Y-0.55
X9.1Y-2.8
X9.225Y0.1
X9.2875Y-1.3
X9.4125Y-2.15
X9.475Y0.2
X9.6Y-0.65
X9.6625Y-2.05
X9.7875Y-1.4
X9.85Y-0.55
X9.975Y0.1
X9.975Y-2.9
X10.0375Y-1.3
X10.1625Y-2.15
X10.225Y0.2
X10.225Y-2.8
X10.35Y-0.65
X10.4125Y-2.05
X10.5375Y-1.4
X10.6Y-0.55
X10.725Y0.1
X10.7875Y-1.3
X10.975Y0.2
X11.0062Y-2.9
X11.1Y-0.65
X11.1937Y-2.15
X11.2562Y-2.8
X11.35Y-0.55
X11.4437Y-2.05
X11.475Y0.1
X11.725Y0.2
X11.7562Y-1.4
X12.0062Y-1.3
X12.0375Y-0.65
X12.0375Y-2.9
X12.225Y0.1
X12.225Y-2.15
X12.2875Y-0.55
X12.2875Y-2.8
X12.475Y0.2
X12.475Y-2.05
T0
M30
