%TF.GenerationSoftware,KiCad,Pcbnew,(6.0.0)*%
%TF.CreationDate,2022-08-07T21:57:51-07:00*%
%TF.ProjectId,IEE,4945452e-6b69-4636-9164-5f7063625858,rev?*%
%TF.SameCoordinates,Original*%
%TF.FileFunction,Legend,Bot*%
%TF.FilePolarity,Positive*%
%FSLAX46Y46*%
G04 Gerber Fmt 4.6, Leading zero omitted, Abs format (unit mm)*
G04 Created by KiCad (PCBNEW (6.0.0)) date 2022-08-07 21:57:51*
%MOMM*%
%LPD*%
G01*
G04 APERTURE LIST*
G04 Aperture macros list*
%AMRoundRect*
0 Rectangle with rounded corners*
0 $1 Rounding radius*
0 $2 $3 $4 $5 $6 $7 $8 $9 X,Y pos of 4 corners*
0 Add a 4 corners polygon primitive as box body*
4,1,4,$2,$3,$4,$5,$6,$7,$8,$9,$2,$3,0*
0 Add four circle primitives for the rounded corners*
1,1,$1+$1,$2,$3*
1,1,$1+$1,$4,$5*
1,1,$1+$1,$6,$7*
1,1,$1+$1,$8,$9*
0 Add four rect primitives between the rounded corners*
20,1,$1+$1,$2,$3,$4,$5,0*
20,1,$1+$1,$4,$5,$6,$7,0*
20,1,$1+$1,$6,$7,$8,$9,0*
20,1,$1+$1,$8,$9,$2,$3,0*%
G04 Aperture macros list end*
%ADD10C,0.120000*%
%ADD11C,0.150000*%
%ADD12C,0.015000*%
%ADD13C,0.127000*%
%ADD14C,0.200000*%
%ADD15C,0.152400*%
%ADD16C,0.050800*%
%ADD17C,0.010000*%
%ADD18C,1.308000*%
%ADD19R,1.308000X1.308000*%
%ADD20R,1.100000X1.100000*%
%ADD21C,1.750000*%
%ADD22C,3.987800*%
%ADD23C,2.250000*%
%ADD24RoundRect,0.250000X-0.450000X0.262500X-0.450000X-0.262500X0.450000X-0.262500X0.450000X0.262500X0*%
%ADD25O,1.676400X3.352800*%
%ADD26C,3.302000*%
%ADD27C,3.048000*%
%ADD28R,1.200000X0.900000*%
%ADD29RoundRect,0.250000X0.375000X0.625000X-0.375000X0.625000X-0.375000X-0.625000X0.375000X-0.625000X0*%
%ADD30R,0.700000X0.700000*%
%ADD31RoundRect,0.250000X-0.475000X0.250000X-0.475000X-0.250000X0.475000X-0.250000X0.475000X0.250000X0*%
%ADD32RoundRect,0.250000X-0.250000X-0.475000X0.250000X-0.475000X0.250000X0.475000X-0.250000X0.475000X0*%
%ADD33RoundRect,0.250000X0.262500X0.450000X-0.262500X0.450000X-0.262500X-0.450000X0.262500X-0.450000X0*%
%ADD34O,1.700000X1.700000*%
%ADD35R,1.700000X1.700000*%
%ADD36R,1.800000X1.200000*%
%ADD37R,1.550000X0.600000*%
%ADD38RoundRect,0.250000X0.475000X-0.250000X0.475000X0.250000X-0.475000X0.250000X-0.475000X-0.250000X0*%
%ADD39R,1.400000X1.200000*%
%ADD40RoundRect,0.250000X0.250000X0.475000X-0.250000X0.475000X-0.250000X-0.475000X0.250000X-0.475000X0*%
%ADD41R,1.800000X1.100000*%
%ADD42RoundRect,0.150000X0.150000X-0.512500X0.150000X0.512500X-0.150000X0.512500X-0.150000X-0.512500X0*%
%ADD43R,0.550000X1.500000*%
%ADD44R,1.500000X0.550000*%
%ADD45RoundRect,0.250000X-0.262500X-0.450000X0.262500X-0.450000X0.262500X0.450000X-0.262500X0.450000X0*%
G04 APERTURE END LIST*
D10*
%TO.C,J3*%
X63868375Y-21823817D02*
X63868375Y-22166675D01*
X63891232Y-22235246D01*
X63936946Y-22280960D01*
X64005517Y-22303817D01*
X64051232Y-22303817D01*
X63685517Y-21823817D02*
X63388375Y-21823817D01*
X63548375Y-22006675D01*
X63479803Y-22006675D01*
X63434089Y-22029532D01*
X63411232Y-22052389D01*
X63388375Y-22098103D01*
X63388375Y-22212389D01*
X63411232Y-22258103D01*
X63434089Y-22280960D01*
X63479803Y-22303817D01*
X63616946Y-22303817D01*
X63662660Y-22280960D01*
X63685517Y-22258103D01*
D11*
%TO.C,D75*%
X43410035Y-41806755D02*
X43410035Y-40806755D01*
X43171940Y-40806755D01*
X43029083Y-40854375D01*
X42933845Y-40949613D01*
X42886226Y-41044851D01*
X42838607Y-41235327D01*
X42838607Y-41378184D01*
X42886226Y-41568660D01*
X42933845Y-41663898D01*
X43029083Y-41759136D01*
X43171940Y-41806755D01*
X43410035Y-41806755D01*
X42505273Y-40806755D02*
X41838607Y-40806755D01*
X42267178Y-41806755D01*
X40981464Y-40806755D02*
X41457654Y-40806755D01*
X41505273Y-41282946D01*
X41457654Y-41235327D01*
X41362416Y-41187708D01*
X41124321Y-41187708D01*
X41029083Y-41235327D01*
X40981464Y-41282946D01*
X40933845Y-41378184D01*
X40933845Y-41616279D01*
X40981464Y-41711517D01*
X41029083Y-41759136D01*
X41124321Y-41806755D01*
X41362416Y-41806755D01*
X41457654Y-41759136D01*
X41505273Y-41711517D01*
%TO.C,R6*%
X35711755Y-41108333D02*
X35235565Y-40775000D01*
X35711755Y-40536904D02*
X34711755Y-40536904D01*
X34711755Y-40917857D01*
X34759375Y-41013095D01*
X34806994Y-41060714D01*
X34902232Y-41108333D01*
X35045089Y-41108333D01*
X35140327Y-41060714D01*
X35187946Y-41013095D01*
X35235565Y-40917857D01*
X35235565Y-40536904D01*
X34711755Y-41965476D02*
X34711755Y-41775000D01*
X34759375Y-41679761D01*
X34806994Y-41632142D01*
X34949851Y-41536904D01*
X35140327Y-41489285D01*
X35521279Y-41489285D01*
X35616517Y-41536904D01*
X35664136Y-41584523D01*
X35711755Y-41679761D01*
X35711755Y-41870238D01*
X35664136Y-41965476D01*
X35616517Y-42013095D01*
X35521279Y-42060714D01*
X35283184Y-42060714D01*
X35187946Y-42013095D01*
X35140327Y-41965476D01*
X35092708Y-41870238D01*
X35092708Y-41679761D01*
X35140327Y-41584523D01*
X35187946Y-41536904D01*
X35283184Y-41489285D01*
D12*
%TO.C,Q1*%
X37281975Y-68785315D02*
X37415506Y-68718550D01*
X37549036Y-68585019D01*
X37749332Y-68384724D01*
X37882863Y-68317958D01*
X38016393Y-68317958D01*
X37949628Y-68651785D02*
X38083159Y-68585019D01*
X38216689Y-68451489D01*
X38283454Y-68184428D01*
X38283454Y-67717071D01*
X38216689Y-67450010D01*
X38083159Y-67316479D01*
X37949628Y-67249714D01*
X37682567Y-67249714D01*
X37549036Y-67316479D01*
X37415506Y-67450010D01*
X37348740Y-67717071D01*
X37348740Y-68184428D01*
X37415506Y-68451489D01*
X37549036Y-68585019D01*
X37682567Y-68651785D01*
X37949628Y-68651785D01*
X36013435Y-68651785D02*
X36814618Y-68651785D01*
X36414026Y-68651785D02*
X36414026Y-67249714D01*
X36547557Y-67450010D01*
X36681088Y-67583540D01*
X36814618Y-67650305D01*
X34656336Y-69926880D02*
X34275049Y-69926880D01*
X34732593Y-70155651D02*
X34465693Y-69354950D01*
X34198792Y-70155651D01*
X33512477Y-70155651D02*
X33970020Y-70155651D01*
X33741249Y-70155651D02*
X33741249Y-69354950D01*
X33817506Y-69469336D01*
X33893763Y-69545593D01*
X33970020Y-69583722D01*
X33245577Y-69354950D02*
X32711776Y-69354950D01*
X33054934Y-70155651D01*
X32368618Y-70117523D02*
X32368618Y-70155651D01*
X32406747Y-70231909D01*
X32444876Y-70270037D01*
X31644175Y-69354950D02*
X32025461Y-69354950D01*
X32063590Y-69736237D01*
X32025461Y-69698108D01*
X31949204Y-69659979D01*
X31758561Y-69659979D01*
X31682303Y-69698108D01*
X31644175Y-69736237D01*
X31606046Y-69812494D01*
X31606046Y-70003137D01*
X31644175Y-70079394D01*
X31682303Y-70117523D01*
X31758561Y-70155651D01*
X31949204Y-70155651D01*
X32025461Y-70117523D01*
X32063590Y-70079394D01*
X31262889Y-70155651D02*
X31262889Y-69621851D01*
X31262889Y-69698108D02*
X31224760Y-69659979D01*
X31148503Y-69621851D01*
X31034117Y-69621851D01*
X30957860Y-69659979D01*
X30919731Y-69736237D01*
X30919731Y-70155651D01*
X30919731Y-69736237D02*
X30881602Y-69659979D01*
X30805345Y-69621851D01*
X30690959Y-69621851D01*
X30614702Y-69659979D01*
X30576573Y-69736237D01*
X30576573Y-70155651D01*
X30195287Y-70155651D02*
X30195287Y-69621851D01*
X30195287Y-69698108D02*
X30157159Y-69659979D01*
X30080901Y-69621851D01*
X29966515Y-69621851D01*
X29890258Y-69659979D01*
X29852130Y-69736237D01*
X29852130Y-70155651D01*
X29852130Y-69736237D02*
X29814001Y-69659979D01*
X29737744Y-69621851D01*
X29623358Y-69621851D01*
X29547101Y-69659979D01*
X29508972Y-69736237D01*
X29508972Y-70155651D01*
D11*
%TO.C,D54*%
X239386755Y-20216964D02*
X238386755Y-20216964D01*
X238386755Y-20455059D01*
X238434375Y-20597916D01*
X238529613Y-20693154D01*
X238624851Y-20740773D01*
X238815327Y-20788392D01*
X238958184Y-20788392D01*
X239148660Y-20740773D01*
X239243898Y-20693154D01*
X239339136Y-20597916D01*
X239386755Y-20455059D01*
X239386755Y-20216964D01*
X238386755Y-21693154D02*
X238386755Y-21216964D01*
X238862946Y-21169345D01*
X238815327Y-21216964D01*
X238767708Y-21312202D01*
X238767708Y-21550297D01*
X238815327Y-21645535D01*
X238862946Y-21693154D01*
X238958184Y-21740773D01*
X239196279Y-21740773D01*
X239291517Y-21693154D01*
X239339136Y-21645535D01*
X239386755Y-21550297D01*
X239386755Y-21312202D01*
X239339136Y-21216964D01*
X239291517Y-21169345D01*
X238720089Y-22597916D02*
X239386755Y-22597916D01*
X238339136Y-22359821D02*
X239053422Y-22121726D01*
X239053422Y-22740773D01*
%TO.C,F1*%
X60658333Y-4061696D02*
X60991666Y-4061696D01*
X60991666Y-4585505D02*
X60991666Y-3585505D01*
X60515476Y-3585505D01*
X59610714Y-4585505D02*
X60182142Y-4585505D01*
X59896428Y-4585505D02*
X59896428Y-3585505D01*
X59991666Y-3728363D01*
X60086904Y-3823601D01*
X60182142Y-3871220D01*
%TO.C,U25*%
X288270405Y-9463628D02*
X289080018Y-9463628D01*
X289175267Y-9511252D01*
X289222891Y-9558877D01*
X289270515Y-9654125D01*
X289270515Y-9844622D01*
X289222891Y-9939871D01*
X289175267Y-9987495D01*
X289080018Y-10035120D01*
X288270405Y-10035120D01*
X288365654Y-10463738D02*
X288318030Y-10511362D01*
X288270405Y-10606611D01*
X288270405Y-10844732D01*
X288318030Y-10939981D01*
X288365654Y-10987605D01*
X288460902Y-11035230D01*
X288556151Y-11035230D01*
X288699024Y-10987605D01*
X289270515Y-10416114D01*
X289270515Y-11035230D01*
X288270405Y-11940091D02*
X288270405Y-11463848D01*
X288746648Y-11416224D01*
X288699024Y-11463848D01*
X288651400Y-11559097D01*
X288651400Y-11797218D01*
X288699024Y-11892467D01*
X288746648Y-11940091D01*
X288841897Y-11987715D01*
X289080018Y-11987715D01*
X289175267Y-11940091D01*
X289222891Y-11892467D01*
X289270515Y-11797218D01*
X289270515Y-11559097D01*
X289222891Y-11463848D01*
X289175267Y-11416224D01*
%TO.C,U23*%
X31492280Y7205121D02*
X32301893Y7205121D01*
X32397142Y7157497D01*
X32444766Y7109872D01*
X32492390Y7014624D01*
X32492390Y6824127D01*
X32444766Y6728878D01*
X32397142Y6681254D01*
X32301893Y6633630D01*
X31492280Y6633630D01*
X31587529Y6205011D02*
X31539905Y6157387D01*
X31492280Y6062138D01*
X31492280Y5824017D01*
X31539905Y5728768D01*
X31587529Y5681144D01*
X31682777Y5633520D01*
X31778026Y5633520D01*
X31920899Y5681144D01*
X32492390Y6252635D01*
X32492390Y5633520D01*
X31492280Y5300150D02*
X31492280Y4681034D01*
X31873275Y5014404D01*
X31873275Y4871531D01*
X31920899Y4776282D01*
X31968523Y4728658D01*
X32063772Y4681034D01*
X32301893Y4681034D01*
X32397142Y4728658D01*
X32444766Y4776282D01*
X32492390Y4871531D01*
X32492390Y5157277D01*
X32444766Y5252525D01*
X32397142Y5300150D01*
%TO.C,D10*%
X13564880Y-75779464D02*
X12564880Y-75779464D01*
X12564880Y-76017559D01*
X12612500Y-76160416D01*
X12707738Y-76255654D01*
X12802976Y-76303273D01*
X12993452Y-76350892D01*
X13136309Y-76350892D01*
X13326785Y-76303273D01*
X13422023Y-76255654D01*
X13517261Y-76160416D01*
X13564880Y-76017559D01*
X13564880Y-75779464D01*
X13564880Y-77303273D02*
X13564880Y-76731845D01*
X13564880Y-77017559D02*
X12564880Y-77017559D01*
X12707738Y-76922321D01*
X12802976Y-76827083D01*
X12850595Y-76731845D01*
X12564880Y-77922321D02*
X12564880Y-78017559D01*
X12612500Y-78112797D01*
X12660119Y-78160416D01*
X12755357Y-78208035D01*
X12945833Y-78255654D01*
X13183928Y-78255654D01*
X13374404Y-78208035D01*
X13469642Y-78160416D01*
X13517261Y-78112797D01*
X13564880Y-78017559D01*
X13564880Y-77922321D01*
X13517261Y-77827083D01*
X13469642Y-77779464D01*
X13374404Y-77731845D01*
X13183928Y-77684226D01*
X12945833Y-77684226D01*
X12755357Y-77731845D01*
X12660119Y-77779464D01*
X12612500Y-77827083D01*
X12564880Y-77922321D01*
%TO.C,U11*%
X172382905Y-9463628D02*
X173192518Y-9463628D01*
X173287767Y-9511252D01*
X173335391Y-9558877D01*
X173383015Y-9654125D01*
X173383015Y-9844622D01*
X173335391Y-9939871D01*
X173287767Y-9987495D01*
X173192518Y-10035120D01*
X172382905Y-10035120D01*
X173383015Y-11035230D02*
X173383015Y-10463738D01*
X173383015Y-10749484D02*
X172382905Y-10749484D01*
X172525778Y-10654235D01*
X172621027Y-10558987D01*
X172668651Y-10463738D01*
X173383015Y-11987715D02*
X173383015Y-11416224D01*
X173383015Y-11701970D02*
X172382905Y-11701970D01*
X172525778Y-11606721D01*
X172621027Y-11511472D01*
X172668651Y-11416224D01*
%TO.C,D28*%
X129849255Y-37679464D02*
X128849255Y-37679464D01*
X128849255Y-37917559D01*
X128896875Y-38060416D01*
X128992113Y-38155654D01*
X129087351Y-38203273D01*
X129277827Y-38250892D01*
X129420684Y-38250892D01*
X129611160Y-38203273D01*
X129706398Y-38155654D01*
X129801636Y-38060416D01*
X129849255Y-37917559D01*
X129849255Y-37679464D01*
X128944494Y-38631845D02*
X128896875Y-38679464D01*
X128849255Y-38774702D01*
X128849255Y-39012797D01*
X128896875Y-39108035D01*
X128944494Y-39155654D01*
X129039732Y-39203273D01*
X129134970Y-39203273D01*
X129277827Y-39155654D01*
X129849255Y-38584226D01*
X129849255Y-39203273D01*
X129277827Y-39774702D02*
X129230208Y-39679464D01*
X129182589Y-39631845D01*
X129087351Y-39584226D01*
X129039732Y-39584226D01*
X128944494Y-39631845D01*
X128896875Y-39679464D01*
X128849255Y-39774702D01*
X128849255Y-39965178D01*
X128896875Y-40060416D01*
X128944494Y-40108035D01*
X129039732Y-40155654D01*
X129087351Y-40155654D01*
X129182589Y-40108035D01*
X129230208Y-40060416D01*
X129277827Y-39965178D01*
X129277827Y-39774702D01*
X129325446Y-39679464D01*
X129373065Y-39631845D01*
X129468303Y-39584226D01*
X129658779Y-39584226D01*
X129754017Y-39631845D01*
X129801636Y-39679464D01*
X129849255Y-39774702D01*
X129849255Y-39965178D01*
X129801636Y-40060416D01*
X129754017Y-40108035D01*
X129658779Y-40155654D01*
X129468303Y-40155654D01*
X129373065Y-40108035D01*
X129325446Y-40060416D01*
X129277827Y-39965178D01*
%TO.C,D61*%
X272724255Y-58316964D02*
X271724255Y-58316964D01*
X271724255Y-58555059D01*
X271771875Y-58697916D01*
X271867113Y-58793154D01*
X271962351Y-58840773D01*
X272152827Y-58888392D01*
X272295684Y-58888392D01*
X272486160Y-58840773D01*
X272581398Y-58793154D01*
X272676636Y-58697916D01*
X272724255Y-58555059D01*
X272724255Y-58316964D01*
X271724255Y-59745535D02*
X271724255Y-59555059D01*
X271771875Y-59459821D01*
X271819494Y-59412202D01*
X271962351Y-59316964D01*
X272152827Y-59269345D01*
X272533779Y-59269345D01*
X272629017Y-59316964D01*
X272676636Y-59364583D01*
X272724255Y-59459821D01*
X272724255Y-59650297D01*
X272676636Y-59745535D01*
X272629017Y-59793154D01*
X272533779Y-59840773D01*
X272295684Y-59840773D01*
X272200446Y-59793154D01*
X272152827Y-59745535D01*
X272105208Y-59650297D01*
X272105208Y-59459821D01*
X272152827Y-59364583D01*
X272200446Y-59316964D01*
X272295684Y-59269345D01*
X272724255Y-60793154D02*
X272724255Y-60221726D01*
X272724255Y-60507440D02*
X271724255Y-60507440D01*
X271867113Y-60412202D01*
X271962351Y-60316964D01*
X272009970Y-60221726D01*
%TO.C,C1*%
X52652142Y-26664583D02*
X52699761Y-26616964D01*
X52747380Y-26474107D01*
X52747380Y-26378869D01*
X52699761Y-26236011D01*
X52604523Y-26140773D01*
X52509285Y-26093154D01*
X52318809Y-26045535D01*
X52175952Y-26045535D01*
X51985476Y-26093154D01*
X51890238Y-26140773D01*
X51795000Y-26236011D01*
X51747380Y-26378869D01*
X51747380Y-26474107D01*
X51795000Y-26616964D01*
X51842619Y-26664583D01*
X52747380Y-27616964D02*
X52747380Y-27045535D01*
X52747380Y-27331250D02*
X51747380Y-27331250D01*
X51890238Y-27236011D01*
X51985476Y-27140773D01*
X52033095Y-27045535D01*
%TO.C,D48*%
X210811755Y-1166964D02*
X209811755Y-1166964D01*
X209811755Y-1405059D01*
X209859375Y-1547916D01*
X209954613Y-1643154D01*
X210049851Y-1690773D01*
X210240327Y-1738392D01*
X210383184Y-1738392D01*
X210573660Y-1690773D01*
X210668898Y-1643154D01*
X210764136Y-1547916D01*
X210811755Y-1405059D01*
X210811755Y-1166964D01*
X210145089Y-2595535D02*
X210811755Y-2595535D01*
X209764136Y-2357440D02*
X210478422Y-2119345D01*
X210478422Y-2738392D01*
X210240327Y-3262202D02*
X210192708Y-3166964D01*
X210145089Y-3119345D01*
X210049851Y-3071726D01*
X210002232Y-3071726D01*
X209906994Y-3119345D01*
X209859375Y-3166964D01*
X209811755Y-3262202D01*
X209811755Y-3452678D01*
X209859375Y-3547916D01*
X209906994Y-3595535D01*
X210002232Y-3643154D01*
X210049851Y-3643154D01*
X210145089Y-3595535D01*
X210192708Y-3547916D01*
X210240327Y-3452678D01*
X210240327Y-3262202D01*
X210287946Y-3166964D01*
X210335565Y-3119345D01*
X210430803Y-3071726D01*
X210621279Y-3071726D01*
X210716517Y-3119345D01*
X210764136Y-3166964D01*
X210811755Y-3262202D01*
X210811755Y-3452678D01*
X210764136Y-3547916D01*
X210716517Y-3595535D01*
X210621279Y-3643154D01*
X210430803Y-3643154D01*
X210335565Y-3595535D01*
X210287946Y-3547916D01*
X210240327Y-3452678D01*
%TO.C,U8*%
X214848530Y-9939871D02*
X215658143Y-9939871D01*
X215753392Y-9987495D01*
X215801016Y-10035120D01*
X215848640Y-10130368D01*
X215848640Y-10320865D01*
X215801016Y-10416114D01*
X215753392Y-10463738D01*
X215658143Y-10511362D01*
X214848530Y-10511362D01*
X215277149Y-11130478D02*
X215229525Y-11035230D01*
X215181900Y-10987605D01*
X215086652Y-10939981D01*
X215039027Y-10939981D01*
X214943779Y-10987605D01*
X214896155Y-11035230D01*
X214848530Y-11130478D01*
X214848530Y-11320975D01*
X214896155Y-11416224D01*
X214943779Y-11463848D01*
X215039027Y-11511472D01*
X215086652Y-11511472D01*
X215181900Y-11463848D01*
X215229525Y-11416224D01*
X215277149Y-11320975D01*
X215277149Y-11130478D01*
X215324773Y-11035230D01*
X215372397Y-10987605D01*
X215467646Y-10939981D01*
X215658143Y-10939981D01*
X215753392Y-10987605D01*
X215801016Y-11035230D01*
X215848640Y-11130478D01*
X215848640Y-11320975D01*
X215801016Y-11416224D01*
X215753392Y-11463848D01*
X215658143Y-11511472D01*
X215467646Y-11511472D01*
X215372397Y-11463848D01*
X215324773Y-11416224D01*
X215277149Y-11320975D01*
%TO.C,U12*%
X23554780Y-66613628D02*
X24364393Y-66613628D01*
X24459642Y-66661252D01*
X24507266Y-66708877D01*
X24554890Y-66804125D01*
X24554890Y-66994622D01*
X24507266Y-67089871D01*
X24459642Y-67137495D01*
X24364393Y-67185120D01*
X23554780Y-67185120D01*
X24554890Y-68185230D02*
X24554890Y-67613738D01*
X24554890Y-67899484D02*
X23554780Y-67899484D01*
X23697653Y-67804235D01*
X23792902Y-67708987D01*
X23840526Y-67613738D01*
X23650029Y-68566224D02*
X23602405Y-68613848D01*
X23554780Y-68709097D01*
X23554780Y-68947218D01*
X23602405Y-69042467D01*
X23650029Y-69090091D01*
X23745277Y-69137715D01*
X23840526Y-69137715D01*
X23983399Y-69090091D01*
X24554890Y-68518600D01*
X24554890Y-69137715D01*
%TO.C,D71*%
X299314880Y-77366964D02*
X298314880Y-77366964D01*
X298314880Y-77605059D01*
X298362500Y-77747916D01*
X298457738Y-77843154D01*
X298552976Y-77890773D01*
X298743452Y-77938392D01*
X298886309Y-77938392D01*
X299076785Y-77890773D01*
X299172023Y-77843154D01*
X299267261Y-77747916D01*
X299314880Y-77605059D01*
X299314880Y-77366964D01*
X298314880Y-78271726D02*
X298314880Y-78938392D01*
X299314880Y-78509821D01*
X299314880Y-79843154D02*
X299314880Y-79271726D01*
X299314880Y-79557440D02*
X298314880Y-79557440D01*
X298457738Y-79462202D01*
X298552976Y-79366964D01*
X298600595Y-79271726D01*
%TO.C,U14*%
X140632905Y-9463628D02*
X141442518Y-9463628D01*
X141537767Y-9511252D01*
X141585391Y-9558877D01*
X141633015Y-9654125D01*
X141633015Y-9844622D01*
X141585391Y-9939871D01*
X141537767Y-9987495D01*
X141442518Y-10035120D01*
X140632905Y-10035120D01*
X141633015Y-11035230D02*
X141633015Y-10463738D01*
X141633015Y-10749484D02*
X140632905Y-10749484D01*
X140775778Y-10654235D01*
X140871027Y-10558987D01*
X140918651Y-10463738D01*
X140966275Y-11892467D02*
X141633015Y-11892467D01*
X140585281Y-11654345D02*
X141299645Y-11416224D01*
X141299645Y-12035340D01*
%TO.C,D11*%
X58411755Y-1166964D02*
X57411755Y-1166964D01*
X57411755Y-1405059D01*
X57459375Y-1547916D01*
X57554613Y-1643154D01*
X57649851Y-1690773D01*
X57840327Y-1738392D01*
X57983184Y-1738392D01*
X58173660Y-1690773D01*
X58268898Y-1643154D01*
X58364136Y-1547916D01*
X58411755Y-1405059D01*
X58411755Y-1166964D01*
X58411755Y-2690773D02*
X58411755Y-2119345D01*
X58411755Y-2405059D02*
X57411755Y-2405059D01*
X57554613Y-2309821D01*
X57649851Y-2214583D01*
X57697470Y-2119345D01*
X58411755Y-3643154D02*
X58411755Y-3071726D01*
X58411755Y-3357440D02*
X57411755Y-3357440D01*
X57554613Y-3262202D01*
X57649851Y-3166964D01*
X57697470Y-3071726D01*
%TO.C,D35*%
X153661755Y420535D02*
X152661755Y420535D01*
X152661755Y182440D01*
X152709375Y39583D01*
X152804613Y-55654D01*
X152899851Y-103273D01*
X153090327Y-150892D01*
X153233184Y-150892D01*
X153423660Y-103273D01*
X153518898Y-55654D01*
X153614136Y39583D01*
X153661755Y182440D01*
X153661755Y420535D01*
X152661755Y-484226D02*
X152661755Y-1103273D01*
X153042708Y-769940D01*
X153042708Y-912797D01*
X153090327Y-1008035D01*
X153137946Y-1055654D01*
X153233184Y-1103273D01*
X153471279Y-1103273D01*
X153566517Y-1055654D01*
X153614136Y-1008035D01*
X153661755Y-912797D01*
X153661755Y-627083D01*
X153614136Y-531845D01*
X153566517Y-484226D01*
X152661755Y-2008035D02*
X152661755Y-1531845D01*
X153137946Y-1484226D01*
X153090327Y-1531845D01*
X153042708Y-1627083D01*
X153042708Y-1865178D01*
X153090327Y-1960416D01*
X153137946Y-2008035D01*
X153233184Y-2055654D01*
X153471279Y-2055654D01*
X153566517Y-2008035D01*
X153614136Y-1960416D01*
X153661755Y-1865178D01*
X153661755Y-1627083D01*
X153614136Y-1531845D01*
X153566517Y-1484226D01*
%TO.C,D74*%
X308839880Y-1166964D02*
X307839880Y-1166964D01*
X307839880Y-1405059D01*
X307887500Y-1547916D01*
X307982738Y-1643154D01*
X308077976Y-1690773D01*
X308268452Y-1738392D01*
X308411309Y-1738392D01*
X308601785Y-1690773D01*
X308697023Y-1643154D01*
X308792261Y-1547916D01*
X308839880Y-1405059D01*
X308839880Y-1166964D01*
X307839880Y-2071726D02*
X307839880Y-2738392D01*
X308839880Y-2309821D01*
X308173214Y-3547916D02*
X308839880Y-3547916D01*
X307792261Y-3309821D02*
X308506547Y-3071726D01*
X308506547Y-3690773D01*
%TO.C,D58*%
X248911755Y-1166964D02*
X247911755Y-1166964D01*
X247911755Y-1405059D01*
X247959375Y-1547916D01*
X248054613Y-1643154D01*
X248149851Y-1690773D01*
X248340327Y-1738392D01*
X248483184Y-1738392D01*
X248673660Y-1690773D01*
X248768898Y-1643154D01*
X248864136Y-1547916D01*
X248911755Y-1405059D01*
X248911755Y-1166964D01*
X247911755Y-2643154D02*
X247911755Y-2166964D01*
X248387946Y-2119345D01*
X248340327Y-2166964D01*
X248292708Y-2262202D01*
X248292708Y-2500297D01*
X248340327Y-2595535D01*
X248387946Y-2643154D01*
X248483184Y-2690773D01*
X248721279Y-2690773D01*
X248816517Y-2643154D01*
X248864136Y-2595535D01*
X248911755Y-2500297D01*
X248911755Y-2262202D01*
X248864136Y-2166964D01*
X248816517Y-2119345D01*
X248340327Y-3262202D02*
X248292708Y-3166964D01*
X248245089Y-3119345D01*
X248149851Y-3071726D01*
X248102232Y-3071726D01*
X248006994Y-3119345D01*
X247959375Y-3166964D01*
X247911755Y-3262202D01*
X247911755Y-3452678D01*
X247959375Y-3547916D01*
X248006994Y-3595535D01*
X248102232Y-3643154D01*
X248149851Y-3643154D01*
X248245089Y-3595535D01*
X248292708Y-3547916D01*
X248340327Y-3452678D01*
X248340327Y-3262202D01*
X248387946Y-3166964D01*
X248435565Y-3119345D01*
X248530803Y-3071726D01*
X248721279Y-3071726D01*
X248816517Y-3119345D01*
X248864136Y-3166964D01*
X248911755Y-3262202D01*
X248911755Y-3452678D01*
X248864136Y-3547916D01*
X248816517Y-3595535D01*
X248721279Y-3643154D01*
X248530803Y-3643154D01*
X248435565Y-3595535D01*
X248387946Y-3547916D01*
X248340327Y-3452678D01*
%TO.C,D25*%
X115561755Y-77366964D02*
X114561755Y-77366964D01*
X114561755Y-77605059D01*
X114609375Y-77747916D01*
X114704613Y-77843154D01*
X114799851Y-77890773D01*
X114990327Y-77938392D01*
X115133184Y-77938392D01*
X115323660Y-77890773D01*
X115418898Y-77843154D01*
X115514136Y-77747916D01*
X115561755Y-77605059D01*
X115561755Y-77366964D01*
X114656994Y-78319345D02*
X114609375Y-78366964D01*
X114561755Y-78462202D01*
X114561755Y-78700297D01*
X114609375Y-78795535D01*
X114656994Y-78843154D01*
X114752232Y-78890773D01*
X114847470Y-78890773D01*
X114990327Y-78843154D01*
X115561755Y-78271726D01*
X115561755Y-78890773D01*
X114561755Y-79795535D02*
X114561755Y-79319345D01*
X115037946Y-79271726D01*
X114990327Y-79319345D01*
X114942708Y-79414583D01*
X114942708Y-79652678D01*
X114990327Y-79747916D01*
X115037946Y-79795535D01*
X115133184Y-79843154D01*
X115371279Y-79843154D01*
X115466517Y-79795535D01*
X115514136Y-79747916D01*
X115561755Y-79652678D01*
X115561755Y-79414583D01*
X115514136Y-79319345D01*
X115466517Y-79271726D01*
%TO.C,D60*%
X263199255Y-39266964D02*
X262199255Y-39266964D01*
X262199255Y-39505059D01*
X262246875Y-39647916D01*
X262342113Y-39743154D01*
X262437351Y-39790773D01*
X262627827Y-39838392D01*
X262770684Y-39838392D01*
X262961160Y-39790773D01*
X263056398Y-39743154D01*
X263151636Y-39647916D01*
X263199255Y-39505059D01*
X263199255Y-39266964D01*
X262199255Y-40695535D02*
X262199255Y-40505059D01*
X262246875Y-40409821D01*
X262294494Y-40362202D01*
X262437351Y-40266964D01*
X262627827Y-40219345D01*
X263008779Y-40219345D01*
X263104017Y-40266964D01*
X263151636Y-40314583D01*
X263199255Y-40409821D01*
X263199255Y-40600297D01*
X263151636Y-40695535D01*
X263104017Y-40743154D01*
X263008779Y-40790773D01*
X262770684Y-40790773D01*
X262675446Y-40743154D01*
X262627827Y-40695535D01*
X262580208Y-40600297D01*
X262580208Y-40409821D01*
X262627827Y-40314583D01*
X262675446Y-40266964D01*
X262770684Y-40219345D01*
X262199255Y-41409821D02*
X262199255Y-41505059D01*
X262246875Y-41600297D01*
X262294494Y-41647916D01*
X262389732Y-41695535D01*
X262580208Y-41743154D01*
X262818303Y-41743154D01*
X263008779Y-41695535D01*
X263104017Y-41647916D01*
X263151636Y-41600297D01*
X263199255Y-41505059D01*
X263199255Y-41409821D01*
X263151636Y-41314583D01*
X263104017Y-41266964D01*
X263008779Y-41219345D01*
X262818303Y-41171726D01*
X262580208Y-41171726D01*
X262389732Y-41219345D01*
X262294494Y-41266964D01*
X262246875Y-41314583D01*
X262199255Y-41409821D01*
%TO.C,D59*%
X258436755Y-18629464D02*
X257436755Y-18629464D01*
X257436755Y-18867559D01*
X257484375Y-19010416D01*
X257579613Y-19105654D01*
X257674851Y-19153273D01*
X257865327Y-19200892D01*
X258008184Y-19200892D01*
X258198660Y-19153273D01*
X258293898Y-19105654D01*
X258389136Y-19010416D01*
X258436755Y-18867559D01*
X258436755Y-18629464D01*
X257436755Y-20105654D02*
X257436755Y-19629464D01*
X257912946Y-19581845D01*
X257865327Y-19629464D01*
X257817708Y-19724702D01*
X257817708Y-19962797D01*
X257865327Y-20058035D01*
X257912946Y-20105654D01*
X258008184Y-20153273D01*
X258246279Y-20153273D01*
X258341517Y-20105654D01*
X258389136Y-20058035D01*
X258436755Y-19962797D01*
X258436755Y-19724702D01*
X258389136Y-19629464D01*
X258341517Y-19581845D01*
X258436755Y-20629464D02*
X258436755Y-20819940D01*
X258389136Y-20915178D01*
X258341517Y-20962797D01*
X258198660Y-21058035D01*
X258008184Y-21105654D01*
X257627232Y-21105654D01*
X257531994Y-21058035D01*
X257484375Y-21010416D01*
X257436755Y-20915178D01*
X257436755Y-20724702D01*
X257484375Y-20629464D01*
X257531994Y-20581845D01*
X257627232Y-20534226D01*
X257865327Y-20534226D01*
X257960565Y-20581845D01*
X258008184Y-20629464D01*
X258055803Y-20724702D01*
X258055803Y-20915178D01*
X258008184Y-21010416D01*
X257960565Y-21058035D01*
X257865327Y-21105654D01*
%TO.C,D14*%
X69921130Y-58316964D02*
X68921130Y-58316964D01*
X68921130Y-58555059D01*
X68968750Y-58697916D01*
X69063988Y-58793154D01*
X69159226Y-58840773D01*
X69349702Y-58888392D01*
X69492559Y-58888392D01*
X69683035Y-58840773D01*
X69778273Y-58793154D01*
X69873511Y-58697916D01*
X69921130Y-58555059D01*
X69921130Y-58316964D01*
X69921130Y-59840773D02*
X69921130Y-59269345D01*
X69921130Y-59555059D02*
X68921130Y-59555059D01*
X69063988Y-59459821D01*
X69159226Y-59364583D01*
X69206845Y-59269345D01*
X69254464Y-60697916D02*
X69921130Y-60697916D01*
X68873511Y-60459821D02*
X69587797Y-60221726D01*
X69587797Y-60840773D01*
%TO.C,D33*%
X148899255Y-39266964D02*
X147899255Y-39266964D01*
X147899255Y-39505059D01*
X147946875Y-39647916D01*
X148042113Y-39743154D01*
X148137351Y-39790773D01*
X148327827Y-39838392D01*
X148470684Y-39838392D01*
X148661160Y-39790773D01*
X148756398Y-39743154D01*
X148851636Y-39647916D01*
X148899255Y-39505059D01*
X148899255Y-39266964D01*
X147899255Y-40171726D02*
X147899255Y-40790773D01*
X148280208Y-40457440D01*
X148280208Y-40600297D01*
X148327827Y-40695535D01*
X148375446Y-40743154D01*
X148470684Y-40790773D01*
X148708779Y-40790773D01*
X148804017Y-40743154D01*
X148851636Y-40695535D01*
X148899255Y-40600297D01*
X148899255Y-40314583D01*
X148851636Y-40219345D01*
X148804017Y-40171726D01*
X147899255Y-41124107D02*
X147899255Y-41743154D01*
X148280208Y-41409821D01*
X148280208Y-41552678D01*
X148327827Y-41647916D01*
X148375446Y-41695535D01*
X148470684Y-41743154D01*
X148708779Y-41743154D01*
X148804017Y-41695535D01*
X148851636Y-41647916D01*
X148899255Y-41552678D01*
X148899255Y-41266964D01*
X148851636Y-41171726D01*
X148804017Y-41124107D01*
%TO.C,D13*%
X65555505Y-39266964D02*
X64555505Y-39266964D01*
X64555505Y-39505059D01*
X64603125Y-39647916D01*
X64698363Y-39743154D01*
X64793601Y-39790773D01*
X64984077Y-39838392D01*
X65126934Y-39838392D01*
X65317410Y-39790773D01*
X65412648Y-39743154D01*
X65507886Y-39647916D01*
X65555505Y-39505059D01*
X65555505Y-39266964D01*
X65555505Y-40790773D02*
X65555505Y-40219345D01*
X65555505Y-40505059D02*
X64555505Y-40505059D01*
X64698363Y-40409821D01*
X64793601Y-40314583D01*
X64841220Y-40219345D01*
X64555505Y-41124107D02*
X64555505Y-41743154D01*
X64936458Y-41409821D01*
X64936458Y-41552678D01*
X64984077Y-41647916D01*
X65031696Y-41695535D01*
X65126934Y-41743154D01*
X65365029Y-41743154D01*
X65460267Y-41695535D01*
X65507886Y-41647916D01*
X65555505Y-41552678D01*
X65555505Y-41266964D01*
X65507886Y-41171726D01*
X65460267Y-41124107D01*
%TO.C,C5*%
X43822916Y-40930892D02*
X43870535Y-40978511D01*
X44013392Y-41026130D01*
X44108630Y-41026130D01*
X44251488Y-40978511D01*
X44346726Y-40883273D01*
X44394345Y-40788035D01*
X44441964Y-40597559D01*
X44441964Y-40454702D01*
X44394345Y-40264226D01*
X44346726Y-40168988D01*
X44251488Y-40073750D01*
X44108630Y-40026130D01*
X44013392Y-40026130D01*
X43870535Y-40073750D01*
X43822916Y-40121369D01*
X42918154Y-40026130D02*
X43394345Y-40026130D01*
X43441964Y-40502321D01*
X43394345Y-40454702D01*
X43299107Y-40407083D01*
X43061011Y-40407083D01*
X42965773Y-40454702D01*
X42918154Y-40502321D01*
X42870535Y-40597559D01*
X42870535Y-40835654D01*
X42918154Y-40930892D01*
X42965773Y-40978511D01*
X43061011Y-41026130D01*
X43299107Y-41026130D01*
X43394345Y-40978511D01*
X43441964Y-40930892D01*
%TO.C,D70*%
X308839880Y-58316964D02*
X307839880Y-58316964D01*
X307839880Y-58555059D01*
X307887500Y-58697916D01*
X307982738Y-58793154D01*
X308077976Y-58840773D01*
X308268452Y-58888392D01*
X308411309Y-58888392D01*
X308601785Y-58840773D01*
X308697023Y-58793154D01*
X308792261Y-58697916D01*
X308839880Y-58555059D01*
X308839880Y-58316964D01*
X307839880Y-59221726D02*
X307839880Y-59888392D01*
X308839880Y-59459821D01*
X307839880Y-60459821D02*
X307839880Y-60555059D01*
X307887500Y-60650297D01*
X307935119Y-60697916D01*
X308030357Y-60745535D01*
X308220833Y-60793154D01*
X308458928Y-60793154D01*
X308649404Y-60745535D01*
X308744642Y-60697916D01*
X308792261Y-60650297D01*
X308839880Y-60555059D01*
X308839880Y-60459821D01*
X308792261Y-60364583D01*
X308744642Y-60316964D01*
X308649404Y-60269345D01*
X308458928Y-60221726D01*
X308220833Y-60221726D01*
X308030357Y-60269345D01*
X307935119Y-60316964D01*
X307887500Y-60364583D01*
X307839880Y-60459821D01*
%TO.C,R4*%
X27154166Y-36108630D02*
X27487500Y-35632440D01*
X27725595Y-36108630D02*
X27725595Y-35108630D01*
X27344642Y-35108630D01*
X27249404Y-35156250D01*
X27201785Y-35203869D01*
X27154166Y-35299107D01*
X27154166Y-35441964D01*
X27201785Y-35537202D01*
X27249404Y-35584821D01*
X27344642Y-35632440D01*
X27725595Y-35632440D01*
X26297023Y-35441964D02*
X26297023Y-36108630D01*
X26535119Y-35061011D02*
X26773214Y-35775297D01*
X26154166Y-35775297D01*
%TO.C,D1*%
X10389880Y-1643154D02*
X9389880Y-1643154D01*
X9389880Y-1881250D01*
X9437500Y-2024107D01*
X9532738Y-2119345D01*
X9627976Y-2166964D01*
X9818452Y-2214583D01*
X9961309Y-2214583D01*
X10151785Y-2166964D01*
X10247023Y-2119345D01*
X10342261Y-2024107D01*
X10389880Y-1881250D01*
X10389880Y-1643154D01*
X10389880Y-3166964D02*
X10389880Y-2595535D01*
X10389880Y-2881250D02*
X9389880Y-2881250D01*
X9532738Y-2786011D01*
X9627976Y-2690773D01*
X9675595Y-2595535D01*
%TO.C,D3*%
X10389880Y-39743154D02*
X9389880Y-39743154D01*
X9389880Y-39981250D01*
X9437500Y-40124107D01*
X9532738Y-40219345D01*
X9627976Y-40266964D01*
X9818452Y-40314583D01*
X9961309Y-40314583D01*
X10151785Y-40266964D01*
X10247023Y-40219345D01*
X10342261Y-40124107D01*
X10389880Y-39981250D01*
X10389880Y-39743154D01*
X9389880Y-40647916D02*
X9389880Y-41266964D01*
X9770833Y-40933630D01*
X9770833Y-41076488D01*
X9818452Y-41171726D01*
X9866071Y-41219345D01*
X9961309Y-41266964D01*
X10199404Y-41266964D01*
X10294642Y-41219345D01*
X10342261Y-41171726D01*
X10389880Y-41076488D01*
X10389880Y-40790773D01*
X10342261Y-40695535D01*
X10294642Y-40647916D01*
%TO.C,D41*%
X186999255Y-39266964D02*
X185999255Y-39266964D01*
X185999255Y-39505059D01*
X186046875Y-39647916D01*
X186142113Y-39743154D01*
X186237351Y-39790773D01*
X186427827Y-39838392D01*
X186570684Y-39838392D01*
X186761160Y-39790773D01*
X186856398Y-39743154D01*
X186951636Y-39647916D01*
X186999255Y-39505059D01*
X186999255Y-39266964D01*
X186332589Y-40695535D02*
X186999255Y-40695535D01*
X185951636Y-40457440D02*
X186665922Y-40219345D01*
X186665922Y-40838392D01*
X186999255Y-41743154D02*
X186999255Y-41171726D01*
X186999255Y-41457440D02*
X185999255Y-41457440D01*
X186142113Y-41362202D01*
X186237351Y-41266964D01*
X186284970Y-41171726D01*
%TO.C,D37*%
X167949255Y-37679464D02*
X166949255Y-37679464D01*
X166949255Y-37917559D01*
X166996875Y-38060416D01*
X167092113Y-38155654D01*
X167187351Y-38203273D01*
X167377827Y-38250892D01*
X167520684Y-38250892D01*
X167711160Y-38203273D01*
X167806398Y-38155654D01*
X167901636Y-38060416D01*
X167949255Y-37917559D01*
X167949255Y-37679464D01*
X166949255Y-38584226D02*
X166949255Y-39203273D01*
X167330208Y-38869940D01*
X167330208Y-39012797D01*
X167377827Y-39108035D01*
X167425446Y-39155654D01*
X167520684Y-39203273D01*
X167758779Y-39203273D01*
X167854017Y-39155654D01*
X167901636Y-39108035D01*
X167949255Y-39012797D01*
X167949255Y-38727083D01*
X167901636Y-38631845D01*
X167854017Y-38584226D01*
X166949255Y-39536607D02*
X166949255Y-40203273D01*
X167949255Y-39774702D01*
%TO.C,U6*%
X-8988969Y-48039871D02*
X-8179356Y-48039871D01*
X-8084107Y-48087495D01*
X-8036483Y-48135120D01*
X-7988859Y-48230368D01*
X-7988859Y-48420865D01*
X-8036483Y-48516114D01*
X-8084107Y-48563738D01*
X-8179356Y-48611362D01*
X-8988969Y-48611362D01*
X-8988969Y-49516224D02*
X-8988969Y-49325727D01*
X-8941345Y-49230478D01*
X-8893720Y-49182854D01*
X-8750847Y-49087605D01*
X-8560350Y-49039981D01*
X-8179356Y-49039981D01*
X-8084107Y-49087605D01*
X-8036483Y-49135230D01*
X-7988859Y-49230478D01*
X-7988859Y-49420975D01*
X-8036483Y-49516224D01*
X-8084107Y-49563848D01*
X-8179356Y-49611472D01*
X-8417477Y-49611472D01*
X-8512726Y-49563848D01*
X-8560350Y-49516224D01*
X-8607975Y-49420975D01*
X-8607975Y-49230478D01*
X-8560350Y-49135230D01*
X-8512726Y-49087605D01*
X-8417477Y-49039981D01*
%TO.C,U13*%
X318036030Y-66613628D02*
X318845643Y-66613628D01*
X318940892Y-66661252D01*
X318988516Y-66708877D01*
X319036140Y-66804125D01*
X319036140Y-66994622D01*
X318988516Y-67089871D01*
X318940892Y-67137495D01*
X318845643Y-67185120D01*
X318036030Y-67185120D01*
X319036140Y-68185230D02*
X319036140Y-67613738D01*
X319036140Y-67899484D02*
X318036030Y-67899484D01*
X318178903Y-67804235D01*
X318274152Y-67708987D01*
X318321776Y-67613738D01*
X318036030Y-68518600D02*
X318036030Y-69137715D01*
X318417025Y-68804345D01*
X318417025Y-68947218D01*
X318464649Y-69042467D01*
X318512273Y-69090091D01*
X318607522Y-69137715D01*
X318845643Y-69137715D01*
X318940892Y-69090091D01*
X318988516Y-69042467D01*
X319036140Y-68947218D01*
X319036140Y-68661472D01*
X318988516Y-68566224D01*
X318940892Y-68518600D01*
%TO.C,D2*%
X10389880Y-19105654D02*
X9389880Y-19105654D01*
X9389880Y-19343750D01*
X9437500Y-19486607D01*
X9532738Y-19581845D01*
X9627976Y-19629464D01*
X9818452Y-19677083D01*
X9961309Y-19677083D01*
X10151785Y-19629464D01*
X10247023Y-19581845D01*
X10342261Y-19486607D01*
X10389880Y-19343750D01*
X10389880Y-19105654D01*
X9485119Y-20058035D02*
X9437500Y-20105654D01*
X9389880Y-20200892D01*
X9389880Y-20438988D01*
X9437500Y-20534226D01*
X9485119Y-20581845D01*
X9580357Y-20629464D01*
X9675595Y-20629464D01*
X9818452Y-20581845D01*
X10389880Y-20010416D01*
X10389880Y-20629464D01*
%TO.C,D6*%
X13564880Y-55654D02*
X12564880Y-55654D01*
X12564880Y-293749D01*
X12612500Y-436607D01*
X12707738Y-531845D01*
X12802976Y-579464D01*
X12993452Y-627083D01*
X13136309Y-627083D01*
X13326785Y-579464D01*
X13422023Y-531845D01*
X13517261Y-436607D01*
X13564880Y-293750D01*
X13564880Y-55654D01*
X12564880Y-1484226D02*
X12564880Y-1293750D01*
X12612500Y-1198511D01*
X12660119Y-1150892D01*
X12802976Y-1055654D01*
X12993452Y-1008035D01*
X13374404Y-1008035D01*
X13469642Y-1055654D01*
X13517261Y-1103273D01*
X13564880Y-1198511D01*
X13564880Y-1388988D01*
X13517261Y-1484226D01*
X13469642Y-1531845D01*
X13374404Y-1579464D01*
X13136309Y-1579464D01*
X13041071Y-1531845D01*
X12993452Y-1484226D01*
X12945833Y-1388988D01*
X12945833Y-1198511D01*
X12993452Y-1103273D01*
X13041071Y-1055654D01*
X13136309Y-1008035D01*
%TO.C,D36*%
X163186755Y-20216964D02*
X162186755Y-20216964D01*
X162186755Y-20455059D01*
X162234375Y-20597916D01*
X162329613Y-20693154D01*
X162424851Y-20740773D01*
X162615327Y-20788392D01*
X162758184Y-20788392D01*
X162948660Y-20740773D01*
X163043898Y-20693154D01*
X163139136Y-20597916D01*
X163186755Y-20455059D01*
X163186755Y-20216964D01*
X162186755Y-21121726D02*
X162186755Y-21740773D01*
X162567708Y-21407440D01*
X162567708Y-21550297D01*
X162615327Y-21645535D01*
X162662946Y-21693154D01*
X162758184Y-21740773D01*
X162996279Y-21740773D01*
X163091517Y-21693154D01*
X163139136Y-21645535D01*
X163186755Y-21550297D01*
X163186755Y-21264583D01*
X163139136Y-21169345D01*
X163091517Y-21121726D01*
X162186755Y-22597916D02*
X162186755Y-22407440D01*
X162234375Y-22312202D01*
X162281994Y-22264583D01*
X162424851Y-22169345D01*
X162615327Y-22121726D01*
X162996279Y-22121726D01*
X163091517Y-22169345D01*
X163139136Y-22216964D01*
X163186755Y-22312202D01*
X163186755Y-22502678D01*
X163139136Y-22597916D01*
X163091517Y-22645535D01*
X162996279Y-22693154D01*
X162758184Y-22693154D01*
X162662946Y-22645535D01*
X162615327Y-22597916D01*
X162567708Y-22502678D01*
X162567708Y-22312202D01*
X162615327Y-22216964D01*
X162662946Y-22169345D01*
X162758184Y-22121726D01*
%TO.C,D65*%
X281852380Y-37679464D02*
X280852380Y-37679464D01*
X280852380Y-37917559D01*
X280900000Y-38060416D01*
X280995238Y-38155654D01*
X281090476Y-38203273D01*
X281280952Y-38250892D01*
X281423809Y-38250892D01*
X281614285Y-38203273D01*
X281709523Y-38155654D01*
X281804761Y-38060416D01*
X281852380Y-37917559D01*
X281852380Y-37679464D01*
X280852380Y-39108035D02*
X280852380Y-38917559D01*
X280900000Y-38822321D01*
X280947619Y-38774702D01*
X281090476Y-38679464D01*
X281280952Y-38631845D01*
X281661904Y-38631845D01*
X281757142Y-38679464D01*
X281804761Y-38727083D01*
X281852380Y-38822321D01*
X281852380Y-39012797D01*
X281804761Y-39108035D01*
X281757142Y-39155654D01*
X281661904Y-39203273D01*
X281423809Y-39203273D01*
X281328571Y-39155654D01*
X281280952Y-39108035D01*
X281233333Y-39012797D01*
X281233333Y-38822321D01*
X281280952Y-38727083D01*
X281328571Y-38679464D01*
X281423809Y-38631845D01*
X280852380Y-40108035D02*
X280852380Y-39631845D01*
X281328571Y-39584226D01*
X281280952Y-39631845D01*
X281233333Y-39727083D01*
X281233333Y-39965178D01*
X281280952Y-40060416D01*
X281328571Y-40108035D01*
X281423809Y-40155654D01*
X281661904Y-40155654D01*
X281757142Y-40108035D01*
X281804761Y-40060416D01*
X281852380Y-39965178D01*
X281852380Y-39727083D01*
X281804761Y-39631845D01*
X281757142Y-39584226D01*
%TO.C,D8*%
X13564880Y-38155654D02*
X12564880Y-38155654D01*
X12564880Y-38393750D01*
X12612500Y-38536607D01*
X12707738Y-38631845D01*
X12802976Y-38679464D01*
X12993452Y-38727083D01*
X13136309Y-38727083D01*
X13326785Y-38679464D01*
X13422023Y-38631845D01*
X13517261Y-38536607D01*
X13564880Y-38393750D01*
X13564880Y-38155654D01*
X12993452Y-39298511D02*
X12945833Y-39203273D01*
X12898214Y-39155654D01*
X12802976Y-39108035D01*
X12755357Y-39108035D01*
X12660119Y-39155654D01*
X12612500Y-39203273D01*
X12564880Y-39298511D01*
X12564880Y-39488988D01*
X12612500Y-39584226D01*
X12660119Y-39631845D01*
X12755357Y-39679464D01*
X12802976Y-39679464D01*
X12898214Y-39631845D01*
X12945833Y-39584226D01*
X12993452Y-39488988D01*
X12993452Y-39298511D01*
X13041071Y-39203273D01*
X13088690Y-39155654D01*
X13183928Y-39108035D01*
X13374404Y-39108035D01*
X13469642Y-39155654D01*
X13517261Y-39203273D01*
X13564880Y-39298511D01*
X13564880Y-39488988D01*
X13517261Y-39584226D01*
X13469642Y-39631845D01*
X13374404Y-39679464D01*
X13183928Y-39679464D01*
X13088690Y-39631845D01*
X13041071Y-39584226D01*
X12993452Y-39488988D01*
%TO.C,D45*%
X201286755Y-20216964D02*
X200286755Y-20216964D01*
X200286755Y-20455059D01*
X200334375Y-20597916D01*
X200429613Y-20693154D01*
X200524851Y-20740773D01*
X200715327Y-20788392D01*
X200858184Y-20788392D01*
X201048660Y-20740773D01*
X201143898Y-20693154D01*
X201239136Y-20597916D01*
X201286755Y-20455059D01*
X201286755Y-20216964D01*
X200620089Y-21645535D02*
X201286755Y-21645535D01*
X200239136Y-21407440D02*
X200953422Y-21169345D01*
X200953422Y-21788392D01*
X200286755Y-22645535D02*
X200286755Y-22169345D01*
X200762946Y-22121726D01*
X200715327Y-22169345D01*
X200667708Y-22264583D01*
X200667708Y-22502678D01*
X200715327Y-22597916D01*
X200762946Y-22645535D01*
X200858184Y-22693154D01*
X201096279Y-22693154D01*
X201191517Y-22645535D01*
X201239136Y-22597916D01*
X201286755Y-22502678D01*
X201286755Y-22264583D01*
X201239136Y-22169345D01*
X201191517Y-22121726D01*
%TO.C,U3*%
X-4516429Y-27813011D02*
X-3706816Y-27813011D01*
X-3611567Y-27860635D01*
X-3563943Y-27908260D01*
X-3516319Y-28003508D01*
X-3516319Y-28194005D01*
X-3563943Y-28289254D01*
X-3611567Y-28336878D01*
X-3706816Y-28384502D01*
X-4516429Y-28384502D01*
X-4516429Y-28765497D02*
X-4516429Y-29384612D01*
X-4135435Y-29051242D01*
X-4135435Y-29194115D01*
X-4087810Y-29289364D01*
X-4040186Y-29336988D01*
X-3944937Y-29384612D01*
X-3706816Y-29384612D01*
X-3611567Y-29336988D01*
X-3563943Y-29289364D01*
X-3516319Y-29194115D01*
X-3516319Y-28908370D01*
X-3563943Y-28813121D01*
X-3611567Y-28765497D01*
%TO.C,D18*%
X91749255Y-37679464D02*
X90749255Y-37679464D01*
X90749255Y-37917559D01*
X90796875Y-38060416D01*
X90892113Y-38155654D01*
X90987351Y-38203273D01*
X91177827Y-38250892D01*
X91320684Y-38250892D01*
X91511160Y-38203273D01*
X91606398Y-38155654D01*
X91701636Y-38060416D01*
X91749255Y-37917559D01*
X91749255Y-37679464D01*
X91749255Y-39203273D02*
X91749255Y-38631845D01*
X91749255Y-38917559D02*
X90749255Y-38917559D01*
X90892113Y-38822321D01*
X90987351Y-38727083D01*
X91034970Y-38631845D01*
X91177827Y-39774702D02*
X91130208Y-39679464D01*
X91082589Y-39631845D01*
X90987351Y-39584226D01*
X90939732Y-39584226D01*
X90844494Y-39631845D01*
X90796875Y-39679464D01*
X90749255Y-39774702D01*
X90749255Y-39965178D01*
X90796875Y-40060416D01*
X90844494Y-40108035D01*
X90939732Y-40155654D01*
X90987351Y-40155654D01*
X91082589Y-40108035D01*
X91130208Y-40060416D01*
X91177827Y-39965178D01*
X91177827Y-39774702D01*
X91225446Y-39679464D01*
X91273065Y-39631845D01*
X91368303Y-39584226D01*
X91558779Y-39584226D01*
X91654017Y-39631845D01*
X91701636Y-39679464D01*
X91749255Y-39774702D01*
X91749255Y-39965178D01*
X91701636Y-40060416D01*
X91654017Y-40108035D01*
X91558779Y-40155654D01*
X91368303Y-40155654D01*
X91273065Y-40108035D01*
X91225446Y-40060416D01*
X91177827Y-39965178D01*
%TO.C,J2*%
X22472857Y-5974910D02*
X22722857Y-5617767D01*
X22901428Y-5974910D02*
X22901428Y-5224910D01*
X22615714Y-5224910D01*
X22544285Y-5260625D01*
X22508571Y-5296339D01*
X22472857Y-5367767D01*
X22472857Y-5474910D01*
X22508571Y-5546339D01*
X22544285Y-5582053D01*
X22615714Y-5617767D01*
X22901428Y-5617767D01*
X22187142Y-5939196D02*
X22080000Y-5974910D01*
X21901428Y-5974910D01*
X21830000Y-5939196D01*
X21794285Y-5903482D01*
X21758571Y-5832053D01*
X21758571Y-5760625D01*
X21794285Y-5689196D01*
X21830000Y-5653482D01*
X21901428Y-5617767D01*
X22044285Y-5582053D01*
X22115714Y-5546339D01*
X22151428Y-5510625D01*
X22187142Y-5439196D01*
X22187142Y-5367767D01*
X22151428Y-5296339D01*
X22115714Y-5260625D01*
X22044285Y-5224910D01*
X21865714Y-5224910D01*
X21758571Y-5260625D01*
X21544285Y-5224910D02*
X21115714Y-5224910D01*
X21330000Y-5974910D02*
X21330000Y-5224910D01*
X30069285Y-5260625D02*
X30140714Y-5224910D01*
X30247857Y-5224910D01*
X30355000Y-5260625D01*
X30426428Y-5332053D01*
X30462142Y-5403482D01*
X30497857Y-5546339D01*
X30497857Y-5653482D01*
X30462142Y-5796339D01*
X30426428Y-5867767D01*
X30355000Y-5939196D01*
X30247857Y-5974910D01*
X30176428Y-5974910D01*
X30069285Y-5939196D01*
X30033571Y-5903482D01*
X30033571Y-5653482D01*
X30176428Y-5653482D01*
X29712142Y-5974910D02*
X29712142Y-5224910D01*
X29283571Y-5974910D01*
X29283571Y-5224910D01*
X28926428Y-5974910D02*
X28926428Y-5224910D01*
X28747857Y-5224910D01*
X28640714Y-5260625D01*
X28569285Y-5332053D01*
X28533571Y-5403482D01*
X28497857Y-5546339D01*
X28497857Y-5653482D01*
X28533571Y-5796339D01*
X28569285Y-5867767D01*
X28640714Y-5939196D01*
X28747857Y-5974910D01*
X28926428Y-5974910D01*
X22901428Y-11054910D02*
X22901428Y-10304910D01*
X22651428Y-10840625D01*
X22401428Y-10304910D01*
X22401428Y-11054910D01*
X22044285Y-11054910D02*
X22044285Y-10304910D01*
X21722857Y-11019196D02*
X21615714Y-11054910D01*
X21437142Y-11054910D01*
X21365714Y-11019196D01*
X21330000Y-10983482D01*
X21294285Y-10912053D01*
X21294285Y-10840625D01*
X21330000Y-10769196D01*
X21365714Y-10733482D01*
X21437142Y-10697767D01*
X21580000Y-10662053D01*
X21651428Y-10626339D01*
X21687142Y-10590625D01*
X21722857Y-10519196D01*
X21722857Y-10447767D01*
X21687142Y-10376339D01*
X21651428Y-10340625D01*
X21580000Y-10304910D01*
X21401428Y-10304910D01*
X21294285Y-10340625D01*
X20830000Y-10304910D02*
X20687142Y-10304910D01*
X20615714Y-10340625D01*
X20544285Y-10412053D01*
X20508571Y-10554910D01*
X20508571Y-10804910D01*
X20544285Y-10947767D01*
X20615714Y-11019196D01*
X20687142Y-11054910D01*
X20830000Y-11054910D01*
X20901428Y-11019196D01*
X20972857Y-10947767D01*
X21008571Y-10804910D01*
X21008571Y-10554910D01*
X20972857Y-10412053D01*
X20901428Y-10340625D01*
X20830000Y-10304910D01*
X22937142Y-8479196D02*
X22830000Y-8514910D01*
X22651428Y-8514910D01*
X22580000Y-8479196D01*
X22544285Y-8443482D01*
X22508571Y-8372053D01*
X22508571Y-8300625D01*
X22544285Y-8229196D01*
X22580000Y-8193482D01*
X22651428Y-8157767D01*
X22794285Y-8122053D01*
X22865714Y-8086339D01*
X22901428Y-8050625D01*
X22937142Y-7979196D01*
X22937142Y-7907767D01*
X22901428Y-7836339D01*
X22865714Y-7800625D01*
X22794285Y-7764910D01*
X22615714Y-7764910D01*
X22508571Y-7800625D01*
X21758571Y-8443482D02*
X21794285Y-8479196D01*
X21901428Y-8514910D01*
X21972857Y-8514910D01*
X22080000Y-8479196D01*
X22151428Y-8407767D01*
X22187142Y-8336339D01*
X22222857Y-8193482D01*
X22222857Y-8086339D01*
X22187142Y-7943482D01*
X22151428Y-7872053D01*
X22080000Y-7800625D01*
X21972857Y-7764910D01*
X21901428Y-7764910D01*
X21794285Y-7800625D01*
X21758571Y-7836339D01*
X21437142Y-8514910D02*
X21437142Y-7764910D01*
X21008571Y-8514910D02*
X21330000Y-8086339D01*
X21008571Y-7764910D02*
X21437142Y-8193482D01*
X30890714Y-8514910D02*
X30890714Y-7764910D01*
X30640714Y-8300625D01*
X30390714Y-7764910D01*
X30390714Y-8514910D01*
X29890714Y-7764910D02*
X29747857Y-7764910D01*
X29676428Y-7800625D01*
X29605000Y-7872053D01*
X29569285Y-8014910D01*
X29569285Y-8264910D01*
X29605000Y-8407767D01*
X29676428Y-8479196D01*
X29747857Y-8514910D01*
X29890714Y-8514910D01*
X29962142Y-8479196D01*
X30033571Y-8407767D01*
X30069285Y-8264910D01*
X30069285Y-8014910D01*
X30033571Y-7872053D01*
X29962142Y-7800625D01*
X29890714Y-7764910D01*
X29283571Y-8479196D02*
X29176428Y-8514910D01*
X28997857Y-8514910D01*
X28926428Y-8479196D01*
X28890714Y-8443482D01*
X28855000Y-8372053D01*
X28855000Y-8300625D01*
X28890714Y-8229196D01*
X28926428Y-8193482D01*
X28997857Y-8157767D01*
X29140714Y-8122053D01*
X29212142Y-8086339D01*
X29247857Y-8050625D01*
X29283571Y-7979196D01*
X29283571Y-7907767D01*
X29247857Y-7836339D01*
X29212142Y-7800625D01*
X29140714Y-7764910D01*
X28962142Y-7764910D01*
X28855000Y-7800625D01*
X28533571Y-8514910D02*
X28533571Y-7764910D01*
X30426428Y-10304910D02*
X30176428Y-11054910D01*
X29926428Y-10304910D01*
X29247857Y-10983482D02*
X29283571Y-11019196D01*
X29390714Y-11054910D01*
X29462142Y-11054910D01*
X29569285Y-11019196D01*
X29640714Y-10947767D01*
X29676428Y-10876339D01*
X29712142Y-10733482D01*
X29712142Y-10626339D01*
X29676428Y-10483482D01*
X29640714Y-10412053D01*
X29569285Y-10340625D01*
X29462142Y-10304910D01*
X29390714Y-10304910D01*
X29283571Y-10340625D01*
X29247857Y-10376339D01*
X28497857Y-10983482D02*
X28533571Y-11019196D01*
X28640714Y-11054910D01*
X28712142Y-11054910D01*
X28819285Y-11019196D01*
X28890714Y-10947767D01*
X28926428Y-10876339D01*
X28962142Y-10733482D01*
X28962142Y-10626339D01*
X28926428Y-10483482D01*
X28890714Y-10412053D01*
X28819285Y-10340625D01*
X28712142Y-10304910D01*
X28640714Y-10304910D01*
X28533571Y-10340625D01*
X28497857Y-10376339D01*
%TO.C,D16*%
X77461755Y420535D02*
X76461755Y420535D01*
X76461755Y182440D01*
X76509375Y39583D01*
X76604613Y-55654D01*
X76699851Y-103273D01*
X76890327Y-150892D01*
X77033184Y-150892D01*
X77223660Y-103273D01*
X77318898Y-55654D01*
X77414136Y39583D01*
X77461755Y182440D01*
X77461755Y420535D01*
X77461755Y-1103273D02*
X77461755Y-531845D01*
X77461755Y-817559D02*
X76461755Y-817559D01*
X76604613Y-722321D01*
X76699851Y-627083D01*
X76747470Y-531845D01*
X76461755Y-1960416D02*
X76461755Y-1769940D01*
X76509375Y-1674702D01*
X76556994Y-1627083D01*
X76699851Y-1531845D01*
X76890327Y-1484226D01*
X77271279Y-1484226D01*
X77366517Y-1531845D01*
X77414136Y-1579464D01*
X77461755Y-1674702D01*
X77461755Y-1865178D01*
X77414136Y-1960416D01*
X77366517Y-2008035D01*
X77271279Y-2055654D01*
X77033184Y-2055654D01*
X76937946Y-2008035D01*
X76890327Y-1960416D01*
X76842708Y-1865178D01*
X76842708Y-1674702D01*
X76890327Y-1579464D01*
X76937946Y-1531845D01*
X77033184Y-1484226D01*
%TO.C,J1*%
X80930505Y-8397916D02*
X81644791Y-8397916D01*
X81787648Y-8350297D01*
X81882886Y-8255059D01*
X81930505Y-8112202D01*
X81930505Y-8016964D01*
X81930505Y-9397916D02*
X81930505Y-8826488D01*
X81930505Y-9112202D02*
X80930505Y-9112202D01*
X81073363Y-9016964D01*
X81168601Y-8921726D01*
X81216220Y-8826488D01*
%TO.C,D31*%
X134611755Y-1166964D02*
X133611755Y-1166964D01*
X133611755Y-1405059D01*
X133659375Y-1547916D01*
X133754613Y-1643154D01*
X133849851Y-1690773D01*
X134040327Y-1738392D01*
X134183184Y-1738392D01*
X134373660Y-1690773D01*
X134468898Y-1643154D01*
X134564136Y-1547916D01*
X134611755Y-1405059D01*
X134611755Y-1166964D01*
X133611755Y-2071726D02*
X133611755Y-2690773D01*
X133992708Y-2357440D01*
X133992708Y-2500297D01*
X134040327Y-2595535D01*
X134087946Y-2643154D01*
X134183184Y-2690773D01*
X134421279Y-2690773D01*
X134516517Y-2643154D01*
X134564136Y-2595535D01*
X134611755Y-2500297D01*
X134611755Y-2214583D01*
X134564136Y-2119345D01*
X134516517Y-2071726D01*
X134611755Y-3643154D02*
X134611755Y-3071726D01*
X134611755Y-3357440D02*
X133611755Y-3357440D01*
X133754613Y-3262202D01*
X133849851Y-3166964D01*
X133897470Y-3071726D01*
%TO.C,D26*%
X115561755Y420535D02*
X114561755Y420535D01*
X114561755Y182440D01*
X114609375Y39583D01*
X114704613Y-55654D01*
X114799851Y-103273D01*
X114990327Y-150892D01*
X115133184Y-150892D01*
X115323660Y-103273D01*
X115418898Y-55654D01*
X115514136Y39583D01*
X115561755Y182440D01*
X115561755Y420535D01*
X114656994Y-531845D02*
X114609375Y-579464D01*
X114561755Y-674702D01*
X114561755Y-912797D01*
X114609375Y-1008035D01*
X114656994Y-1055654D01*
X114752232Y-1103273D01*
X114847470Y-1103273D01*
X114990327Y-1055654D01*
X115561755Y-484226D01*
X115561755Y-1103273D01*
X114561755Y-1960416D02*
X114561755Y-1769940D01*
X114609375Y-1674702D01*
X114656994Y-1627083D01*
X114799851Y-1531845D01*
X114990327Y-1484226D01*
X115371279Y-1484226D01*
X115466517Y-1531845D01*
X115514136Y-1579464D01*
X115561755Y-1674702D01*
X115561755Y-1865178D01*
X115514136Y-1960416D01*
X115466517Y-2008035D01*
X115371279Y-2055654D01*
X115133184Y-2055654D01*
X115037946Y-2008035D01*
X114990327Y-1960416D01*
X114942708Y-1865178D01*
X114942708Y-1674702D01*
X114990327Y-1579464D01*
X115037946Y-1531845D01*
X115133184Y-1484226D01*
%TO.C,D20*%
X88971130Y-75779464D02*
X87971130Y-75779464D01*
X87971130Y-76017559D01*
X88018750Y-76160416D01*
X88113988Y-76255654D01*
X88209226Y-76303273D01*
X88399702Y-76350892D01*
X88542559Y-76350892D01*
X88733035Y-76303273D01*
X88828273Y-76255654D01*
X88923511Y-76160416D01*
X88971130Y-76017559D01*
X88971130Y-75779464D01*
X88066369Y-76731845D02*
X88018750Y-76779464D01*
X87971130Y-76874702D01*
X87971130Y-77112797D01*
X88018750Y-77208035D01*
X88066369Y-77255654D01*
X88161607Y-77303273D01*
X88256845Y-77303273D01*
X88399702Y-77255654D01*
X88971130Y-76684226D01*
X88971130Y-77303273D01*
X87971130Y-77922321D02*
X87971130Y-78017559D01*
X88018750Y-78112797D01*
X88066369Y-78160416D01*
X88161607Y-78208035D01*
X88352083Y-78255654D01*
X88590178Y-78255654D01*
X88780654Y-78208035D01*
X88875892Y-78160416D01*
X88923511Y-78112797D01*
X88971130Y-78017559D01*
X88971130Y-77922321D01*
X88923511Y-77827083D01*
X88875892Y-77779464D01*
X88780654Y-77731845D01*
X88590178Y-77684226D01*
X88352083Y-77684226D01*
X88161607Y-77731845D01*
X88066369Y-77779464D01*
X88018750Y-77827083D01*
X87971130Y-77922321D01*
%TO.C,D69*%
X285027380Y-39266964D02*
X284027380Y-39266964D01*
X284027380Y-39505059D01*
X284075000Y-39647916D01*
X284170238Y-39743154D01*
X284265476Y-39790773D01*
X284455952Y-39838392D01*
X284598809Y-39838392D01*
X284789285Y-39790773D01*
X284884523Y-39743154D01*
X284979761Y-39647916D01*
X285027380Y-39505059D01*
X285027380Y-39266964D01*
X284027380Y-40695535D02*
X284027380Y-40505059D01*
X284075000Y-40409821D01*
X284122619Y-40362202D01*
X284265476Y-40266964D01*
X284455952Y-40219345D01*
X284836904Y-40219345D01*
X284932142Y-40266964D01*
X284979761Y-40314583D01*
X285027380Y-40409821D01*
X285027380Y-40600297D01*
X284979761Y-40695535D01*
X284932142Y-40743154D01*
X284836904Y-40790773D01*
X284598809Y-40790773D01*
X284503571Y-40743154D01*
X284455952Y-40695535D01*
X284408333Y-40600297D01*
X284408333Y-40409821D01*
X284455952Y-40314583D01*
X284503571Y-40266964D01*
X284598809Y-40219345D01*
X285027380Y-41266964D02*
X285027380Y-41457440D01*
X284979761Y-41552678D01*
X284932142Y-41600297D01*
X284789285Y-41695535D01*
X284598809Y-41743154D01*
X284217857Y-41743154D01*
X284122619Y-41695535D01*
X284075000Y-41647916D01*
X284027380Y-41552678D01*
X284027380Y-41362202D01*
X284075000Y-41266964D01*
X284122619Y-41219345D01*
X284217857Y-41171726D01*
X284455952Y-41171726D01*
X284551190Y-41219345D01*
X284598809Y-41266964D01*
X284646428Y-41362202D01*
X284646428Y-41552678D01*
X284598809Y-41647916D01*
X284551190Y-41695535D01*
X284455952Y-41743154D01*
%TO.C,U18*%
X108089155Y-66613628D02*
X108898768Y-66613628D01*
X108994017Y-66661252D01*
X109041641Y-66708877D01*
X109089265Y-66804125D01*
X109089265Y-66994622D01*
X109041641Y-67089871D01*
X108994017Y-67137495D01*
X108898768Y-67185120D01*
X108089155Y-67185120D01*
X109089265Y-68185230D02*
X109089265Y-67613738D01*
X109089265Y-67899484D02*
X108089155Y-67899484D01*
X108232028Y-67804235D01*
X108327277Y-67708987D01*
X108374901Y-67613738D01*
X108517774Y-68756721D02*
X108470150Y-68661472D01*
X108422525Y-68613848D01*
X108327277Y-68566224D01*
X108279652Y-68566224D01*
X108184404Y-68613848D01*
X108136780Y-68661472D01*
X108089155Y-68756721D01*
X108089155Y-68947218D01*
X108136780Y-69042467D01*
X108184404Y-69090091D01*
X108279652Y-69137715D01*
X108327277Y-69137715D01*
X108422525Y-69090091D01*
X108470150Y-69042467D01*
X108517774Y-68947218D01*
X108517774Y-68756721D01*
X108565398Y-68661472D01*
X108613022Y-68613848D01*
X108708271Y-68566224D01*
X108898768Y-68566224D01*
X108994017Y-68613848D01*
X109041641Y-68661472D01*
X109089265Y-68756721D01*
X109089265Y-68947218D01*
X109041641Y-69042467D01*
X108994017Y-69090091D01*
X108898768Y-69137715D01*
X108708271Y-69137715D01*
X108613022Y-69090091D01*
X108565398Y-69042467D01*
X108517774Y-68947218D01*
%TO.C,C6*%
X45111517Y-24439583D02*
X45159136Y-24391964D01*
X45206755Y-24249107D01*
X45206755Y-24153869D01*
X45159136Y-24011011D01*
X45063898Y-23915773D01*
X44968660Y-23868154D01*
X44778184Y-23820535D01*
X44635327Y-23820535D01*
X44444851Y-23868154D01*
X44349613Y-23915773D01*
X44254375Y-24011011D01*
X44206755Y-24153869D01*
X44206755Y-24249107D01*
X44254375Y-24391964D01*
X44301994Y-24439583D01*
X44206755Y-25296726D02*
X44206755Y-25106250D01*
X44254375Y-25011011D01*
X44301994Y-24963392D01*
X44444851Y-24868154D01*
X44635327Y-24820535D01*
X45016279Y-24820535D01*
X45111517Y-24868154D01*
X45159136Y-24915773D01*
X45206755Y-25011011D01*
X45206755Y-25201488D01*
X45159136Y-25296726D01*
X45111517Y-25344345D01*
X45016279Y-25391964D01*
X44778184Y-25391964D01*
X44682946Y-25344345D01*
X44635327Y-25296726D01*
X44587708Y-25201488D01*
X44587708Y-25011011D01*
X44635327Y-24915773D01*
X44682946Y-24868154D01*
X44778184Y-24820535D01*
%TO.C,U4*%
X214848530Y-67089871D02*
X215658143Y-67089871D01*
X215753392Y-67137495D01*
X215801016Y-67185120D01*
X215848640Y-67280368D01*
X215848640Y-67470865D01*
X215801016Y-67566114D01*
X215753392Y-67613738D01*
X215658143Y-67661362D01*
X214848530Y-67661362D01*
X215181900Y-68566224D02*
X215848640Y-68566224D01*
X214800906Y-68328102D02*
X215515270Y-68089981D01*
X215515270Y-68709097D01*
%TO.C,U9*%
X-8988969Y-67089871D02*
X-8179356Y-67089871D01*
X-8084107Y-67137495D01*
X-8036483Y-67185120D01*
X-7988859Y-67280368D01*
X-7988859Y-67470865D01*
X-8036483Y-67566114D01*
X-8084107Y-67613738D01*
X-8179356Y-67661362D01*
X-8988969Y-67661362D01*
X-7988859Y-68185230D02*
X-7988859Y-68375727D01*
X-8036483Y-68470975D01*
X-8084107Y-68518600D01*
X-8226980Y-68613848D01*
X-8417477Y-68661472D01*
X-8798472Y-68661472D01*
X-8893720Y-68613848D01*
X-8941345Y-68566224D01*
X-8988969Y-68470975D01*
X-8988969Y-68280478D01*
X-8941345Y-68185230D01*
X-8893720Y-68137605D01*
X-8798472Y-68089981D01*
X-8560350Y-68089981D01*
X-8465102Y-68137605D01*
X-8417477Y-68185230D01*
X-8369853Y-68280478D01*
X-8369853Y-68470975D01*
X-8417477Y-68566224D01*
X-8465102Y-68613848D01*
X-8560350Y-68661472D01*
%TO.C,U22*%
X318432905Y-9463628D02*
X319242518Y-9463628D01*
X319337767Y-9511252D01*
X319385391Y-9558877D01*
X319433015Y-9654125D01*
X319433015Y-9844622D01*
X319385391Y-9939871D01*
X319337767Y-9987495D01*
X319242518Y-10035120D01*
X318432905Y-10035120D01*
X318528154Y-10463738D02*
X318480530Y-10511362D01*
X318432905Y-10606611D01*
X318432905Y-10844732D01*
X318480530Y-10939981D01*
X318528154Y-10987605D01*
X318623402Y-11035230D01*
X318718651Y-11035230D01*
X318861524Y-10987605D01*
X319433015Y-10416114D01*
X319433015Y-11035230D01*
X318528154Y-11416224D02*
X318480530Y-11463848D01*
X318432905Y-11559097D01*
X318432905Y-11797218D01*
X318480530Y-11892467D01*
X318528154Y-11940091D01*
X318623402Y-11987715D01*
X318718651Y-11987715D01*
X318861524Y-11940091D01*
X319433015Y-11368600D01*
X319433015Y-11987715D01*
%TO.C,D44*%
X191761755Y420535D02*
X190761755Y420535D01*
X190761755Y182440D01*
X190809375Y39583D01*
X190904613Y-55654D01*
X190999851Y-103273D01*
X191190327Y-150892D01*
X191333184Y-150892D01*
X191523660Y-103273D01*
X191618898Y-55654D01*
X191714136Y39583D01*
X191761755Y182440D01*
X191761755Y420535D01*
X191095089Y-1008035D02*
X191761755Y-1008035D01*
X190714136Y-769940D02*
X191428422Y-531845D01*
X191428422Y-1150892D01*
X191095089Y-1960416D02*
X191761755Y-1960416D01*
X190714136Y-1722321D02*
X191428422Y-1484226D01*
X191428422Y-2103273D01*
%TO.C,D15*%
X63174255Y-77366964D02*
X62174255Y-77366964D01*
X62174255Y-77605059D01*
X62221875Y-77747916D01*
X62317113Y-77843154D01*
X62412351Y-77890773D01*
X62602827Y-77938392D01*
X62745684Y-77938392D01*
X62936160Y-77890773D01*
X63031398Y-77843154D01*
X63126636Y-77747916D01*
X63174255Y-77605059D01*
X63174255Y-77366964D01*
X63174255Y-78890773D02*
X63174255Y-78319345D01*
X63174255Y-78605059D02*
X62174255Y-78605059D01*
X62317113Y-78509821D01*
X62412351Y-78414583D01*
X62459970Y-78319345D01*
X62174255Y-79795535D02*
X62174255Y-79319345D01*
X62650446Y-79271726D01*
X62602827Y-79319345D01*
X62555208Y-79414583D01*
X62555208Y-79652678D01*
X62602827Y-79747916D01*
X62650446Y-79795535D01*
X62745684Y-79843154D01*
X62983779Y-79843154D01*
X63079017Y-79795535D01*
X63126636Y-79747916D01*
X63174255Y-79652678D01*
X63174255Y-79414583D01*
X63126636Y-79319345D01*
X63079017Y-79271726D01*
%TO.C,D53*%
X229861755Y420535D02*
X228861755Y420535D01*
X228861755Y182440D01*
X228909375Y39583D01*
X229004613Y-55654D01*
X229099851Y-103273D01*
X229290327Y-150892D01*
X229433184Y-150892D01*
X229623660Y-103273D01*
X229718898Y-55654D01*
X229814136Y39583D01*
X229861755Y182440D01*
X229861755Y420535D01*
X228861755Y-1055654D02*
X228861755Y-579464D01*
X229337946Y-531845D01*
X229290327Y-579464D01*
X229242708Y-674702D01*
X229242708Y-912797D01*
X229290327Y-1008035D01*
X229337946Y-1055654D01*
X229433184Y-1103273D01*
X229671279Y-1103273D01*
X229766517Y-1055654D01*
X229814136Y-1008035D01*
X229861755Y-912797D01*
X229861755Y-674702D01*
X229814136Y-579464D01*
X229766517Y-531845D01*
X228861755Y-1436607D02*
X228861755Y-2055654D01*
X229242708Y-1722321D01*
X229242708Y-1865178D01*
X229290327Y-1960416D01*
X229337946Y-2008035D01*
X229433184Y-2055654D01*
X229671279Y-2055654D01*
X229766517Y-2008035D01*
X229814136Y-1960416D01*
X229861755Y-1865178D01*
X229861755Y-1579464D01*
X229814136Y-1484226D01*
X229766517Y-1436607D01*
%TO.C,C3*%
X26643392Y-33567708D02*
X26691011Y-33520089D01*
X26738630Y-33377232D01*
X26738630Y-33281994D01*
X26691011Y-33139136D01*
X26595773Y-33043898D01*
X26500535Y-32996279D01*
X26310059Y-32948660D01*
X26167202Y-32948660D01*
X25976726Y-32996279D01*
X25881488Y-33043898D01*
X25786250Y-33139136D01*
X25738630Y-33281994D01*
X25738630Y-33377232D01*
X25786250Y-33520089D01*
X25833869Y-33567708D01*
X25738630Y-33901041D02*
X25738630Y-34520089D01*
X26119583Y-34186755D01*
X26119583Y-34329613D01*
X26167202Y-34424851D01*
X26214821Y-34472470D01*
X26310059Y-34520089D01*
X26548154Y-34520089D01*
X26643392Y-34472470D01*
X26691011Y-34424851D01*
X26738630Y-34329613D01*
X26738630Y-34043898D01*
X26691011Y-33948660D01*
X26643392Y-33901041D01*
%TO.C,D51*%
X234624255Y-58316964D02*
X233624255Y-58316964D01*
X233624255Y-58555059D01*
X233671875Y-58697916D01*
X233767113Y-58793154D01*
X233862351Y-58840773D01*
X234052827Y-58888392D01*
X234195684Y-58888392D01*
X234386160Y-58840773D01*
X234481398Y-58793154D01*
X234576636Y-58697916D01*
X234624255Y-58555059D01*
X234624255Y-58316964D01*
X233624255Y-59793154D02*
X233624255Y-59316964D01*
X234100446Y-59269345D01*
X234052827Y-59316964D01*
X234005208Y-59412202D01*
X234005208Y-59650297D01*
X234052827Y-59745535D01*
X234100446Y-59793154D01*
X234195684Y-59840773D01*
X234433779Y-59840773D01*
X234529017Y-59793154D01*
X234576636Y-59745535D01*
X234624255Y-59650297D01*
X234624255Y-59412202D01*
X234576636Y-59316964D01*
X234529017Y-59269345D01*
X234624255Y-60793154D02*
X234624255Y-60221726D01*
X234624255Y-60507440D02*
X233624255Y-60507440D01*
X233767113Y-60412202D01*
X233862351Y-60316964D01*
X233909970Y-60221726D01*
%TO.C,D24*%
X120324255Y-58316964D02*
X119324255Y-58316964D01*
X119324255Y-58555059D01*
X119371875Y-58697916D01*
X119467113Y-58793154D01*
X119562351Y-58840773D01*
X119752827Y-58888392D01*
X119895684Y-58888392D01*
X120086160Y-58840773D01*
X120181398Y-58793154D01*
X120276636Y-58697916D01*
X120324255Y-58555059D01*
X120324255Y-58316964D01*
X119419494Y-59269345D02*
X119371875Y-59316964D01*
X119324255Y-59412202D01*
X119324255Y-59650297D01*
X119371875Y-59745535D01*
X119419494Y-59793154D01*
X119514732Y-59840773D01*
X119609970Y-59840773D01*
X119752827Y-59793154D01*
X120324255Y-59221726D01*
X120324255Y-59840773D01*
X119657589Y-60697916D02*
X120324255Y-60697916D01*
X119276636Y-60459821D02*
X119990922Y-60221726D01*
X119990922Y-60840773D01*
%TO.C,D30*%
X155249255Y-75779464D02*
X154249255Y-75779464D01*
X154249255Y-76017559D01*
X154296875Y-76160416D01*
X154392113Y-76255654D01*
X154487351Y-76303273D01*
X154677827Y-76350892D01*
X154820684Y-76350892D01*
X155011160Y-76303273D01*
X155106398Y-76255654D01*
X155201636Y-76160416D01*
X155249255Y-76017559D01*
X155249255Y-75779464D01*
X154249255Y-76684226D02*
X154249255Y-77303273D01*
X154630208Y-76969940D01*
X154630208Y-77112797D01*
X154677827Y-77208035D01*
X154725446Y-77255654D01*
X154820684Y-77303273D01*
X155058779Y-77303273D01*
X155154017Y-77255654D01*
X155201636Y-77208035D01*
X155249255Y-77112797D01*
X155249255Y-76827083D01*
X155201636Y-76731845D01*
X155154017Y-76684226D01*
X154249255Y-77922321D02*
X154249255Y-78017559D01*
X154296875Y-78112797D01*
X154344494Y-78160416D01*
X154439732Y-78208035D01*
X154630208Y-78255654D01*
X154868303Y-78255654D01*
X155058779Y-78208035D01*
X155154017Y-78160416D01*
X155201636Y-78112797D01*
X155249255Y-78017559D01*
X155249255Y-77922321D01*
X155201636Y-77827083D01*
X155154017Y-77779464D01*
X155058779Y-77731845D01*
X154868303Y-77684226D01*
X154630208Y-77684226D01*
X154439732Y-77731845D01*
X154344494Y-77779464D01*
X154296875Y-77827083D01*
X154249255Y-77922321D01*
%TO.C,D49*%
X220336755Y-18629464D02*
X219336755Y-18629464D01*
X219336755Y-18867559D01*
X219384375Y-19010416D01*
X219479613Y-19105654D01*
X219574851Y-19153273D01*
X219765327Y-19200892D01*
X219908184Y-19200892D01*
X220098660Y-19153273D01*
X220193898Y-19105654D01*
X220289136Y-19010416D01*
X220336755Y-18867559D01*
X220336755Y-18629464D01*
X219670089Y-20058035D02*
X220336755Y-20058035D01*
X219289136Y-19819940D02*
X220003422Y-19581845D01*
X220003422Y-20200892D01*
X220336755Y-20629464D02*
X220336755Y-20819940D01*
X220289136Y-20915178D01*
X220241517Y-20962797D01*
X220098660Y-21058035D01*
X219908184Y-21105654D01*
X219527232Y-21105654D01*
X219431994Y-21058035D01*
X219384375Y-21010416D01*
X219336755Y-20915178D01*
X219336755Y-20724702D01*
X219384375Y-20629464D01*
X219431994Y-20581845D01*
X219527232Y-20534226D01*
X219765327Y-20534226D01*
X219860565Y-20581845D01*
X219908184Y-20629464D01*
X219955803Y-20724702D01*
X219955803Y-20915178D01*
X219908184Y-21010416D01*
X219860565Y-21058035D01*
X219765327Y-21105654D01*
%TO.C,Y1*%
X51276190Y-24457440D02*
X51276190Y-24933630D01*
X51609523Y-23933630D02*
X51276190Y-24457440D01*
X50942857Y-23933630D01*
X50085714Y-24933630D02*
X50657142Y-24933630D01*
X50371428Y-24933630D02*
X50371428Y-23933630D01*
X50466666Y-24076488D01*
X50561904Y-24171726D01*
X50657142Y-24219345D01*
%TO.C,D62*%
X296139880Y-75779464D02*
X295139880Y-75779464D01*
X295139880Y-76017559D01*
X295187500Y-76160416D01*
X295282738Y-76255654D01*
X295377976Y-76303273D01*
X295568452Y-76350892D01*
X295711309Y-76350892D01*
X295901785Y-76303273D01*
X295997023Y-76255654D01*
X296092261Y-76160416D01*
X296139880Y-76017559D01*
X296139880Y-75779464D01*
X295139880Y-77208035D02*
X295139880Y-77017559D01*
X295187500Y-76922321D01*
X295235119Y-76874702D01*
X295377976Y-76779464D01*
X295568452Y-76731845D01*
X295949404Y-76731845D01*
X296044642Y-76779464D01*
X296092261Y-76827083D01*
X296139880Y-76922321D01*
X296139880Y-77112797D01*
X296092261Y-77208035D01*
X296044642Y-77255654D01*
X295949404Y-77303273D01*
X295711309Y-77303273D01*
X295616071Y-77255654D01*
X295568452Y-77208035D01*
X295520833Y-77112797D01*
X295520833Y-76922321D01*
X295568452Y-76827083D01*
X295616071Y-76779464D01*
X295711309Y-76731845D01*
X295235119Y-77684226D02*
X295187500Y-77731845D01*
X295139880Y-77827083D01*
X295139880Y-78065178D01*
X295187500Y-78160416D01*
X295235119Y-78208035D01*
X295330357Y-78255654D01*
X295425595Y-78255654D01*
X295568452Y-78208035D01*
X296139880Y-77636607D01*
X296139880Y-78255654D01*
%TO.C,U26*%
X-8592094Y-9463628D02*
X-7782481Y-9463628D01*
X-7687232Y-9511252D01*
X-7639608Y-9558877D01*
X-7591984Y-9654125D01*
X-7591984Y-9844622D01*
X-7639608Y-9939871D01*
X-7687232Y-9987495D01*
X-7782481Y-10035120D01*
X-8592094Y-10035120D01*
X-8496845Y-10463738D02*
X-8544470Y-10511362D01*
X-8592094Y-10606611D01*
X-8592094Y-10844732D01*
X-8544470Y-10939981D01*
X-8496845Y-10987605D01*
X-8401597Y-11035230D01*
X-8306348Y-11035230D01*
X-8163475Y-10987605D01*
X-7591984Y-10416114D01*
X-7591984Y-11035230D01*
X-8592094Y-11892467D02*
X-8592094Y-11701969D01*
X-8544470Y-11606721D01*
X-8496845Y-11559097D01*
X-8353972Y-11463848D01*
X-8163475Y-11416224D01*
X-7782481Y-11416224D01*
X-7687232Y-11463848D01*
X-7639608Y-11511472D01*
X-7591984Y-11606721D01*
X-7591984Y-11797218D01*
X-7639608Y-11892467D01*
X-7687232Y-11940091D01*
X-7782481Y-11987715D01*
X-8020602Y-11987715D01*
X-8115851Y-11940091D01*
X-8163475Y-11892467D01*
X-8211100Y-11797218D01*
X-8211100Y-11606721D01*
X-8163475Y-11511472D01*
X-8115851Y-11463848D01*
X-8020602Y-11416224D01*
%TO.C,D32*%
X144136755Y-18629464D02*
X143136755Y-18629464D01*
X143136755Y-18867559D01*
X143184375Y-19010416D01*
X143279613Y-19105654D01*
X143374851Y-19153273D01*
X143565327Y-19200892D01*
X143708184Y-19200892D01*
X143898660Y-19153273D01*
X143993898Y-19105654D01*
X144089136Y-19010416D01*
X144136755Y-18867559D01*
X144136755Y-18629464D01*
X143136755Y-19534226D02*
X143136755Y-20153273D01*
X143517708Y-19819940D01*
X143517708Y-19962797D01*
X143565327Y-20058035D01*
X143612946Y-20105654D01*
X143708184Y-20153273D01*
X143946279Y-20153273D01*
X144041517Y-20105654D01*
X144089136Y-20058035D01*
X144136755Y-19962797D01*
X144136755Y-19677083D01*
X144089136Y-19581845D01*
X144041517Y-19534226D01*
X143231994Y-20534226D02*
X143184375Y-20581845D01*
X143136755Y-20677083D01*
X143136755Y-20915178D01*
X143184375Y-21010416D01*
X143231994Y-21058035D01*
X143327232Y-21105654D01*
X143422470Y-21105654D01*
X143565327Y-21058035D01*
X144136755Y-20486607D01*
X144136755Y-21105654D01*
%TO.C,D22*%
X106036755Y-18629464D02*
X105036755Y-18629464D01*
X105036755Y-18867559D01*
X105084375Y-19010416D01*
X105179613Y-19105654D01*
X105274851Y-19153273D01*
X105465327Y-19200892D01*
X105608184Y-19200892D01*
X105798660Y-19153273D01*
X105893898Y-19105654D01*
X105989136Y-19010416D01*
X106036755Y-18867559D01*
X106036755Y-18629464D01*
X105131994Y-19581845D02*
X105084375Y-19629464D01*
X105036755Y-19724702D01*
X105036755Y-19962797D01*
X105084375Y-20058035D01*
X105131994Y-20105654D01*
X105227232Y-20153273D01*
X105322470Y-20153273D01*
X105465327Y-20105654D01*
X106036755Y-19534226D01*
X106036755Y-20153273D01*
X105131994Y-20534226D02*
X105084375Y-20581845D01*
X105036755Y-20677083D01*
X105036755Y-20915178D01*
X105084375Y-21010416D01*
X105131994Y-21058035D01*
X105227232Y-21105654D01*
X105322470Y-21105654D01*
X105465327Y-21058035D01*
X106036755Y-20486607D01*
X106036755Y-21105654D01*
%TO.C,U19*%
X318036030Y-28513628D02*
X318845643Y-28513628D01*
X318940892Y-28561252D01*
X318988516Y-28608877D01*
X319036140Y-28704125D01*
X319036140Y-28894622D01*
X318988516Y-28989871D01*
X318940892Y-29037495D01*
X318845643Y-29085120D01*
X318036030Y-29085120D01*
X319036140Y-30085230D02*
X319036140Y-29513738D01*
X319036140Y-29799484D02*
X318036030Y-29799484D01*
X318178903Y-29704235D01*
X318274152Y-29608987D01*
X318321776Y-29513738D01*
X319036140Y-30561472D02*
X319036140Y-30751970D01*
X318988516Y-30847218D01*
X318940892Y-30894842D01*
X318798019Y-30990091D01*
X318607522Y-31037715D01*
X318226527Y-31037715D01*
X318131279Y-30990091D01*
X318083655Y-30942467D01*
X318036030Y-30847218D01*
X318036030Y-30656721D01*
X318083655Y-30561472D01*
X318131279Y-30513848D01*
X318226527Y-30466224D01*
X318464649Y-30466224D01*
X318559897Y-30513848D01*
X318607522Y-30561472D01*
X318655146Y-30656721D01*
X318655146Y-30847218D01*
X318607522Y-30942467D01*
X318559897Y-30990091D01*
X318464649Y-31037715D01*
%TO.C,D57*%
X267961755Y-77366964D02*
X266961755Y-77366964D01*
X266961755Y-77605059D01*
X267009375Y-77747916D01*
X267104613Y-77843154D01*
X267199851Y-77890773D01*
X267390327Y-77938392D01*
X267533184Y-77938392D01*
X267723660Y-77890773D01*
X267818898Y-77843154D01*
X267914136Y-77747916D01*
X267961755Y-77605059D01*
X267961755Y-77366964D01*
X266961755Y-78843154D02*
X266961755Y-78366964D01*
X267437946Y-78319345D01*
X267390327Y-78366964D01*
X267342708Y-78462202D01*
X267342708Y-78700297D01*
X267390327Y-78795535D01*
X267437946Y-78843154D01*
X267533184Y-78890773D01*
X267771279Y-78890773D01*
X267866517Y-78843154D01*
X267914136Y-78795535D01*
X267961755Y-78700297D01*
X267961755Y-78462202D01*
X267914136Y-78366964D01*
X267866517Y-78319345D01*
X266961755Y-79224107D02*
X266961755Y-79890773D01*
X267961755Y-79462202D01*
%TO.C,D23*%
X110799255Y-39266964D02*
X109799255Y-39266964D01*
X109799255Y-39505059D01*
X109846875Y-39647916D01*
X109942113Y-39743154D01*
X110037351Y-39790773D01*
X110227827Y-39838392D01*
X110370684Y-39838392D01*
X110561160Y-39790773D01*
X110656398Y-39743154D01*
X110751636Y-39647916D01*
X110799255Y-39505059D01*
X110799255Y-39266964D01*
X109894494Y-40219345D02*
X109846875Y-40266964D01*
X109799255Y-40362202D01*
X109799255Y-40600297D01*
X109846875Y-40695535D01*
X109894494Y-40743154D01*
X109989732Y-40790773D01*
X110084970Y-40790773D01*
X110227827Y-40743154D01*
X110799255Y-40171726D01*
X110799255Y-40790773D01*
X109799255Y-41124107D02*
X109799255Y-41743154D01*
X110180208Y-41409821D01*
X110180208Y-41552678D01*
X110227827Y-41647916D01*
X110275446Y-41695535D01*
X110370684Y-41743154D01*
X110608779Y-41743154D01*
X110704017Y-41695535D01*
X110751636Y-41647916D01*
X110799255Y-41552678D01*
X110799255Y-41266964D01*
X110751636Y-41171726D01*
X110704017Y-41124107D01*
%TO.C,D63*%
X267961755Y420535D02*
X266961755Y420535D01*
X266961755Y182440D01*
X267009375Y39583D01*
X267104613Y-55654D01*
X267199851Y-103273D01*
X267390327Y-150892D01*
X267533184Y-150892D01*
X267723660Y-103273D01*
X267818898Y-55654D01*
X267914136Y39583D01*
X267961755Y182440D01*
X267961755Y420535D01*
X266961755Y-1008035D02*
X266961755Y-817559D01*
X267009375Y-722321D01*
X267056994Y-674702D01*
X267199851Y-579464D01*
X267390327Y-531845D01*
X267771279Y-531845D01*
X267866517Y-579464D01*
X267914136Y-627083D01*
X267961755Y-722321D01*
X267961755Y-912797D01*
X267914136Y-1008035D01*
X267866517Y-1055654D01*
X267771279Y-1103273D01*
X267533184Y-1103273D01*
X267437946Y-1055654D01*
X267390327Y-1008035D01*
X267342708Y-912797D01*
X267342708Y-722321D01*
X267390327Y-627083D01*
X267437946Y-579464D01*
X267533184Y-531845D01*
X266961755Y-1436607D02*
X266961755Y-2055654D01*
X267342708Y-1722321D01*
X267342708Y-1865178D01*
X267390327Y-1960416D01*
X267437946Y-2008035D01*
X267533184Y-2055654D01*
X267771279Y-2055654D01*
X267866517Y-2008035D01*
X267914136Y-1960416D01*
X267961755Y-1865178D01*
X267961755Y-1579464D01*
X267914136Y-1484226D01*
X267866517Y-1436607D01*
%TO.C,D55*%
X244149255Y-37679464D02*
X243149255Y-37679464D01*
X243149255Y-37917559D01*
X243196875Y-38060416D01*
X243292113Y-38155654D01*
X243387351Y-38203273D01*
X243577827Y-38250892D01*
X243720684Y-38250892D01*
X243911160Y-38203273D01*
X244006398Y-38155654D01*
X244101636Y-38060416D01*
X244149255Y-37917559D01*
X244149255Y-37679464D01*
X243149255Y-39155654D02*
X243149255Y-38679464D01*
X243625446Y-38631845D01*
X243577827Y-38679464D01*
X243530208Y-38774702D01*
X243530208Y-39012797D01*
X243577827Y-39108035D01*
X243625446Y-39155654D01*
X243720684Y-39203273D01*
X243958779Y-39203273D01*
X244054017Y-39155654D01*
X244101636Y-39108035D01*
X244149255Y-39012797D01*
X244149255Y-38774702D01*
X244101636Y-38679464D01*
X244054017Y-38631845D01*
X243149255Y-40108035D02*
X243149255Y-39631845D01*
X243625446Y-39584226D01*
X243577827Y-39631845D01*
X243530208Y-39727083D01*
X243530208Y-39965178D01*
X243577827Y-40060416D01*
X243625446Y-40108035D01*
X243720684Y-40155654D01*
X243958779Y-40155654D01*
X244054017Y-40108035D01*
X244101636Y-40060416D01*
X244149255Y-39965178D01*
X244149255Y-39727083D01*
X244101636Y-39631845D01*
X244054017Y-39584226D01*
%TO.C,D17*%
X86986755Y-20216964D02*
X85986755Y-20216964D01*
X85986755Y-20455059D01*
X86034375Y-20597916D01*
X86129613Y-20693154D01*
X86224851Y-20740773D01*
X86415327Y-20788392D01*
X86558184Y-20788392D01*
X86748660Y-20740773D01*
X86843898Y-20693154D01*
X86939136Y-20597916D01*
X86986755Y-20455059D01*
X86986755Y-20216964D01*
X86986755Y-21740773D02*
X86986755Y-21169345D01*
X86986755Y-21455059D02*
X85986755Y-21455059D01*
X86129613Y-21359821D01*
X86224851Y-21264583D01*
X86272470Y-21169345D01*
X85986755Y-22074107D02*
X85986755Y-22740773D01*
X86986755Y-22312202D01*
%TO.C,D68*%
X296139880Y-18629464D02*
X295139880Y-18629464D01*
X295139880Y-18867559D01*
X295187500Y-19010416D01*
X295282738Y-19105654D01*
X295377976Y-19153273D01*
X295568452Y-19200892D01*
X295711309Y-19200892D01*
X295901785Y-19153273D01*
X295997023Y-19105654D01*
X296092261Y-19010416D01*
X296139880Y-18867559D01*
X296139880Y-18629464D01*
X295139880Y-20058035D02*
X295139880Y-19867559D01*
X295187500Y-19772321D01*
X295235119Y-19724702D01*
X295377976Y-19629464D01*
X295568452Y-19581845D01*
X295949404Y-19581845D01*
X296044642Y-19629464D01*
X296092261Y-19677083D01*
X296139880Y-19772321D01*
X296139880Y-19962797D01*
X296092261Y-20058035D01*
X296044642Y-20105654D01*
X295949404Y-20153273D01*
X295711309Y-20153273D01*
X295616071Y-20105654D01*
X295568452Y-20058035D01*
X295520833Y-19962797D01*
X295520833Y-19772321D01*
X295568452Y-19677083D01*
X295616071Y-19629464D01*
X295711309Y-19581845D01*
X295568452Y-20724702D02*
X295520833Y-20629464D01*
X295473214Y-20581845D01*
X295377976Y-20534226D01*
X295330357Y-20534226D01*
X295235119Y-20581845D01*
X295187500Y-20629464D01*
X295139880Y-20724702D01*
X295139880Y-20915178D01*
X295187500Y-21010416D01*
X295235119Y-21058035D01*
X295330357Y-21105654D01*
X295377976Y-21105654D01*
X295473214Y-21058035D01*
X295520833Y-21010416D01*
X295568452Y-20915178D01*
X295568452Y-20724702D01*
X295616071Y-20629464D01*
X295663690Y-20581845D01*
X295758928Y-20534226D01*
X295949404Y-20534226D01*
X296044642Y-20581845D01*
X296092261Y-20629464D01*
X296139880Y-20724702D01*
X296139880Y-20915178D01*
X296092261Y-21010416D01*
X296044642Y-21058035D01*
X295949404Y-21105654D01*
X295758928Y-21105654D01*
X295663690Y-21058035D01*
X295616071Y-21010416D01*
X295568452Y-20915178D01*
%TO.C,D38*%
X177474255Y-56729464D02*
X176474255Y-56729464D01*
X176474255Y-56967559D01*
X176521875Y-57110416D01*
X176617113Y-57205654D01*
X176712351Y-57253273D01*
X176902827Y-57300892D01*
X177045684Y-57300892D01*
X177236160Y-57253273D01*
X177331398Y-57205654D01*
X177426636Y-57110416D01*
X177474255Y-56967559D01*
X177474255Y-56729464D01*
X176474255Y-57634226D02*
X176474255Y-58253273D01*
X176855208Y-57919940D01*
X176855208Y-58062797D01*
X176902827Y-58158035D01*
X176950446Y-58205654D01*
X177045684Y-58253273D01*
X177283779Y-58253273D01*
X177379017Y-58205654D01*
X177426636Y-58158035D01*
X177474255Y-58062797D01*
X177474255Y-57777083D01*
X177426636Y-57681845D01*
X177379017Y-57634226D01*
X176902827Y-58824702D02*
X176855208Y-58729464D01*
X176807589Y-58681845D01*
X176712351Y-58634226D01*
X176664732Y-58634226D01*
X176569494Y-58681845D01*
X176521875Y-58729464D01*
X176474255Y-58824702D01*
X176474255Y-59015178D01*
X176521875Y-59110416D01*
X176569494Y-59158035D01*
X176664732Y-59205654D01*
X176712351Y-59205654D01*
X176807589Y-59158035D01*
X176855208Y-59110416D01*
X176902827Y-59015178D01*
X176902827Y-58824702D01*
X176950446Y-58729464D01*
X176998065Y-58681845D01*
X177093303Y-58634226D01*
X177283779Y-58634226D01*
X177379017Y-58681845D01*
X177426636Y-58729464D01*
X177474255Y-58824702D01*
X177474255Y-59015178D01*
X177426636Y-59110416D01*
X177379017Y-59158035D01*
X177283779Y-59205654D01*
X177093303Y-59205654D01*
X176998065Y-59158035D01*
X176950446Y-59110416D01*
X176902827Y-59015178D01*
%TO.C,C4*%
X33602142Y-14517708D02*
X33649761Y-14470089D01*
X33697380Y-14327232D01*
X33697380Y-14231994D01*
X33649761Y-14089136D01*
X33554523Y-13993898D01*
X33459285Y-13946279D01*
X33268809Y-13898660D01*
X33125952Y-13898660D01*
X32935476Y-13946279D01*
X32840238Y-13993898D01*
X32745000Y-14089136D01*
X32697380Y-14231994D01*
X32697380Y-14327232D01*
X32745000Y-14470089D01*
X32792619Y-14517708D01*
X33030714Y-15374851D02*
X33697380Y-15374851D01*
X32649761Y-15136755D02*
X33364047Y-14898660D01*
X33364047Y-15517708D01*
%TO.C,D7*%
X13564880Y-20693154D02*
X12564880Y-20693154D01*
X12564880Y-20931250D01*
X12612500Y-21074107D01*
X12707738Y-21169345D01*
X12802976Y-21216964D01*
X12993452Y-21264583D01*
X13136309Y-21264583D01*
X13326785Y-21216964D01*
X13422023Y-21169345D01*
X13517261Y-21074107D01*
X13564880Y-20931250D01*
X13564880Y-20693154D01*
X12564880Y-21597916D02*
X12564880Y-22264583D01*
X13564880Y-21836011D01*
%TO.C,D40*%
X182236755Y-18629464D02*
X181236755Y-18629464D01*
X181236755Y-18867559D01*
X181284375Y-19010416D01*
X181379613Y-19105654D01*
X181474851Y-19153273D01*
X181665327Y-19200892D01*
X181808184Y-19200892D01*
X181998660Y-19153273D01*
X182093898Y-19105654D01*
X182189136Y-19010416D01*
X182236755Y-18867559D01*
X182236755Y-18629464D01*
X181570089Y-20058035D02*
X182236755Y-20058035D01*
X181189136Y-19819940D02*
X181903422Y-19581845D01*
X181903422Y-20200892D01*
X181236755Y-20772321D02*
X181236755Y-20867559D01*
X181284375Y-20962797D01*
X181331994Y-21010416D01*
X181427232Y-21058035D01*
X181617708Y-21105654D01*
X181855803Y-21105654D01*
X182046279Y-21058035D01*
X182141517Y-21010416D01*
X182189136Y-20962797D01*
X182236755Y-20867559D01*
X182236755Y-20772321D01*
X182189136Y-20677083D01*
X182141517Y-20629464D01*
X182046279Y-20581845D01*
X181855803Y-20534226D01*
X181617708Y-20534226D01*
X181427232Y-20581845D01*
X181331994Y-20629464D01*
X181284375Y-20677083D01*
X181236755Y-20772321D01*
%TO.C,D29*%
X139374255Y-56729464D02*
X138374255Y-56729464D01*
X138374255Y-56967559D01*
X138421875Y-57110416D01*
X138517113Y-57205654D01*
X138612351Y-57253273D01*
X138802827Y-57300892D01*
X138945684Y-57300892D01*
X139136160Y-57253273D01*
X139231398Y-57205654D01*
X139326636Y-57110416D01*
X139374255Y-56967559D01*
X139374255Y-56729464D01*
X138469494Y-57681845D02*
X138421875Y-57729464D01*
X138374255Y-57824702D01*
X138374255Y-58062797D01*
X138421875Y-58158035D01*
X138469494Y-58205654D01*
X138564732Y-58253273D01*
X138659970Y-58253273D01*
X138802827Y-58205654D01*
X139374255Y-57634226D01*
X139374255Y-58253273D01*
X139374255Y-58729464D02*
X139374255Y-58919940D01*
X139326636Y-59015178D01*
X139279017Y-59062797D01*
X139136160Y-59158035D01*
X138945684Y-59205654D01*
X138564732Y-59205654D01*
X138469494Y-59158035D01*
X138421875Y-59110416D01*
X138374255Y-59015178D01*
X138374255Y-58824702D01*
X138421875Y-58729464D01*
X138469494Y-58681845D01*
X138564732Y-58634226D01*
X138802827Y-58634226D01*
X138898065Y-58681845D01*
X138945684Y-58729464D01*
X138993303Y-58824702D01*
X138993303Y-59015178D01*
X138945684Y-59110416D01*
X138898065Y-59158035D01*
X138802827Y-59205654D01*
%TO.C,D12*%
X62777380Y-18629464D02*
X61777380Y-18629464D01*
X61777380Y-18867559D01*
X61825000Y-19010416D01*
X61920238Y-19105654D01*
X62015476Y-19153273D01*
X62205952Y-19200892D01*
X62348809Y-19200892D01*
X62539285Y-19153273D01*
X62634523Y-19105654D01*
X62729761Y-19010416D01*
X62777380Y-18867559D01*
X62777380Y-18629464D01*
X62777380Y-20153273D02*
X62777380Y-19581845D01*
X62777380Y-19867559D02*
X61777380Y-19867559D01*
X61920238Y-19772321D01*
X62015476Y-19677083D01*
X62063095Y-19581845D01*
X61872619Y-20534226D02*
X61825000Y-20581845D01*
X61777380Y-20677083D01*
X61777380Y-20915178D01*
X61825000Y-21010416D01*
X61872619Y-21058035D01*
X61967857Y-21105654D01*
X62063095Y-21105654D01*
X62205952Y-21058035D01*
X62777380Y-20486607D01*
X62777380Y-21105654D01*
%TO.C,U15*%
X75545405Y-66613628D02*
X76355018Y-66613628D01*
X76450267Y-66661252D01*
X76497891Y-66708877D01*
X76545515Y-66804125D01*
X76545515Y-66994622D01*
X76497891Y-67089871D01*
X76450267Y-67137495D01*
X76355018Y-67185120D01*
X75545405Y-67185120D01*
X76545515Y-68185230D02*
X76545515Y-67613738D01*
X76545515Y-67899484D02*
X75545405Y-67899484D01*
X75688278Y-67804235D01*
X75783527Y-67708987D01*
X75831151Y-67613738D01*
X75545405Y-69090091D02*
X75545405Y-68613848D01*
X76021648Y-68566224D01*
X75974024Y-68613848D01*
X75926400Y-68709097D01*
X75926400Y-68947218D01*
X75974024Y-69042467D01*
X76021648Y-69090091D01*
X76116897Y-69137715D01*
X76355018Y-69137715D01*
X76450267Y-69090091D01*
X76497891Y-69042467D01*
X76545515Y-68947218D01*
X76545515Y-68709097D01*
X76497891Y-68613848D01*
X76450267Y-68566224D01*
%TO.C,D66*%
X305664880Y-56729464D02*
X304664880Y-56729464D01*
X304664880Y-56967559D01*
X304712500Y-57110416D01*
X304807738Y-57205654D01*
X304902976Y-57253273D01*
X305093452Y-57300892D01*
X305236309Y-57300892D01*
X305426785Y-57253273D01*
X305522023Y-57205654D01*
X305617261Y-57110416D01*
X305664880Y-56967559D01*
X305664880Y-56729464D01*
X304664880Y-58158035D02*
X304664880Y-57967559D01*
X304712500Y-57872321D01*
X304760119Y-57824702D01*
X304902976Y-57729464D01*
X305093452Y-57681845D01*
X305474404Y-57681845D01*
X305569642Y-57729464D01*
X305617261Y-57777083D01*
X305664880Y-57872321D01*
X305664880Y-58062797D01*
X305617261Y-58158035D01*
X305569642Y-58205654D01*
X305474404Y-58253273D01*
X305236309Y-58253273D01*
X305141071Y-58205654D01*
X305093452Y-58158035D01*
X305045833Y-58062797D01*
X305045833Y-57872321D01*
X305093452Y-57777083D01*
X305141071Y-57729464D01*
X305236309Y-57681845D01*
X304664880Y-59110416D02*
X304664880Y-58919940D01*
X304712500Y-58824702D01*
X304760119Y-58777083D01*
X304902976Y-58681845D01*
X305093452Y-58634226D01*
X305474404Y-58634226D01*
X305569642Y-58681845D01*
X305617261Y-58729464D01*
X305664880Y-58824702D01*
X305664880Y-59015178D01*
X305617261Y-59110416D01*
X305569642Y-59158035D01*
X305474404Y-59205654D01*
X305236309Y-59205654D01*
X305141071Y-59158035D01*
X305093452Y-59110416D01*
X305045833Y-59015178D01*
X305045833Y-58824702D01*
X305093452Y-58729464D01*
X305141071Y-58681845D01*
X305236309Y-58634226D01*
%TO.C,D27*%
X125086755Y-20216964D02*
X124086755Y-20216964D01*
X124086755Y-20455059D01*
X124134375Y-20597916D01*
X124229613Y-20693154D01*
X124324851Y-20740773D01*
X124515327Y-20788392D01*
X124658184Y-20788392D01*
X124848660Y-20740773D01*
X124943898Y-20693154D01*
X125039136Y-20597916D01*
X125086755Y-20455059D01*
X125086755Y-20216964D01*
X124181994Y-21169345D02*
X124134375Y-21216964D01*
X124086755Y-21312202D01*
X124086755Y-21550297D01*
X124134375Y-21645535D01*
X124181994Y-21693154D01*
X124277232Y-21740773D01*
X124372470Y-21740773D01*
X124515327Y-21693154D01*
X125086755Y-21121726D01*
X125086755Y-21740773D01*
X124086755Y-22074107D02*
X124086755Y-22740773D01*
X125086755Y-22312202D01*
%TO.C,C7*%
X27154166Y-17727142D02*
X27201785Y-17774761D01*
X27344642Y-17822380D01*
X27439880Y-17822380D01*
X27582738Y-17774761D01*
X27677976Y-17679523D01*
X27725595Y-17584285D01*
X27773214Y-17393809D01*
X27773214Y-17250952D01*
X27725595Y-17060476D01*
X27677976Y-16965238D01*
X27582738Y-16870000D01*
X27439880Y-16822380D01*
X27344642Y-16822380D01*
X27201785Y-16870000D01*
X27154166Y-16917619D01*
X26820833Y-16822380D02*
X26154166Y-16822380D01*
X26582738Y-17822380D01*
%TO.C,R5*%
X11160416Y-26180505D02*
X11493750Y-25704315D01*
X11731845Y-26180505D02*
X11731845Y-25180505D01*
X11350892Y-25180505D01*
X11255654Y-25228125D01*
X11208035Y-25275744D01*
X11160416Y-25370982D01*
X11160416Y-25513839D01*
X11208035Y-25609077D01*
X11255654Y-25656696D01*
X11350892Y-25704315D01*
X11731845Y-25704315D01*
X10255654Y-25180505D02*
X10731845Y-25180505D01*
X10779464Y-25656696D01*
X10731845Y-25609077D01*
X10636607Y-25561458D01*
X10398511Y-25561458D01*
X10303273Y-25609077D01*
X10255654Y-25656696D01*
X10208035Y-25751934D01*
X10208035Y-25990029D01*
X10255654Y-26085267D01*
X10303273Y-26132886D01*
X10398511Y-26180505D01*
X10636607Y-26180505D01*
X10731845Y-26132886D01*
X10779464Y-26085267D01*
%TO.C,D72*%
X305664880Y420535D02*
X304664880Y420535D01*
X304664880Y182440D01*
X304712500Y39583D01*
X304807738Y-55654D01*
X304902976Y-103273D01*
X305093452Y-150892D01*
X305236309Y-150892D01*
X305426785Y-103273D01*
X305522023Y-55654D01*
X305617261Y39583D01*
X305664880Y182440D01*
X305664880Y420535D01*
X304664880Y-484226D02*
X304664880Y-1150892D01*
X305664880Y-722321D01*
X304760119Y-1484226D02*
X304712500Y-1531845D01*
X304664880Y-1627083D01*
X304664880Y-1865178D01*
X304712500Y-1960416D01*
X304760119Y-2008035D01*
X304855357Y-2055654D01*
X304950595Y-2055654D01*
X305093452Y-2008035D01*
X305664880Y-1436607D01*
X305664880Y-2055654D01*
%TO.C,U17*%
X108089155Y-9463628D02*
X108898768Y-9463628D01*
X108994017Y-9511252D01*
X109041641Y-9558877D01*
X109089265Y-9654125D01*
X109089265Y-9844622D01*
X109041641Y-9939871D01*
X108994017Y-9987495D01*
X108898768Y-10035120D01*
X108089155Y-10035120D01*
X109089265Y-11035230D02*
X109089265Y-10463738D01*
X109089265Y-10749484D02*
X108089155Y-10749484D01*
X108232028Y-10654235D01*
X108327277Y-10558987D01*
X108374901Y-10463738D01*
X108089155Y-11368600D02*
X108089155Y-12035340D01*
X109089265Y-11606721D01*
%TO.C,U24*%
X172382905Y-66613628D02*
X173192518Y-66613628D01*
X173287767Y-66661252D01*
X173335391Y-66708877D01*
X173383015Y-66804125D01*
X173383015Y-66994622D01*
X173335391Y-67089871D01*
X173287767Y-67137495D01*
X173192518Y-67185120D01*
X172382905Y-67185120D01*
X172478154Y-67613738D02*
X172430530Y-67661362D01*
X172382905Y-67756611D01*
X172382905Y-67994732D01*
X172430530Y-68089981D01*
X172478154Y-68137605D01*
X172573402Y-68185230D01*
X172668651Y-68185230D01*
X172811524Y-68137605D01*
X173383015Y-67566114D01*
X173383015Y-68185230D01*
X172716275Y-69042467D02*
X173383015Y-69042467D01*
X172335281Y-68804345D02*
X173049645Y-68566224D01*
X173049645Y-69185340D01*
%TO.C,D47*%
X215574255Y-56729464D02*
X214574255Y-56729464D01*
X214574255Y-56967559D01*
X214621875Y-57110416D01*
X214717113Y-57205654D01*
X214812351Y-57253273D01*
X215002827Y-57300892D01*
X215145684Y-57300892D01*
X215336160Y-57253273D01*
X215431398Y-57205654D01*
X215526636Y-57110416D01*
X215574255Y-56967559D01*
X215574255Y-56729464D01*
X214907589Y-58158035D02*
X215574255Y-58158035D01*
X214526636Y-57919940D02*
X215240922Y-57681845D01*
X215240922Y-58300892D01*
X214574255Y-58586607D02*
X214574255Y-59253273D01*
X215574255Y-58824702D01*
%TO.C,D5*%
X10389880Y-77843154D02*
X9389880Y-77843154D01*
X9389880Y-78081250D01*
X9437500Y-78224107D01*
X9532738Y-78319345D01*
X9627976Y-78366964D01*
X9818452Y-78414583D01*
X9961309Y-78414583D01*
X10151785Y-78366964D01*
X10247023Y-78319345D01*
X10342261Y-78224107D01*
X10389880Y-78081250D01*
X10389880Y-77843154D01*
X9389880Y-79319345D02*
X9389880Y-78843154D01*
X9866071Y-78795535D01*
X9818452Y-78843154D01*
X9770833Y-78938392D01*
X9770833Y-79176488D01*
X9818452Y-79271726D01*
X9866071Y-79319345D01*
X9961309Y-79366964D01*
X10199404Y-79366964D01*
X10294642Y-79319345D01*
X10342261Y-79271726D01*
X10389880Y-79176488D01*
X10389880Y-78938392D01*
X10342261Y-78843154D01*
X10294642Y-78795535D01*
%TO.C,U20*%
X75545405Y6808246D02*
X76355018Y6808246D01*
X76450267Y6760622D01*
X76497891Y6712997D01*
X76545515Y6617749D01*
X76545515Y6427252D01*
X76497891Y6332003D01*
X76450267Y6284379D01*
X76355018Y6236755D01*
X75545405Y6236755D01*
X75640654Y5808136D02*
X75593030Y5760512D01*
X75545405Y5665263D01*
X75545405Y5427142D01*
X75593030Y5331893D01*
X75640654Y5284269D01*
X75735902Y5236645D01*
X75831151Y5236645D01*
X75974024Y5284269D01*
X76545515Y5855760D01*
X76545515Y5236645D01*
X75545405Y4617529D02*
X75545405Y4522280D01*
X75593030Y4427032D01*
X75640654Y4379407D01*
X75735902Y4331783D01*
X75926400Y4284159D01*
X76164521Y4284159D01*
X76355018Y4331783D01*
X76450267Y4379407D01*
X76497891Y4427032D01*
X76545515Y4522280D01*
X76545515Y4617529D01*
X76497891Y4712777D01*
X76450267Y4760402D01*
X76355018Y4808026D01*
X76164521Y4855650D01*
X75926400Y4855650D01*
X75735902Y4808026D01*
X75640654Y4760402D01*
X75593030Y4712777D01*
X75545405Y4617529D01*
%TO.C,U16*%
X318036030Y-47563628D02*
X318845643Y-47563628D01*
X318940892Y-47611252D01*
X318988516Y-47658877D01*
X319036140Y-47754125D01*
X319036140Y-47944622D01*
X318988516Y-48039871D01*
X318940892Y-48087495D01*
X318845643Y-48135120D01*
X318036030Y-48135120D01*
X319036140Y-49135230D02*
X319036140Y-48563738D01*
X319036140Y-48849484D02*
X318036030Y-48849484D01*
X318178903Y-48754235D01*
X318274152Y-48658987D01*
X318321776Y-48563738D01*
X318036030Y-49992467D02*
X318036030Y-49801970D01*
X318083655Y-49706721D01*
X318131279Y-49659097D01*
X318274152Y-49563848D01*
X318464649Y-49516224D01*
X318845643Y-49516224D01*
X318940892Y-49563848D01*
X318988516Y-49611472D01*
X319036140Y-49706721D01*
X319036140Y-49897218D01*
X318988516Y-49992467D01*
X318940892Y-50040091D01*
X318845643Y-50087715D01*
X318607522Y-50087715D01*
X318512273Y-50040091D01*
X318464649Y-49992467D01*
X318417025Y-49897218D01*
X318417025Y-49706721D01*
X318464649Y-49611472D01*
X318512273Y-49563848D01*
X318607522Y-49516224D01*
%TO.C,SW1*%
X34670833Y-2484386D02*
X34527976Y-2532005D01*
X34289880Y-2532005D01*
X34194642Y-2484386D01*
X34147023Y-2436767D01*
X34099404Y-2341529D01*
X34099404Y-2246291D01*
X34147023Y-2151053D01*
X34194642Y-2103434D01*
X34289880Y-2055815D01*
X34480357Y-2008196D01*
X34575595Y-1960577D01*
X34623214Y-1912958D01*
X34670833Y-1817720D01*
X34670833Y-1722482D01*
X34623214Y-1627244D01*
X34575595Y-1579625D01*
X34480357Y-1532005D01*
X34242261Y-1532005D01*
X34099404Y-1579625D01*
X33766071Y-1532005D02*
X33527976Y-2532005D01*
X33337500Y-1817720D01*
X33147023Y-2532005D01*
X32908928Y-1532005D01*
X32004166Y-2532005D02*
X32575595Y-2532005D01*
X32289880Y-2532005D02*
X32289880Y-1532005D01*
X32385119Y-1674863D01*
X32480357Y-1770101D01*
X32575595Y-1817720D01*
%TO.C,D4*%
X10389880Y-58793154D02*
X9389880Y-58793154D01*
X9389880Y-59031250D01*
X9437500Y-59174107D01*
X9532738Y-59269345D01*
X9627976Y-59316964D01*
X9818452Y-59364583D01*
X9961309Y-59364583D01*
X10151785Y-59316964D01*
X10247023Y-59269345D01*
X10342261Y-59174107D01*
X10389880Y-59031250D01*
X10389880Y-58793154D01*
X9723214Y-60221726D02*
X10389880Y-60221726D01*
X9342261Y-59983630D02*
X10056547Y-59745535D01*
X10056547Y-60364583D01*
%TO.C,D64*%
X277486755Y-20216964D02*
X276486755Y-20216964D01*
X276486755Y-20455059D01*
X276534375Y-20597916D01*
X276629613Y-20693154D01*
X276724851Y-20740773D01*
X276915327Y-20788392D01*
X277058184Y-20788392D01*
X277248660Y-20740773D01*
X277343898Y-20693154D01*
X277439136Y-20597916D01*
X277486755Y-20455059D01*
X277486755Y-20216964D01*
X276486755Y-21645535D02*
X276486755Y-21455059D01*
X276534375Y-21359821D01*
X276581994Y-21312202D01*
X276724851Y-21216964D01*
X276915327Y-21169345D01*
X277296279Y-21169345D01*
X277391517Y-21216964D01*
X277439136Y-21264583D01*
X277486755Y-21359821D01*
X277486755Y-21550297D01*
X277439136Y-21645535D01*
X277391517Y-21693154D01*
X277296279Y-21740773D01*
X277058184Y-21740773D01*
X276962946Y-21693154D01*
X276915327Y-21645535D01*
X276867708Y-21550297D01*
X276867708Y-21359821D01*
X276915327Y-21264583D01*
X276962946Y-21216964D01*
X277058184Y-21169345D01*
X276820089Y-22597916D02*
X277486755Y-22597916D01*
X276439136Y-22359821D02*
X277153422Y-22121726D01*
X277153422Y-22740773D01*
%TO.C,D39*%
X172711755Y-1166964D02*
X171711755Y-1166964D01*
X171711755Y-1405059D01*
X171759375Y-1547916D01*
X171854613Y-1643154D01*
X171949851Y-1690773D01*
X172140327Y-1738392D01*
X172283184Y-1738392D01*
X172473660Y-1690773D01*
X172568898Y-1643154D01*
X172664136Y-1547916D01*
X172711755Y-1405059D01*
X172711755Y-1166964D01*
X171711755Y-2071726D02*
X171711755Y-2690773D01*
X172092708Y-2357440D01*
X172092708Y-2500297D01*
X172140327Y-2595535D01*
X172187946Y-2643154D01*
X172283184Y-2690773D01*
X172521279Y-2690773D01*
X172616517Y-2643154D01*
X172664136Y-2595535D01*
X172711755Y-2500297D01*
X172711755Y-2214583D01*
X172664136Y-2119345D01*
X172616517Y-2071726D01*
X172711755Y-3166964D02*
X172711755Y-3357440D01*
X172664136Y-3452678D01*
X172616517Y-3500297D01*
X172473660Y-3595535D01*
X172283184Y-3643154D01*
X171902232Y-3643154D01*
X171806994Y-3595535D01*
X171759375Y-3547916D01*
X171711755Y-3452678D01*
X171711755Y-3262202D01*
X171759375Y-3166964D01*
X171806994Y-3119345D01*
X171902232Y-3071726D01*
X172140327Y-3071726D01*
X172235565Y-3119345D01*
X172283184Y-3166964D01*
X172330803Y-3262202D01*
X172330803Y-3452678D01*
X172283184Y-3547916D01*
X172235565Y-3595535D01*
X172140327Y-3643154D01*
%TO.C,U7*%
X250567280Y-67089871D02*
X251376893Y-67089871D01*
X251472142Y-67137495D01*
X251519766Y-67185120D01*
X251567390Y-67280368D01*
X251567390Y-67470865D01*
X251519766Y-67566114D01*
X251472142Y-67613738D01*
X251376893Y-67661362D01*
X250567280Y-67661362D01*
X250567280Y-68042357D02*
X250567280Y-68709097D01*
X251567390Y-68280478D01*
%TO.C,D9*%
X13564880Y-57205654D02*
X12564880Y-57205654D01*
X12564880Y-57443750D01*
X12612500Y-57586607D01*
X12707738Y-57681845D01*
X12802976Y-57729464D01*
X12993452Y-57777083D01*
X13136309Y-57777083D01*
X13326785Y-57729464D01*
X13422023Y-57681845D01*
X13517261Y-57586607D01*
X13564880Y-57443750D01*
X13564880Y-57205654D01*
X13564880Y-58253273D02*
X13564880Y-58443750D01*
X13517261Y-58538988D01*
X13469642Y-58586607D01*
X13326785Y-58681845D01*
X13136309Y-58729464D01*
X12755357Y-58729464D01*
X12660119Y-58681845D01*
X12612500Y-58634226D01*
X12564880Y-58538988D01*
X12564880Y-58348511D01*
X12612500Y-58253273D01*
X12660119Y-58205654D01*
X12755357Y-58158035D01*
X12993452Y-58158035D01*
X13088690Y-58205654D01*
X13136309Y-58253273D01*
X13183928Y-58348511D01*
X13183928Y-58538988D01*
X13136309Y-58634226D01*
X13088690Y-58681845D01*
X12993452Y-58729464D01*
%TO.C,C2*%
X50816666Y-22830267D02*
X50864285Y-22877886D01*
X51007142Y-22925505D01*
X51102380Y-22925505D01*
X51245238Y-22877886D01*
X51340476Y-22782648D01*
X51388095Y-22687410D01*
X51435714Y-22496934D01*
X51435714Y-22354077D01*
X51388095Y-22163601D01*
X51340476Y-22068363D01*
X51245238Y-21973125D01*
X51102380Y-21925505D01*
X51007142Y-21925505D01*
X50864285Y-21973125D01*
X50816666Y-22020744D01*
X50435714Y-22020744D02*
X50388095Y-21973125D01*
X50292857Y-21925505D01*
X50054761Y-21925505D01*
X49959523Y-21973125D01*
X49911904Y-22020744D01*
X49864285Y-22115982D01*
X49864285Y-22211220D01*
X49911904Y-22354077D01*
X50483333Y-22925505D01*
X49864285Y-22925505D01*
%TO.C,D42*%
X196524255Y-58316964D02*
X195524255Y-58316964D01*
X195524255Y-58555059D01*
X195571875Y-58697916D01*
X195667113Y-58793154D01*
X195762351Y-58840773D01*
X195952827Y-58888392D01*
X196095684Y-58888392D01*
X196286160Y-58840773D01*
X196381398Y-58793154D01*
X196476636Y-58697916D01*
X196524255Y-58555059D01*
X196524255Y-58316964D01*
X195857589Y-59745535D02*
X196524255Y-59745535D01*
X195476636Y-59507440D02*
X196190922Y-59269345D01*
X196190922Y-59888392D01*
X195619494Y-60221726D02*
X195571875Y-60269345D01*
X195524255Y-60364583D01*
X195524255Y-60602678D01*
X195571875Y-60697916D01*
X195619494Y-60745535D01*
X195714732Y-60793154D01*
X195809970Y-60793154D01*
X195952827Y-60745535D01*
X196524255Y-60174107D01*
X196524255Y-60793154D01*
%TO.C,U21*%
X140632905Y-66613628D02*
X141442518Y-66613628D01*
X141537767Y-66661252D01*
X141585391Y-66708877D01*
X141633015Y-66804125D01*
X141633015Y-66994622D01*
X141585391Y-67089871D01*
X141537767Y-67137495D01*
X141442518Y-67185120D01*
X140632905Y-67185120D01*
X140728154Y-67613738D02*
X140680530Y-67661362D01*
X140632905Y-67756611D01*
X140632905Y-67994732D01*
X140680530Y-68089981D01*
X140728154Y-68137605D01*
X140823402Y-68185230D01*
X140918651Y-68185230D01*
X141061524Y-68137605D01*
X141633015Y-67566114D01*
X141633015Y-68185230D01*
X141633015Y-69137715D02*
X141633015Y-68566224D01*
X141633015Y-68851970D02*
X140632905Y-68851970D01*
X140775778Y-68756721D01*
X140871027Y-68661472D01*
X140918651Y-68566224D01*
%TO.C,D56*%
X253674255Y-56729464D02*
X252674255Y-56729464D01*
X252674255Y-56967559D01*
X252721875Y-57110416D01*
X252817113Y-57205654D01*
X252912351Y-57253273D01*
X253102827Y-57300892D01*
X253245684Y-57300892D01*
X253436160Y-57253273D01*
X253531398Y-57205654D01*
X253626636Y-57110416D01*
X253674255Y-56967559D01*
X253674255Y-56729464D01*
X252674255Y-58205654D02*
X252674255Y-57729464D01*
X253150446Y-57681845D01*
X253102827Y-57729464D01*
X253055208Y-57824702D01*
X253055208Y-58062797D01*
X253102827Y-58158035D01*
X253150446Y-58205654D01*
X253245684Y-58253273D01*
X253483779Y-58253273D01*
X253579017Y-58205654D01*
X253626636Y-58158035D01*
X253674255Y-58062797D01*
X253674255Y-57824702D01*
X253626636Y-57729464D01*
X253579017Y-57681845D01*
X252674255Y-59110416D02*
X252674255Y-58919940D01*
X252721875Y-58824702D01*
X252769494Y-58777083D01*
X252912351Y-58681845D01*
X253102827Y-58634226D01*
X253483779Y-58634226D01*
X253579017Y-58681845D01*
X253626636Y-58729464D01*
X253674255Y-58824702D01*
X253674255Y-59015178D01*
X253626636Y-59110416D01*
X253579017Y-59158035D01*
X253483779Y-59205654D01*
X253245684Y-59205654D01*
X253150446Y-59158035D01*
X253102827Y-59110416D01*
X253055208Y-59015178D01*
X253055208Y-58824702D01*
X253102827Y-58729464D01*
X253150446Y-58681845D01*
X253245684Y-58634226D01*
%TO.C,D73*%
X299314880Y-20216964D02*
X298314880Y-20216964D01*
X298314880Y-20455059D01*
X298362500Y-20597916D01*
X298457738Y-20693154D01*
X298552976Y-20740773D01*
X298743452Y-20788392D01*
X298886309Y-20788392D01*
X299076785Y-20740773D01*
X299172023Y-20693154D01*
X299267261Y-20597916D01*
X299314880Y-20455059D01*
X299314880Y-20216964D01*
X298314880Y-21121726D02*
X298314880Y-21788392D01*
X299314880Y-21359821D01*
X298314880Y-22074107D02*
X298314880Y-22693154D01*
X298695833Y-22359821D01*
X298695833Y-22502678D01*
X298743452Y-22597916D01*
X298791071Y-22645535D01*
X298886309Y-22693154D01*
X299124404Y-22693154D01*
X299219642Y-22645535D01*
X299267261Y-22597916D01*
X299314880Y-22502678D01*
X299314880Y-22216964D01*
X299267261Y-22121726D01*
X299219642Y-22074107D01*
%TO.C,D43*%
X203668005Y-77366964D02*
X202668005Y-77366964D01*
X202668005Y-77605059D01*
X202715625Y-77747916D01*
X202810863Y-77843154D01*
X202906101Y-77890773D01*
X203096577Y-77938392D01*
X203239434Y-77938392D01*
X203429910Y-77890773D01*
X203525148Y-77843154D01*
X203620386Y-77747916D01*
X203668005Y-77605059D01*
X203668005Y-77366964D01*
X203001339Y-78795535D02*
X203668005Y-78795535D01*
X202620386Y-78557440D02*
X203334672Y-78319345D01*
X203334672Y-78938392D01*
X202668005Y-79224107D02*
X202668005Y-79843154D01*
X203048958Y-79509821D01*
X203048958Y-79652678D01*
X203096577Y-79747916D01*
X203144196Y-79795535D01*
X203239434Y-79843154D01*
X203477529Y-79843154D01*
X203572767Y-79795535D01*
X203620386Y-79747916D01*
X203668005Y-79652678D01*
X203668005Y-79366964D01*
X203620386Y-79271726D01*
X203572767Y-79224107D01*
%TO.C,D46*%
X206049255Y-37679464D02*
X205049255Y-37679464D01*
X205049255Y-37917559D01*
X205096875Y-38060416D01*
X205192113Y-38155654D01*
X205287351Y-38203273D01*
X205477827Y-38250892D01*
X205620684Y-38250892D01*
X205811160Y-38203273D01*
X205906398Y-38155654D01*
X206001636Y-38060416D01*
X206049255Y-37917559D01*
X206049255Y-37679464D01*
X205382589Y-39108035D02*
X206049255Y-39108035D01*
X205001636Y-38869940D02*
X205715922Y-38631845D01*
X205715922Y-39250892D01*
X205049255Y-40060416D02*
X205049255Y-39869940D01*
X205096875Y-39774702D01*
X205144494Y-39727083D01*
X205287351Y-39631845D01*
X205477827Y-39584226D01*
X205858779Y-39584226D01*
X205954017Y-39631845D01*
X206001636Y-39679464D01*
X206049255Y-39774702D01*
X206049255Y-39965178D01*
X206001636Y-40060416D01*
X205954017Y-40108035D01*
X205858779Y-40155654D01*
X205620684Y-40155654D01*
X205525446Y-40108035D01*
X205477827Y-40060416D01*
X205430208Y-39965178D01*
X205430208Y-39774702D01*
X205477827Y-39679464D01*
X205525446Y-39631845D01*
X205620684Y-39584226D01*
%TO.C,D67*%
X287011755Y-1166964D02*
X286011755Y-1166964D01*
X286011755Y-1405059D01*
X286059375Y-1547916D01*
X286154613Y-1643154D01*
X286249851Y-1690773D01*
X286440327Y-1738392D01*
X286583184Y-1738392D01*
X286773660Y-1690773D01*
X286868898Y-1643154D01*
X286964136Y-1547916D01*
X287011755Y-1405059D01*
X287011755Y-1166964D01*
X286011755Y-2595535D02*
X286011755Y-2405059D01*
X286059375Y-2309821D01*
X286106994Y-2262202D01*
X286249851Y-2166964D01*
X286440327Y-2119345D01*
X286821279Y-2119345D01*
X286916517Y-2166964D01*
X286964136Y-2214583D01*
X287011755Y-2309821D01*
X287011755Y-2500297D01*
X286964136Y-2595535D01*
X286916517Y-2643154D01*
X286821279Y-2690773D01*
X286583184Y-2690773D01*
X286487946Y-2643154D01*
X286440327Y-2595535D01*
X286392708Y-2500297D01*
X286392708Y-2309821D01*
X286440327Y-2214583D01*
X286487946Y-2166964D01*
X286583184Y-2119345D01*
X286011755Y-3024107D02*
X286011755Y-3690773D01*
X287011755Y-3262202D01*
%TO.C,R1*%
X68032291Y-8671130D02*
X68365625Y-8194940D01*
X68603720Y-8671130D02*
X68603720Y-7671130D01*
X68222767Y-7671130D01*
X68127529Y-7718750D01*
X68079910Y-7766369D01*
X68032291Y-7861607D01*
X68032291Y-8004464D01*
X68079910Y-8099702D01*
X68127529Y-8147321D01*
X68222767Y-8194940D01*
X68603720Y-8194940D01*
X67079910Y-8671130D02*
X67651339Y-8671130D01*
X67365625Y-8671130D02*
X67365625Y-7671130D01*
X67460863Y-7813988D01*
X67556101Y-7909226D01*
X67651339Y-7956845D01*
%TO.C,U5*%
X250567280Y-9939871D02*
X251376893Y-9939871D01*
X251472142Y-9987495D01*
X251519766Y-10035120D01*
X251567390Y-10130368D01*
X251567390Y-10320865D01*
X251519766Y-10416114D01*
X251472142Y-10463738D01*
X251376893Y-10511362D01*
X250567280Y-10511362D01*
X250567280Y-11463848D02*
X250567280Y-10987605D01*
X251043523Y-10939981D01*
X250995899Y-10987605D01*
X250948275Y-11082854D01*
X250948275Y-11320975D01*
X250995899Y-11416224D01*
X251043523Y-11463848D01*
X251138772Y-11511472D01*
X251376893Y-11511472D01*
X251472142Y-11463848D01*
X251519766Y-11416224D01*
X251567390Y-11320975D01*
X251567390Y-11082854D01*
X251519766Y-10987605D01*
X251472142Y-10939981D01*
%TO.C,R2*%
X68032291Y-6396130D02*
X68365625Y-5919940D01*
X68603720Y-6396130D02*
X68603720Y-5396130D01*
X68222767Y-5396130D01*
X68127529Y-5443750D01*
X68079910Y-5491369D01*
X68032291Y-5586607D01*
X68032291Y-5729464D01*
X68079910Y-5824702D01*
X68127529Y-5872321D01*
X68222767Y-5919940D01*
X68603720Y-5919940D01*
X67651339Y-5491369D02*
X67603720Y-5443750D01*
X67508482Y-5396130D01*
X67270386Y-5396130D01*
X67175148Y-5443750D01*
X67127529Y-5491369D01*
X67079910Y-5586607D01*
X67079910Y-5681845D01*
X67127529Y-5824702D01*
X67698958Y-6396130D01*
X67079910Y-6396130D01*
%TO.C,D50*%
X225099255Y-39266964D02*
X224099255Y-39266964D01*
X224099255Y-39505059D01*
X224146875Y-39647916D01*
X224242113Y-39743154D01*
X224337351Y-39790773D01*
X224527827Y-39838392D01*
X224670684Y-39838392D01*
X224861160Y-39790773D01*
X224956398Y-39743154D01*
X225051636Y-39647916D01*
X225099255Y-39505059D01*
X225099255Y-39266964D01*
X224099255Y-40743154D02*
X224099255Y-40266964D01*
X224575446Y-40219345D01*
X224527827Y-40266964D01*
X224480208Y-40362202D01*
X224480208Y-40600297D01*
X224527827Y-40695535D01*
X224575446Y-40743154D01*
X224670684Y-40790773D01*
X224908779Y-40790773D01*
X225004017Y-40743154D01*
X225051636Y-40695535D01*
X225099255Y-40600297D01*
X225099255Y-40362202D01*
X225051636Y-40266964D01*
X225004017Y-40219345D01*
X224099255Y-41409821D02*
X224099255Y-41505059D01*
X224146875Y-41600297D01*
X224194494Y-41647916D01*
X224289732Y-41695535D01*
X224480208Y-41743154D01*
X224718303Y-41743154D01*
X224908779Y-41695535D01*
X225004017Y-41647916D01*
X225051636Y-41600297D01*
X225099255Y-41505059D01*
X225099255Y-41409821D01*
X225051636Y-41314583D01*
X225004017Y-41266964D01*
X224908779Y-41219345D01*
X224718303Y-41171726D01*
X224480208Y-41171726D01*
X224289732Y-41219345D01*
X224194494Y-41266964D01*
X224146875Y-41314583D01*
X224099255Y-41409821D01*
%TO.C,D34*%
X158424255Y-58316964D02*
X157424255Y-58316964D01*
X157424255Y-58555059D01*
X157471875Y-58697916D01*
X157567113Y-58793154D01*
X157662351Y-58840773D01*
X157852827Y-58888392D01*
X157995684Y-58888392D01*
X158186160Y-58840773D01*
X158281398Y-58793154D01*
X158376636Y-58697916D01*
X158424255Y-58555059D01*
X158424255Y-58316964D01*
X157424255Y-59221726D02*
X157424255Y-59840773D01*
X157805208Y-59507440D01*
X157805208Y-59650297D01*
X157852827Y-59745535D01*
X157900446Y-59793154D01*
X157995684Y-59840773D01*
X158233779Y-59840773D01*
X158329017Y-59793154D01*
X158376636Y-59745535D01*
X158424255Y-59650297D01*
X158424255Y-59364583D01*
X158376636Y-59269345D01*
X158329017Y-59221726D01*
X157757589Y-60697916D02*
X158424255Y-60697916D01*
X157376636Y-60459821D02*
X158090922Y-60221726D01*
X158090922Y-60840773D01*
%TO.C,D21*%
X95718005Y-1166964D02*
X94718005Y-1166964D01*
X94718005Y-1405059D01*
X94765625Y-1547916D01*
X94860863Y-1643154D01*
X94956101Y-1690773D01*
X95146577Y-1738392D01*
X95289434Y-1738392D01*
X95479910Y-1690773D01*
X95575148Y-1643154D01*
X95670386Y-1547916D01*
X95718005Y-1405059D01*
X95718005Y-1166964D01*
X94813244Y-2119345D02*
X94765625Y-2166964D01*
X94718005Y-2262202D01*
X94718005Y-2500297D01*
X94765625Y-2595535D01*
X94813244Y-2643154D01*
X94908482Y-2690773D01*
X95003720Y-2690773D01*
X95146577Y-2643154D01*
X95718005Y-2071726D01*
X95718005Y-2690773D01*
X95718005Y-3643154D02*
X95718005Y-3071726D01*
X95718005Y-3357440D02*
X94718005Y-3357440D01*
X94860863Y-3262202D01*
X94956101Y-3166964D01*
X95003720Y-3071726D01*
%TO.C,U2*%
X76861755Y-7969345D02*
X77671279Y-7969345D01*
X77766517Y-8016964D01*
X77814136Y-8064583D01*
X77861755Y-8159821D01*
X77861755Y-8350297D01*
X77814136Y-8445535D01*
X77766517Y-8493154D01*
X77671279Y-8540773D01*
X76861755Y-8540773D01*
X76956994Y-8969345D02*
X76909375Y-9016964D01*
X76861755Y-9112202D01*
X76861755Y-9350297D01*
X76909375Y-9445535D01*
X76956994Y-9493154D01*
X77052232Y-9540773D01*
X77147470Y-9540773D01*
X77290327Y-9493154D01*
X77861755Y-8921726D01*
X77861755Y-9540773D01*
%TO.C,U1*%
X27324255Y-27416220D02*
X28133779Y-27416220D01*
X28229017Y-27463839D01*
X28276636Y-27511458D01*
X28324255Y-27606696D01*
X28324255Y-27797172D01*
X28276636Y-27892410D01*
X28229017Y-27940029D01*
X28133779Y-27987648D01*
X27324255Y-27987648D01*
X28324255Y-28987648D02*
X28324255Y-28416220D01*
X28324255Y-28701934D02*
X27324255Y-28701934D01*
X27467113Y-28606696D01*
X27562351Y-28511458D01*
X27609970Y-28416220D01*
%TO.C,D52*%
X239386755Y-75779464D02*
X238386755Y-75779464D01*
X238386755Y-76017559D01*
X238434375Y-76160416D01*
X238529613Y-76255654D01*
X238624851Y-76303273D01*
X238815327Y-76350892D01*
X238958184Y-76350892D01*
X239148660Y-76303273D01*
X239243898Y-76255654D01*
X239339136Y-76160416D01*
X239386755Y-76017559D01*
X239386755Y-75779464D01*
X238386755Y-77255654D02*
X238386755Y-76779464D01*
X238862946Y-76731845D01*
X238815327Y-76779464D01*
X238767708Y-76874702D01*
X238767708Y-77112797D01*
X238815327Y-77208035D01*
X238862946Y-77255654D01*
X238958184Y-77303273D01*
X239196279Y-77303273D01*
X239291517Y-77255654D01*
X239339136Y-77208035D01*
X239386755Y-77112797D01*
X239386755Y-76874702D01*
X239339136Y-76779464D01*
X239291517Y-76731845D01*
X238481994Y-77684226D02*
X238434375Y-77731845D01*
X238386755Y-77827083D01*
X238386755Y-78065178D01*
X238434375Y-78160416D01*
X238481994Y-78208035D01*
X238577232Y-78255654D01*
X238672470Y-78255654D01*
X238815327Y-78208035D01*
X239386755Y-77636607D01*
X239386755Y-78255654D01*
%TO.C,U10*%
X288270405Y-66613628D02*
X289080018Y-66613628D01*
X289175267Y-66661252D01*
X289222891Y-66708877D01*
X289270515Y-66804125D01*
X289270515Y-66994622D01*
X289222891Y-67089871D01*
X289175267Y-67137495D01*
X289080018Y-67185120D01*
X288270405Y-67185120D01*
X289270515Y-68185230D02*
X289270515Y-67613738D01*
X289270515Y-67899484D02*
X288270405Y-67899484D01*
X288413278Y-67804235D01*
X288508527Y-67708987D01*
X288556151Y-67613738D01*
X288270405Y-68804345D02*
X288270405Y-68899594D01*
X288318030Y-68994842D01*
X288365654Y-69042467D01*
X288460902Y-69090091D01*
X288651400Y-69137715D01*
X288889521Y-69137715D01*
X289080018Y-69090091D01*
X289175267Y-69042467D01*
X289222891Y-68994842D01*
X289270515Y-68899594D01*
X289270515Y-68804345D01*
X289222891Y-68709097D01*
X289175267Y-68661472D01*
X289080018Y-68613848D01*
X288889521Y-68566224D01*
X288651400Y-68566224D01*
X288460902Y-68613848D01*
X288365654Y-68661472D01*
X288318030Y-68709097D01*
X288270405Y-68804345D01*
%TO.C,R3*%
X39060416Y-6071130D02*
X39393750Y-5594940D01*
X39631845Y-6071130D02*
X39631845Y-5071130D01*
X39250892Y-5071130D01*
X39155654Y-5118750D01*
X39108035Y-5166369D01*
X39060416Y-5261607D01*
X39060416Y-5404464D01*
X39108035Y-5499702D01*
X39155654Y-5547321D01*
X39250892Y-5594940D01*
X39631845Y-5594940D01*
X38727083Y-5071130D02*
X38108035Y-5071130D01*
X38441369Y-5452083D01*
X38298511Y-5452083D01*
X38203273Y-5499702D01*
X38155654Y-5547321D01*
X38108035Y-5642559D01*
X38108035Y-5880654D01*
X38155654Y-5975892D01*
X38203273Y-6023511D01*
X38298511Y-6071130D01*
X38584226Y-6071130D01*
X38679464Y-6023511D01*
X38727083Y-5975892D01*
%TO.C,D19*%
X101274255Y-56729464D02*
X100274255Y-56729464D01*
X100274255Y-56967559D01*
X100321875Y-57110416D01*
X100417113Y-57205654D01*
X100512351Y-57253273D01*
X100702827Y-57300892D01*
X100845684Y-57300892D01*
X101036160Y-57253273D01*
X101131398Y-57205654D01*
X101226636Y-57110416D01*
X101274255Y-56967559D01*
X101274255Y-56729464D01*
X101274255Y-58253273D02*
X101274255Y-57681845D01*
X101274255Y-57967559D02*
X100274255Y-57967559D01*
X100417113Y-57872321D01*
X100512351Y-57777083D01*
X100559970Y-57681845D01*
X101274255Y-58729464D02*
X101274255Y-58919940D01*
X101226636Y-59015178D01*
X101179017Y-59062797D01*
X101036160Y-59158035D01*
X100845684Y-59205654D01*
X100464732Y-59205654D01*
X100369494Y-59158035D01*
X100321875Y-59110416D01*
X100274255Y-59015178D01*
X100274255Y-58824702D01*
X100321875Y-58729464D01*
X100369494Y-58681845D01*
X100464732Y-58634226D01*
X100702827Y-58634226D01*
X100798065Y-58681845D01*
X100845684Y-58729464D01*
X100893303Y-58824702D01*
X100893303Y-59015178D01*
X100845684Y-59110416D01*
X100798065Y-59158035D01*
X100702827Y-59205654D01*
D13*
%TO.C,J3*%
X62534375Y-20796875D02*
X68434375Y-20796875D01*
X68434375Y-20796875D02*
X68434375Y-13196875D01*
X62534375Y-13196875D02*
X62534375Y-20796875D01*
D14*
X64584375Y-21346875D02*
G75*
G03*
X64584375Y-21346875I-100000J0D01*
G01*
D13*
X68434375Y-13196875D02*
X62534375Y-13196875D01*
D10*
%TO.C,D75*%
X44268750Y-42259375D02*
X44268750Y-44259375D01*
X44268750Y-44259375D02*
X40418750Y-44259375D01*
X44268750Y-42259375D02*
X40418750Y-42259375D01*
%TO.C,R6*%
X36174375Y-41047936D02*
X36174375Y-41502064D01*
X37644375Y-41047936D02*
X37644375Y-41502064D01*
D15*
%TO.C,Q1*%
X31305500Y-60642500D02*
X41719500Y-60642500D01*
X41719500Y-76517500D02*
X31305500Y-76517500D01*
X41719500Y-60642500D02*
X41719500Y-73088500D01*
X41719500Y-74612500D02*
X41719500Y-76517500D01*
X31305500Y-60642500D02*
X31305500Y-73088500D01*
X31305500Y-74612500D02*
X31305500Y-76517500D01*
D16*
X31940500Y-61277500D02*
X41084500Y-61277500D01*
X41084500Y-69532500D02*
X41084500Y-61277500D01*
X41084500Y-69532500D02*
X31940500Y-69532500D01*
X31940500Y-61277500D02*
X31940500Y-69532500D01*
D15*
X38315900Y-73088500D02*
G75*
G03*
X38315900Y-73088500I-1803400J0D01*
G01*
D17*
X38675300Y-57848500D02*
X39433500Y-57848500D01*
X39433500Y-57848500D02*
X39433500Y-57205230D01*
X39433500Y-57205230D02*
X38675300Y-57205230D01*
X38675300Y-57205230D02*
X38675300Y-57848500D01*
G36*
X39433500Y-57848500D02*
G01*
X38675300Y-57848500D01*
X38675300Y-57205230D01*
X39433500Y-57205230D01*
X39433500Y-57848500D01*
G37*
X39433500Y-57848500D02*
X38675300Y-57848500D01*
X38675300Y-57205230D01*
X39433500Y-57205230D01*
X39433500Y-57848500D01*
X36131349Y-57848500D02*
X36893500Y-57848500D01*
X36893500Y-57848500D02*
X36893500Y-57211640D01*
X36893500Y-57211640D02*
X36131349Y-57211640D01*
X36131349Y-57211640D02*
X36131349Y-57848500D01*
G36*
X36893500Y-57848500D02*
G01*
X36131349Y-57848500D01*
X36131349Y-57211640D01*
X36893500Y-57211640D01*
X36893500Y-57848500D01*
G37*
X36893500Y-57848500D02*
X36131349Y-57848500D01*
X36131349Y-57211640D01*
X36893500Y-57211640D01*
X36893500Y-57848500D01*
X33590850Y-57848500D02*
X34353500Y-57848500D01*
X34353500Y-57848500D02*
X34353500Y-57212460D01*
X34353500Y-57212460D02*
X33590850Y-57212460D01*
X33590850Y-57212460D02*
X33590850Y-57848500D01*
G36*
X34353500Y-57848500D02*
G01*
X33590850Y-57848500D01*
X33590850Y-57212460D01*
X34353500Y-57212460D01*
X34353500Y-57848500D01*
G37*
X34353500Y-57848500D02*
X33590850Y-57848500D01*
X33590850Y-57212460D01*
X34353500Y-57212460D01*
X34353500Y-57848500D01*
X33335910Y-60642500D02*
X34607500Y-60642500D01*
X34607500Y-60642500D02*
X34607500Y-57846460D01*
X34607500Y-57846460D02*
X33335910Y-57846460D01*
X33335910Y-57846460D02*
X33335910Y-60642500D01*
G36*
X34607500Y-60642500D02*
G01*
X33335910Y-60642500D01*
X33335910Y-57846460D01*
X34607500Y-57846460D01*
X34607500Y-60642500D01*
G37*
X34607500Y-60642500D02*
X33335910Y-60642500D01*
X33335910Y-57846460D01*
X34607500Y-57846460D01*
X34607500Y-60642500D01*
X35877075Y-60642500D02*
X37147500Y-60642500D01*
X37147500Y-60642500D02*
X37147500Y-57845780D01*
X37147500Y-57845780D02*
X35877075Y-57845780D01*
X35877075Y-57845780D02*
X35877075Y-60642500D01*
G36*
X37147500Y-60642500D02*
G01*
X35877075Y-60642500D01*
X35877075Y-57845780D01*
X37147500Y-57845780D01*
X37147500Y-60642500D01*
G37*
X37147500Y-60642500D02*
X35877075Y-60642500D01*
X35877075Y-57845780D01*
X37147500Y-57845780D01*
X37147500Y-60642500D01*
X38418410Y-60642500D02*
X39687500Y-60642500D01*
X39687500Y-60642500D02*
X39687500Y-57846560D01*
X39687500Y-57846560D02*
X38418410Y-57846560D01*
X38418410Y-57846560D02*
X38418410Y-60642500D01*
G36*
X39687500Y-60642500D02*
G01*
X38418410Y-60642500D01*
X38418410Y-57846560D01*
X39687500Y-57846560D01*
X39687500Y-60642500D01*
G37*
X39687500Y-60642500D02*
X38418410Y-60642500D01*
X38418410Y-57846560D01*
X39687500Y-57846560D01*
X39687500Y-60642500D01*
D10*
%TO.C,D54*%
X235934375Y-23681250D02*
X235934375Y-19781250D01*
X237934375Y-23681250D02*
X237934375Y-19781250D01*
X237934375Y-23681250D02*
X235934375Y-23681250D01*
%TO.C,F1*%
X60927064Y-5043125D02*
X59722936Y-5043125D01*
X60927064Y-6863125D02*
X59722936Y-6863125D01*
D13*
%TO.C,U25*%
X289909375Y-9225000D02*
X289909375Y-9825000D01*
X291909375Y-9225000D02*
X291909375Y-9825000D01*
D14*
X290382331Y-7755000D02*
G75*
G03*
X290382331Y-7755000I-102956J0D01*
G01*
D13*
%TO.C,U23*%
X33131250Y7443750D02*
X33131250Y6843750D01*
X35131250Y7443750D02*
X35131250Y6843750D01*
D14*
X33604206Y8913750D02*
G75*
G03*
X33604206Y8913750I-102956J0D01*
G01*
D10*
%TO.C,D10*%
X12112500Y-79243750D02*
X12112500Y-75343750D01*
X12112500Y-79243750D02*
X10112500Y-79243750D01*
X10112500Y-79243750D02*
X10112500Y-75343750D01*
D13*
%TO.C,U11*%
X176021875Y-9225000D02*
X176021875Y-9825000D01*
X174021875Y-9225000D02*
X174021875Y-9825000D01*
D14*
X174494831Y-7755000D02*
G75*
G03*
X174494831Y-7755000I-102956J0D01*
G01*
D10*
%TO.C,D28*%
X128396875Y-41143750D02*
X126396875Y-41143750D01*
X128396875Y-41143750D02*
X128396875Y-37243750D01*
X126396875Y-41143750D02*
X126396875Y-37243750D01*
%TO.C,D61*%
X271271875Y-61781250D02*
X269271875Y-61781250D01*
X269271875Y-61781250D02*
X269271875Y-57881250D01*
X271271875Y-61781250D02*
X271271875Y-57881250D01*
%TO.C,C1*%
X54710000Y-26569998D02*
X54710000Y-27092502D01*
X53240000Y-26569998D02*
X53240000Y-27092502D01*
%TO.C,D48*%
X207359375Y-4631250D02*
X207359375Y-731250D01*
X209359375Y-4631250D02*
X207359375Y-4631250D01*
X209359375Y-4631250D02*
X209359375Y-731250D01*
D13*
%TO.C,U8*%
X218487500Y-9225000D02*
X218487500Y-9825000D01*
X216487500Y-9225000D02*
X216487500Y-9825000D01*
D14*
X216960456Y-7755000D02*
G75*
G03*
X216960456Y-7755000I-102956J0D01*
G01*
D13*
%TO.C,U12*%
X25193750Y-66375000D02*
X25193750Y-66975000D01*
X27193750Y-66375000D02*
X27193750Y-66975000D01*
D14*
X25666706Y-64905000D02*
G75*
G03*
X25666706Y-64905000I-102956J0D01*
G01*
D10*
%TO.C,D71*%
X295862500Y-80831250D02*
X295862500Y-76931250D01*
X297862500Y-80831250D02*
X295862500Y-80831250D01*
X297862500Y-80831250D02*
X297862500Y-76931250D01*
D13*
%TO.C,U14*%
X142271875Y-9225000D02*
X142271875Y-9825000D01*
X144271875Y-9225000D02*
X144271875Y-9825000D01*
D14*
X142744831Y-7755000D02*
G75*
G03*
X142744831Y-7755000I-102956J0D01*
G01*
D10*
%TO.C,D11*%
X56959375Y-4631250D02*
X54959375Y-4631250D01*
X56959375Y-4631250D02*
X56959375Y-731250D01*
X54959375Y-4631250D02*
X54959375Y-731250D01*
%TO.C,D35*%
X152209375Y-3043750D02*
X152209375Y856250D01*
X152209375Y-3043750D02*
X150209375Y-3043750D01*
X150209375Y-3043750D02*
X150209375Y856250D01*
%TO.C,D74*%
X305387500Y-4631250D02*
X305387500Y-731250D01*
X307387500Y-4631250D02*
X307387500Y-731250D01*
X307387500Y-4631250D02*
X305387500Y-4631250D01*
%TO.C,D58*%
X245459375Y-4631250D02*
X245459375Y-731250D01*
X247459375Y-4631250D02*
X247459375Y-731250D01*
X247459375Y-4631250D02*
X245459375Y-4631250D01*
%TO.C,D25*%
X114109375Y-80831250D02*
X112109375Y-80831250D01*
X112109375Y-80831250D02*
X112109375Y-76931250D01*
X114109375Y-80831250D02*
X114109375Y-76931250D01*
%TO.C,D60*%
X261746875Y-42731250D02*
X261746875Y-38831250D01*
X261746875Y-42731250D02*
X259746875Y-42731250D01*
X259746875Y-42731250D02*
X259746875Y-38831250D01*
%TO.C,D59*%
X256984375Y-22093750D02*
X254984375Y-22093750D01*
X256984375Y-22093750D02*
X256984375Y-18193750D01*
X254984375Y-22093750D02*
X254984375Y-18193750D01*
%TO.C,D14*%
X66468750Y-61781250D02*
X66468750Y-57881250D01*
X68468750Y-61781250D02*
X66468750Y-61781250D01*
X68468750Y-61781250D02*
X68468750Y-57881250D01*
%TO.C,D33*%
X147446875Y-42731250D02*
X145446875Y-42731250D01*
X147446875Y-42731250D02*
X147446875Y-38831250D01*
X145446875Y-42731250D02*
X145446875Y-38831250D01*
%TO.C,D13*%
X62103125Y-42731250D02*
X62103125Y-38831250D01*
X64103125Y-42731250D02*
X64103125Y-38831250D01*
X64103125Y-42731250D02*
X62103125Y-42731250D01*
%TO.C,C5*%
X43394998Y-38158750D02*
X43917502Y-38158750D01*
X43394998Y-39628750D02*
X43917502Y-39628750D01*
%TO.C,D70*%
X307387500Y-61781250D02*
X307387500Y-57881250D01*
X305387500Y-61781250D02*
X305387500Y-57881250D01*
X307387500Y-61781250D02*
X305387500Y-61781250D01*
%TO.C,R4*%
X27214564Y-36571250D02*
X26760436Y-36571250D01*
X27214564Y-38041250D02*
X26760436Y-38041250D01*
%TO.C,D1*%
X8937500Y-4631250D02*
X8937500Y-731250D01*
X8937500Y-4631250D02*
X6937500Y-4631250D01*
X6937500Y-4631250D02*
X6937500Y-731250D01*
%TO.C,D3*%
X8937500Y-42731250D02*
X6937500Y-42731250D01*
X6937500Y-42731250D02*
X6937500Y-38831250D01*
X8937500Y-42731250D02*
X8937500Y-38831250D01*
%TO.C,D41*%
X185546875Y-42731250D02*
X185546875Y-38831250D01*
X185546875Y-42731250D02*
X183546875Y-42731250D01*
X183546875Y-42731250D02*
X183546875Y-38831250D01*
%TO.C,D37*%
X166496875Y-41143750D02*
X166496875Y-37243750D01*
X166496875Y-41143750D02*
X164496875Y-41143750D01*
X164496875Y-41143750D02*
X164496875Y-37243750D01*
D13*
%TO.C,U6*%
X-5350000Y-47325000D02*
X-5350000Y-47925000D01*
X-7350000Y-47325000D02*
X-7350000Y-47925000D01*
D14*
X-6877044Y-45855000D02*
G75*
G03*
X-6877044Y-45855000I-102956J0D01*
G01*
D13*
%TO.C,U13*%
X319675000Y-66375000D02*
X319675000Y-66975000D01*
X321675000Y-66375000D02*
X321675000Y-66975000D01*
D14*
X320147956Y-64905000D02*
G75*
G03*
X320147956Y-64905000I-102956J0D01*
G01*
D10*
%TO.C,D2*%
X8937500Y-22093750D02*
X8937500Y-18193750D01*
X6937500Y-22093750D02*
X6937500Y-18193750D01*
X8937500Y-22093750D02*
X6937500Y-22093750D01*
%TO.C,D6*%
X12112500Y-3043750D02*
X10112500Y-3043750D01*
X12112500Y-3043750D02*
X12112500Y856250D01*
X10112500Y-3043750D02*
X10112500Y856250D01*
%TO.C,D36*%
X161734375Y-23681250D02*
X159734375Y-23681250D01*
X161734375Y-23681250D02*
X161734375Y-19781250D01*
X159734375Y-23681250D02*
X159734375Y-19781250D01*
%TO.C,D65*%
X280400000Y-41143750D02*
X280400000Y-37243750D01*
X278400000Y-41143750D02*
X278400000Y-37243750D01*
X280400000Y-41143750D02*
X278400000Y-41143750D01*
%TO.C,D8*%
X12112500Y-41143750D02*
X10112500Y-41143750D01*
X12112500Y-41143750D02*
X12112500Y-37243750D01*
X10112500Y-41143750D02*
X10112500Y-37243750D01*
%TO.C,D45*%
X199834375Y-23681250D02*
X197834375Y-23681250D01*
X197834375Y-23681250D02*
X197834375Y-19781250D01*
X199834375Y-23681250D02*
X199834375Y-19781250D01*
D13*
%TO.C,U3*%
X-7350000Y-28275000D02*
X-7350000Y-28875000D01*
X-5350000Y-28275000D02*
X-5350000Y-28875000D01*
D14*
X-6877044Y-26805000D02*
G75*
G03*
X-6877044Y-26805000I-102956J0D01*
G01*
D10*
%TO.C,D18*%
X90296875Y-41143750D02*
X88296875Y-41143750D01*
X90296875Y-41143750D02*
X90296875Y-37243750D01*
X88296875Y-41143750D02*
X88296875Y-37243750D01*
%TO.C,D16*%
X74009375Y-3043750D02*
X74009375Y856250D01*
X76009375Y-3043750D02*
X74009375Y-3043750D01*
X76009375Y-3043750D02*
X76009375Y856250D01*
D11*
%TO.C,J1*%
X85978125Y-5731250D02*
X83578125Y-5731250D01*
X87778125Y-10731250D02*
X87778125Y-6731250D01*
X83578125Y-11731250D02*
X85978125Y-11731250D01*
X83578125Y-10731250D02*
X83578125Y-11731250D01*
X83578125Y-5731250D02*
X83578125Y-6731250D01*
D10*
%TO.C,D31*%
X133159375Y-4631250D02*
X133159375Y-731250D01*
X131159375Y-4631250D02*
X131159375Y-731250D01*
X133159375Y-4631250D02*
X131159375Y-4631250D01*
%TO.C,D26*%
X114109375Y-3043750D02*
X114109375Y856250D01*
X112109375Y-3043750D02*
X112109375Y856250D01*
X114109375Y-3043750D02*
X112109375Y-3043750D01*
%TO.C,D20*%
X87518750Y-79243750D02*
X87518750Y-75343750D01*
X85518750Y-79243750D02*
X85518750Y-75343750D01*
X87518750Y-79243750D02*
X85518750Y-79243750D01*
%TO.C,D69*%
X283575000Y-42731250D02*
X283575000Y-38831250D01*
X283575000Y-42731250D02*
X281575000Y-42731250D01*
X281575000Y-42731250D02*
X281575000Y-38831250D01*
D13*
%TO.C,U18*%
X109728125Y-66375000D02*
X109728125Y-66975000D01*
X111728125Y-66375000D02*
X111728125Y-66975000D01*
D14*
X110201081Y-64905000D02*
G75*
G03*
X110201081Y-64905000I-102956J0D01*
G01*
D10*
%TO.C,C6*%
X47169375Y-24344998D02*
X47169375Y-24867502D01*
X45699375Y-24344998D02*
X45699375Y-24867502D01*
D13*
%TO.C,U4*%
X218487500Y-66375000D02*
X218487500Y-66975000D01*
X216487500Y-66375000D02*
X216487500Y-66975000D01*
D14*
X216960456Y-64905000D02*
G75*
G03*
X216960456Y-64905000I-102956J0D01*
G01*
D13*
%TO.C,U9*%
X-5350000Y-66375000D02*
X-5350000Y-66975000D01*
X-7350000Y-66375000D02*
X-7350000Y-66975000D01*
D14*
X-6877044Y-64905000D02*
G75*
G03*
X-6877044Y-64905000I-102956J0D01*
G01*
D13*
%TO.C,U22*%
X322071875Y-9225000D02*
X322071875Y-9825000D01*
X320071875Y-9225000D02*
X320071875Y-9825000D01*
D14*
X320544831Y-7755000D02*
G75*
G03*
X320544831Y-7755000I-102956J0D01*
G01*
D10*
%TO.C,D44*%
X188309375Y-3043750D02*
X188309375Y856250D01*
X190309375Y-3043750D02*
X188309375Y-3043750D01*
X190309375Y-3043750D02*
X190309375Y856250D01*
%TO.C,D15*%
X61721875Y-80831250D02*
X59721875Y-80831250D01*
X59721875Y-80831250D02*
X59721875Y-76931250D01*
X61721875Y-80831250D02*
X61721875Y-76931250D01*
%TO.C,D53*%
X226409375Y-3043750D02*
X226409375Y856250D01*
X228409375Y-3043750D02*
X228409375Y856250D01*
X228409375Y-3043750D02*
X226409375Y-3043750D01*
%TO.C,C3*%
X25341250Y-33995627D02*
X25341250Y-33473123D01*
X23871250Y-33995627D02*
X23871250Y-33473123D01*
%TO.C,D51*%
X233171875Y-61781250D02*
X231171875Y-61781250D01*
X233171875Y-61781250D02*
X233171875Y-57881250D01*
X231171875Y-61781250D02*
X231171875Y-57881250D01*
%TO.C,D24*%
X118871875Y-61781250D02*
X116871875Y-61781250D01*
X118871875Y-61781250D02*
X118871875Y-57881250D01*
X116871875Y-61781250D02*
X116871875Y-57881250D01*
%TO.C,D30*%
X153796875Y-79243750D02*
X153796875Y-75343750D01*
X151796875Y-79243750D02*
X151796875Y-75343750D01*
X153796875Y-79243750D02*
X151796875Y-79243750D01*
%TO.C,D49*%
X218884375Y-22093750D02*
X216884375Y-22093750D01*
X218884375Y-22093750D02*
X218884375Y-18193750D01*
X216884375Y-22093750D02*
X216884375Y-18193750D01*
%TO.C,Y1*%
X52800000Y-28581250D02*
X48800000Y-28581250D01*
X52800000Y-25281250D02*
X52800000Y-28581250D01*
%TO.C,D62*%
X292687500Y-79243750D02*
X292687500Y-75343750D01*
X294687500Y-79243750D02*
X294687500Y-75343750D01*
X294687500Y-79243750D02*
X292687500Y-79243750D01*
D13*
%TO.C,U26*%
X-6953125Y-9225000D02*
X-6953125Y-9825000D01*
X-4953125Y-9225000D02*
X-4953125Y-9825000D01*
D14*
X-6480169Y-7755000D02*
G75*
G03*
X-6480169Y-7755000I-102956J0D01*
G01*
D10*
%TO.C,D32*%
X142684375Y-22093750D02*
X142684375Y-18193750D01*
X140684375Y-22093750D02*
X140684375Y-18193750D01*
X142684375Y-22093750D02*
X140684375Y-22093750D01*
%TO.C,D22*%
X102584375Y-22093750D02*
X102584375Y-18193750D01*
X104584375Y-22093750D02*
X104584375Y-18193750D01*
X104584375Y-22093750D02*
X102584375Y-22093750D01*
D13*
%TO.C,U19*%
X319675000Y-28275000D02*
X319675000Y-28875000D01*
X321675000Y-28275000D02*
X321675000Y-28875000D01*
D14*
X320147956Y-26805000D02*
G75*
G03*
X320147956Y-26805000I-102956J0D01*
G01*
D10*
%TO.C,D57*%
X264509375Y-80831250D02*
X264509375Y-76931250D01*
X266509375Y-80831250D02*
X264509375Y-80831250D01*
X266509375Y-80831250D02*
X266509375Y-76931250D01*
%TO.C,D23*%
X109346875Y-42731250D02*
X109346875Y-38831250D01*
X107346875Y-42731250D02*
X107346875Y-38831250D01*
X109346875Y-42731250D02*
X107346875Y-42731250D01*
%TO.C,D63*%
X266509375Y-3043750D02*
X264509375Y-3043750D01*
X264509375Y-3043750D02*
X264509375Y856250D01*
X266509375Y-3043750D02*
X266509375Y856250D01*
%TO.C,D55*%
X240696875Y-41143750D02*
X240696875Y-37243750D01*
X242696875Y-41143750D02*
X240696875Y-41143750D01*
X242696875Y-41143750D02*
X242696875Y-37243750D01*
%TO.C,D17*%
X83534375Y-23681250D02*
X83534375Y-19781250D01*
X85534375Y-23681250D02*
X83534375Y-23681250D01*
X85534375Y-23681250D02*
X85534375Y-19781250D01*
%TO.C,D68*%
X294687500Y-22093750D02*
X292687500Y-22093750D01*
X292687500Y-22093750D02*
X292687500Y-18193750D01*
X294687500Y-22093750D02*
X294687500Y-18193750D01*
%TO.C,D38*%
X174021875Y-60193750D02*
X174021875Y-56293750D01*
X176021875Y-60193750D02*
X174021875Y-60193750D01*
X176021875Y-60193750D02*
X176021875Y-56293750D01*
%TO.C,C4*%
X35660000Y-14423123D02*
X35660000Y-14945627D01*
X34190000Y-14423123D02*
X34190000Y-14945627D01*
%TO.C,D7*%
X10112500Y-23681250D02*
X10112500Y-19781250D01*
X12112500Y-23681250D02*
X12112500Y-19781250D01*
X12112500Y-23681250D02*
X10112500Y-23681250D01*
%TO.C,D40*%
X178784375Y-22093750D02*
X178784375Y-18193750D01*
X180784375Y-22093750D02*
X178784375Y-22093750D01*
X180784375Y-22093750D02*
X180784375Y-18193750D01*
%TO.C,D29*%
X135921875Y-60193750D02*
X135921875Y-56293750D01*
X137921875Y-60193750D02*
X135921875Y-60193750D01*
X137921875Y-60193750D02*
X137921875Y-56293750D01*
%TO.C,D12*%
X61325000Y-22093750D02*
X61325000Y-18193750D01*
X61325000Y-22093750D02*
X59325000Y-22093750D01*
X59325000Y-22093750D02*
X59325000Y-18193750D01*
D13*
%TO.C,U15*%
X79184375Y-66375000D02*
X79184375Y-66975000D01*
X77184375Y-66375000D02*
X77184375Y-66975000D01*
D14*
X77657331Y-64905000D02*
G75*
G03*
X77657331Y-64905000I-102956J0D01*
G01*
D10*
%TO.C,D66*%
X304212500Y-60193750D02*
X304212500Y-56293750D01*
X302212500Y-60193750D02*
X302212500Y-56293750D01*
X304212500Y-60193750D02*
X302212500Y-60193750D01*
%TO.C,D27*%
X123634375Y-23681250D02*
X123634375Y-19781250D01*
X123634375Y-23681250D02*
X121634375Y-23681250D01*
X121634375Y-23681250D02*
X121634375Y-19781250D01*
%TO.C,C7*%
X27248752Y-18315000D02*
X26726248Y-18315000D01*
X27248752Y-19785000D02*
X26726248Y-19785000D01*
%TO.C,R5*%
X11220814Y-26643125D02*
X10766686Y-26643125D01*
X11220814Y-28113125D02*
X10766686Y-28113125D01*
%TO.C,D72*%
X302212500Y-3043750D02*
X302212500Y856250D01*
X304212500Y-3043750D02*
X304212500Y856250D01*
X304212500Y-3043750D02*
X302212500Y-3043750D01*
D13*
%TO.C,U17*%
X111728125Y-9225000D02*
X111728125Y-9825000D01*
X109728125Y-9225000D02*
X109728125Y-9825000D01*
D14*
X110201081Y-7755000D02*
G75*
G03*
X110201081Y-7755000I-102956J0D01*
G01*
D13*
%TO.C,U24*%
X176021875Y-66375000D02*
X176021875Y-66975000D01*
X174021875Y-66375000D02*
X174021875Y-66975000D01*
D14*
X174494831Y-64905000D02*
G75*
G03*
X174494831Y-64905000I-102956J0D01*
G01*
D10*
%TO.C,D47*%
X212121875Y-60193750D02*
X212121875Y-56293750D01*
X214121875Y-60193750D02*
X212121875Y-60193750D01*
X214121875Y-60193750D02*
X214121875Y-56293750D01*
%TO.C,D5*%
X8937500Y-80831250D02*
X6937500Y-80831250D01*
X8937500Y-80831250D02*
X8937500Y-76931250D01*
X6937500Y-80831250D02*
X6937500Y-76931250D01*
D13*
%TO.C,U20*%
X77184375Y7046875D02*
X77184375Y6446875D01*
X79184375Y7046875D02*
X79184375Y6446875D01*
D14*
X77657331Y8516875D02*
G75*
G03*
X77657331Y8516875I-102956J0D01*
G01*
D13*
%TO.C,U16*%
X319675000Y-47325000D02*
X319675000Y-47925000D01*
X321675000Y-47325000D02*
X321675000Y-47925000D01*
D14*
X320147956Y-45855000D02*
G75*
G03*
X320147956Y-45855000I-102956J0D01*
G01*
D11*
%TO.C,SW1*%
X35937500Y-615625D02*
X35937500Y4584375D01*
X30737500Y-615625D02*
X35937500Y-615625D01*
X35937500Y4584375D02*
X30737500Y4584375D01*
X30737500Y4584375D02*
X30737500Y-615625D01*
X34337500Y1984375D02*
G75*
G03*
X34337500Y1984375I-1000000J0D01*
G01*
D10*
%TO.C,D4*%
X8937500Y-61781250D02*
X6937500Y-61781250D01*
X8937500Y-61781250D02*
X8937500Y-57881250D01*
X6937500Y-61781250D02*
X6937500Y-57881250D01*
%TO.C,D64*%
X274034375Y-23681250D02*
X274034375Y-19781250D01*
X276034375Y-23681250D02*
X274034375Y-23681250D01*
X276034375Y-23681250D02*
X276034375Y-19781250D01*
%TO.C,D39*%
X169259375Y-4631250D02*
X169259375Y-731250D01*
X171259375Y-4631250D02*
X169259375Y-4631250D01*
X171259375Y-4631250D02*
X171259375Y-731250D01*
D13*
%TO.C,U7*%
X252206250Y-66375000D02*
X252206250Y-66975000D01*
X254206250Y-66375000D02*
X254206250Y-66975000D01*
D14*
X252679206Y-64905000D02*
G75*
G03*
X252679206Y-64905000I-102956J0D01*
G01*
D10*
%TO.C,D9*%
X12112500Y-60193750D02*
X12112500Y-56293750D01*
X12112500Y-60193750D02*
X10112500Y-60193750D01*
X10112500Y-60193750D02*
X10112500Y-56293750D01*
%TO.C,C2*%
X50911252Y-24888125D02*
X50388748Y-24888125D01*
X50911252Y-23418125D02*
X50388748Y-23418125D01*
%TO.C,D42*%
X195071875Y-61781250D02*
X193071875Y-61781250D01*
X195071875Y-61781250D02*
X195071875Y-57881250D01*
X193071875Y-61781250D02*
X193071875Y-57881250D01*
D13*
%TO.C,U21*%
X142271875Y-66375000D02*
X142271875Y-66975000D01*
X144271875Y-66375000D02*
X144271875Y-66975000D01*
D14*
X142744831Y-64905000D02*
G75*
G03*
X142744831Y-64905000I-102956J0D01*
G01*
D10*
%TO.C,D56*%
X252221875Y-60193750D02*
X250221875Y-60193750D01*
X252221875Y-60193750D02*
X252221875Y-56293750D01*
X250221875Y-60193750D02*
X250221875Y-56293750D01*
%TO.C,D73*%
X297862500Y-23681250D02*
X295862500Y-23681250D01*
X297862500Y-23681250D02*
X297862500Y-19781250D01*
X295862500Y-23681250D02*
X295862500Y-19781250D01*
%TO.C,D43*%
X200215625Y-80831250D02*
X200215625Y-76931250D01*
X202215625Y-80831250D02*
X202215625Y-76931250D01*
X202215625Y-80831250D02*
X200215625Y-80831250D01*
%TO.C,D46*%
X202596875Y-41143750D02*
X202596875Y-37243750D01*
X204596875Y-41143750D02*
X204596875Y-37243750D01*
X204596875Y-41143750D02*
X202596875Y-41143750D01*
%TO.C,D67*%
X285559375Y-4631250D02*
X283559375Y-4631250D01*
X285559375Y-4631250D02*
X285559375Y-731250D01*
X283559375Y-4631250D02*
X283559375Y-731250D01*
%TO.C,R1*%
X68092689Y-10603750D02*
X67638561Y-10603750D01*
X68092689Y-9133750D02*
X67638561Y-9133750D01*
D13*
%TO.C,U5*%
X254206250Y-9225000D02*
X254206250Y-9825000D01*
X252206250Y-9225000D02*
X252206250Y-9825000D01*
D14*
X252679206Y-7755000D02*
G75*
G03*
X252679206Y-7755000I-102956J0D01*
G01*
D10*
%TO.C,R2*%
X68092689Y-6858750D02*
X67638561Y-6858750D01*
X68092689Y-8328750D02*
X67638561Y-8328750D01*
%TO.C,D50*%
X221646875Y-42731250D02*
X221646875Y-38831250D01*
X223646875Y-42731250D02*
X221646875Y-42731250D01*
X223646875Y-42731250D02*
X223646875Y-38831250D01*
%TO.C,D34*%
X154971875Y-61781250D02*
X154971875Y-57881250D01*
X156971875Y-61781250D02*
X154971875Y-61781250D01*
X156971875Y-61781250D02*
X156971875Y-57881250D01*
%TO.C,D21*%
X94265625Y-4631250D02*
X94265625Y-731250D01*
X92265625Y-4631250D02*
X92265625Y-731250D01*
X94265625Y-4631250D02*
X92265625Y-4631250D01*
%TO.C,U2*%
X73449375Y-8731250D02*
X73449375Y-9531250D01*
X76569375Y-8731250D02*
X76569375Y-10531250D01*
X73449375Y-8731250D02*
X73449375Y-7931250D01*
X76569375Y-8731250D02*
X76569375Y-7931250D01*
D11*
%TO.C,U1*%
X30721875Y-23003125D02*
X30721875Y-21728125D01*
X40496875Y-23003125D02*
X40496875Y-23678125D01*
X40496875Y-33353125D02*
X39821875Y-33353125D01*
X30146875Y-33353125D02*
X30821875Y-33353125D01*
X40496875Y-33353125D02*
X40496875Y-32678125D01*
X30146875Y-23003125D02*
X30146875Y-23678125D01*
X30146875Y-23003125D02*
X30721875Y-23003125D01*
X30146875Y-33353125D02*
X30146875Y-32678125D01*
X40496875Y-23003125D02*
X39821875Y-23003125D01*
D10*
%TO.C,D52*%
X235934375Y-79243750D02*
X235934375Y-75343750D01*
X237934375Y-79243750D02*
X235934375Y-79243750D01*
X237934375Y-79243750D02*
X237934375Y-75343750D01*
D13*
%TO.C,U10*%
X291909375Y-66375000D02*
X291909375Y-66975000D01*
X289909375Y-66375000D02*
X289909375Y-66975000D01*
D14*
X290382331Y-64905000D02*
G75*
G03*
X290382331Y-64905000I-102956J0D01*
G01*
D10*
%TO.C,R3*%
X38666686Y-3233750D02*
X39120814Y-3233750D01*
X38666686Y-4703750D02*
X39120814Y-4703750D01*
%TO.C,D19*%
X97821875Y-60193750D02*
X97821875Y-56293750D01*
X99821875Y-60193750D02*
X97821875Y-60193750D01*
X99821875Y-60193750D02*
X99821875Y-56293750D01*
%TD*%
%LPC*%
D18*
%TO.C,J3*%
X66484375Y-19446875D03*
D19*
X64484375Y-19446875D03*
%TD*%
D20*
%TO.C,D75*%
X43468750Y-43259375D03*
X40668750Y-43259375D03*
%TD*%
D21*
%TO.C,MX13*%
X49688750Y-38100000D03*
X59848750Y-38100000D03*
D22*
X54768750Y-38100000D03*
D23*
X50958750Y-35560000D03*
X57308750Y-33020000D03*
%TD*%
D24*
%TO.C,R6*%
X36909375Y-40362500D03*
X36909375Y-42187500D03*
%TD*%
D25*
%TO.C,Q1*%
X33972500Y-55562500D03*
X36512500Y-55562500D03*
X39052500Y-55562500D03*
D26*
X36512500Y-73088500D03*
%TD*%
D21*
%TO.C,MX47*%
X209867500Y-57150000D03*
D22*
X204787500Y-57150000D03*
D21*
X199707500Y-57150000D03*
D23*
X200977500Y-54610000D03*
X207327500Y-52070000D03*
%TD*%
D22*
%TO.C,MX40*%
X171450000Y-19050000D03*
D21*
X166370000Y-19050000D03*
X176530000Y-19050000D03*
D23*
X167640000Y-16510000D03*
X173990000Y-13970000D03*
%TD*%
D21*
%TO.C,MX23*%
X105092500Y-38100000D03*
D22*
X100012500Y-38100000D03*
D21*
X94932500Y-38100000D03*
D23*
X96202500Y-35560000D03*
X102552500Y-33020000D03*
%TD*%
D21*
%TO.C,MX32*%
X128270000Y-19050000D03*
X138430000Y-19050000D03*
D22*
X133350000Y-19050000D03*
D23*
X129540000Y-16510000D03*
X135890000Y-13970000D03*
%TD*%
D21*
%TO.C,MX64*%
X261620000Y-19050000D03*
D22*
X266700000Y-19050000D03*
D21*
X271780000Y-19050000D03*
D23*
X262890000Y-16510000D03*
X269240000Y-13970000D03*
%TD*%
D21*
%TO.C,MX9*%
X24130000Y-57150000D03*
D22*
X19050000Y-57150000D03*
D21*
X13970000Y-57150000D03*
D23*
X15240000Y-54610000D03*
X21590000Y-52070000D03*
%TD*%
D27*
%TO.C,MX14*%
X71437500Y-50165000D03*
D21*
X54451250Y-57150000D03*
D22*
X71437500Y-65405000D03*
X59531250Y-57150000D03*
D27*
X47625000Y-50165000D03*
D22*
X47625000Y-65405000D03*
D21*
X64611250Y-57150000D03*
D23*
X55721250Y-54610000D03*
X62071250Y-52070000D03*
%TD*%
D21*
%TO.C,MX48*%
X194945000Y0D03*
X205105000Y0D03*
D22*
X200025000Y0D03*
D23*
X196215000Y2540000D03*
X202565000Y5080000D03*
%TD*%
D21*
%TO.C,MX72*%
X290195000Y0D03*
X300355000Y0D03*
D22*
X295275000Y0D03*
D23*
X291465000Y2540000D03*
X297815000Y5080000D03*
%TD*%
D21*
%TO.C,MX42*%
X190817500Y-57150000D03*
X180657500Y-57150000D03*
D22*
X185737500Y-57150000D03*
D23*
X181927500Y-54610000D03*
X188277500Y-52070000D03*
%TD*%
D21*
%TO.C,MX44*%
X175895000Y0D03*
D22*
X180975000Y0D03*
D21*
X186055000Y0D03*
D23*
X177165000Y2540000D03*
X183515000Y5080000D03*
%TD*%
D22*
%TO.C,MX73*%
X309562500Y-19050000D03*
D21*
X314642500Y-19050000D03*
X304482500Y-19050000D03*
D23*
X305752500Y-16510000D03*
X312102500Y-13970000D03*
%TD*%
D21*
%TO.C,MX1*%
X5080000Y0D03*
X-5080000Y0D03*
D22*
X0Y0D03*
D23*
X-3810000Y2540000D03*
X2540000Y5080000D03*
%TD*%
D21*
%TO.C,MX17*%
X81280000Y-19050000D03*
D22*
X76200000Y-19050000D03*
D21*
X71120000Y-19050000D03*
D23*
X72390000Y-16510000D03*
X78740000Y-13970000D03*
%TD*%
D21*
%TO.C,MX21*%
X80645000Y0D03*
X90805000Y0D03*
D22*
X85725000Y0D03*
D23*
X81915000Y2540000D03*
X88265000Y5080000D03*
%TD*%
D21*
%TO.C,MX57*%
X252095000Y-76200000D03*
D22*
X257175000Y-76200000D03*
D21*
X262255000Y-76200000D03*
D23*
X253365000Y-73660000D03*
X259715000Y-71120000D03*
%TD*%
D21*
%TO.C,MX60*%
X247332500Y-38100000D03*
X257492500Y-38100000D03*
D22*
X252412500Y-38100000D03*
D23*
X248602500Y-35560000D03*
X254952500Y-33020000D03*
%TD*%
D21*
%TO.C,MX15*%
X47307500Y-76200000D03*
D22*
X52387500Y-76200000D03*
D21*
X57467500Y-76200000D03*
D23*
X48577500Y-73660000D03*
X54927500Y-71120000D03*
%TD*%
D21*
%TO.C,MX16*%
X71755000Y0D03*
X61595000Y0D03*
D22*
X66675000Y0D03*
D23*
X62865000Y2540000D03*
X69215000Y5080000D03*
%TD*%
D22*
%TO.C,MX65*%
X271462500Y-38100000D03*
D21*
X276542500Y-38100000D03*
X266382500Y-38100000D03*
D23*
X267652500Y-35560000D03*
X274002500Y-33020000D03*
%TD*%
D21*
%TO.C,MX6*%
X13970000Y0D03*
D22*
X19050000Y0D03*
D21*
X24130000Y0D03*
D23*
X15240000Y2540000D03*
X21590000Y5080000D03*
%TD*%
D27*
%TO.C,MX43*%
X180975000Y-83185000D03*
D21*
X197961250Y-76200000D03*
X187801250Y-76200000D03*
D22*
X180975000Y-67945000D03*
D27*
X204787500Y-83185000D03*
D22*
X192881250Y-76200000D03*
X204787500Y-67945000D03*
D23*
X189071250Y-73660000D03*
X195421250Y-71120000D03*
%TD*%
D22*
%TO.C,MX52*%
X228600000Y-76200000D03*
D21*
X233680000Y-76200000D03*
X223520000Y-76200000D03*
D23*
X224790000Y-73660000D03*
X231140000Y-71120000D03*
%TD*%
D21*
%TO.C,MX8*%
X24130000Y-38100000D03*
D22*
X19050000Y-38100000D03*
D21*
X13970000Y-38100000D03*
D23*
X15240000Y-35560000D03*
X21590000Y-33020000D03*
%TD*%
D22*
%TO.C,MX4*%
X0Y-57150000D03*
D21*
X-5080000Y-57150000D03*
X5080000Y-57150000D03*
D23*
X-3810000Y-54610000D03*
X2540000Y-52070000D03*
%TD*%
D21*
%TO.C,MX30*%
X140176250Y-76200000D03*
D27*
X133350000Y-83185000D03*
X157162500Y-83185000D03*
D22*
X133350000Y-67945000D03*
X157162500Y-67945000D03*
D21*
X150336250Y-76200000D03*
D22*
X145256250Y-76200000D03*
D23*
X141446250Y-73660000D03*
X147796250Y-71120000D03*
%TD*%
D21*
%TO.C,MX53*%
X213995000Y0D03*
X224155000Y0D03*
D22*
X219075000Y0D03*
D23*
X215265000Y2540000D03*
X221615000Y5080000D03*
%TD*%
D21*
%TO.C,MX11*%
X52705000Y0D03*
D22*
X47625000Y0D03*
D21*
X42545000Y0D03*
D23*
X43815000Y2540000D03*
X50165000Y5080000D03*
%TD*%
D21*
%TO.C,MX41*%
X171132500Y-38100000D03*
D22*
X176212500Y-38100000D03*
D21*
X181292500Y-38100000D03*
D23*
X172402500Y-35560000D03*
X178752500Y-33020000D03*
%TD*%
D22*
%TO.C,MX5*%
X0Y-76200000D03*
D21*
X5080000Y-76200000D03*
X-5080000Y-76200000D03*
D23*
X-3810000Y-73660000D03*
X2540000Y-71120000D03*
%TD*%
D22*
%TO.C,MX68*%
X285750000Y-19050000D03*
D21*
X280670000Y-19050000D03*
X290830000Y-19050000D03*
D23*
X281940000Y-16510000D03*
X288290000Y-13970000D03*
%TD*%
D22*
%TO.C,MX37*%
X157162500Y-38100000D03*
D21*
X162242500Y-38100000D03*
X152082500Y-38100000D03*
D23*
X153352500Y-35560000D03*
X159702500Y-33020000D03*
%TD*%
D22*
%TO.C,MX25*%
X104775000Y-76200000D03*
D21*
X99695000Y-76200000D03*
X109855000Y-76200000D03*
D23*
X100965000Y-73660000D03*
X107315000Y-71120000D03*
%TD*%
D22*
%TO.C,MX7*%
X19050000Y-19050000D03*
D21*
X13970000Y-19050000D03*
X24130000Y-19050000D03*
D23*
X15240000Y-16510000D03*
X21590000Y-13970000D03*
%TD*%
D21*
%TO.C,MX33*%
X133032500Y-38100000D03*
X143192500Y-38100000D03*
D22*
X138112500Y-38100000D03*
D23*
X134302500Y-35560000D03*
X140652500Y-33020000D03*
%TD*%
D21*
%TO.C,MX35*%
X147955000Y0D03*
D22*
X142875000Y0D03*
D21*
X137795000Y0D03*
D23*
X139065000Y2540000D03*
X145415000Y5080000D03*
%TD*%
D21*
%TO.C,MX22*%
X100330000Y-19050000D03*
X90170000Y-19050000D03*
D22*
X95250000Y-19050000D03*
D23*
X91440000Y-16510000D03*
X97790000Y-13970000D03*
%TD*%
D21*
%TO.C,MX66*%
X283051250Y-57150000D03*
D22*
X288131250Y-57150000D03*
D21*
X293211250Y-57150000D03*
D23*
X284321250Y-54610000D03*
X290671250Y-52070000D03*
%TD*%
D21*
%TO.C,MX58*%
X233045000Y0D03*
D22*
X238125000Y0D03*
D21*
X243205000Y0D03*
D23*
X234315000Y2540000D03*
X240665000Y5080000D03*
%TD*%
D22*
%TO.C,MX63*%
X257175000Y0D03*
D21*
X252095000Y0D03*
X262255000Y0D03*
D23*
X253365000Y2540000D03*
X259715000Y5080000D03*
%TD*%
D22*
%TO.C,MX71*%
X309562500Y-76200000D03*
D21*
X314642500Y-76200000D03*
X304482500Y-76200000D03*
D23*
X305752500Y-73660000D03*
X312102500Y-71120000D03*
%TD*%
D21*
%TO.C,MX34*%
X152717500Y-57150000D03*
X142557500Y-57150000D03*
D22*
X147637500Y-57150000D03*
D23*
X143827500Y-54610000D03*
X150177500Y-52070000D03*
%TD*%
D21*
%TO.C,MX18*%
X75882500Y-38100000D03*
X86042500Y-38100000D03*
D22*
X80962500Y-38100000D03*
D23*
X77152500Y-35560000D03*
X83502500Y-33020000D03*
%TD*%
D22*
%TO.C,MX55*%
X233362500Y-38100000D03*
D21*
X228282500Y-38100000D03*
X238442500Y-38100000D03*
D23*
X229552500Y-35560000D03*
X235902500Y-33020000D03*
%TD*%
D22*
%TO.C,MX28*%
X119062500Y-38100000D03*
D21*
X113982500Y-38100000D03*
X124142500Y-38100000D03*
D23*
X115252500Y-35560000D03*
X121602500Y-33020000D03*
%TD*%
D22*
%TO.C,MX46*%
X195262500Y-38100000D03*
D21*
X190182500Y-38100000D03*
X200342500Y-38100000D03*
D23*
X191452500Y-35560000D03*
X197802500Y-33020000D03*
%TD*%
D22*
%TO.C,MX36*%
X152400000Y-19050000D03*
D21*
X157480000Y-19050000D03*
X147320000Y-19050000D03*
D23*
X148590000Y-16510000D03*
X154940000Y-13970000D03*
%TD*%
D21*
%TO.C,MX54*%
X233680000Y-19050000D03*
D22*
X228600000Y-19050000D03*
D21*
X223520000Y-19050000D03*
D23*
X224790000Y-16510000D03*
X231140000Y-13970000D03*
%TD*%
D21*
%TO.C,MX56*%
X247967500Y-57150000D03*
D22*
X242887500Y-57150000D03*
D21*
X237807500Y-57150000D03*
D23*
X239077500Y-54610000D03*
X245427500Y-52070000D03*
%TD*%
D21*
%TO.C,MX61*%
X267017500Y-57150000D03*
D22*
X261937500Y-57150000D03*
D21*
X256857500Y-57150000D03*
D23*
X258127500Y-54610000D03*
X264477500Y-52070000D03*
%TD*%
D21*
%TO.C,MX3*%
X-5080000Y-38100000D03*
D22*
X0Y-38100000D03*
D21*
X5080000Y-38100000D03*
D23*
X-3810000Y-35560000D03*
X2540000Y-33020000D03*
%TD*%
D22*
%TO.C,MX62*%
X283368750Y-76200000D03*
D21*
X278288750Y-76200000D03*
X288448750Y-76200000D03*
D23*
X279558750Y-73660000D03*
X285908750Y-71120000D03*
%TD*%
D22*
%TO.C,MX50*%
X214312500Y-38100000D03*
D21*
X209232500Y-38100000D03*
X219392500Y-38100000D03*
D23*
X210502500Y-35560000D03*
X216852500Y-33020000D03*
%TD*%
D21*
%TO.C,MX74*%
X309245000Y0D03*
X319405000Y0D03*
D22*
X314325000Y0D03*
D23*
X310515000Y2540000D03*
X316865000Y5080000D03*
%TD*%
D22*
%TO.C,MX26*%
X104775000Y0D03*
D21*
X99695000Y0D03*
X109855000Y0D03*
D23*
X100965000Y2540000D03*
X107315000Y5080000D03*
%TD*%
D21*
%TO.C,MX59*%
X252730000Y-19050000D03*
D22*
X247650000Y-19050000D03*
D21*
X242570000Y-19050000D03*
D23*
X243840000Y-16510000D03*
X250190000Y-13970000D03*
%TD*%
D21*
%TO.C,MX24*%
X104457500Y-57150000D03*
D22*
X109537500Y-57150000D03*
D21*
X114617500Y-57150000D03*
D23*
X105727500Y-54610000D03*
X112077500Y-52070000D03*
%TD*%
D21*
%TO.C,MX45*%
X185420000Y-19050000D03*
X195580000Y-19050000D03*
D22*
X190500000Y-19050000D03*
D23*
X186690000Y-16510000D03*
X193040000Y-13970000D03*
%TD*%
D22*
%TO.C,MX69*%
X314325000Y-46355000D03*
X302418750Y-38100000D03*
X290512500Y-46355000D03*
D27*
X290512500Y-31115000D03*
D21*
X297338750Y-38100000D03*
D27*
X314325000Y-31115000D03*
D21*
X307498750Y-38100000D03*
D23*
X298608750Y-35560000D03*
X304958750Y-33020000D03*
%TD*%
D22*
%TO.C,MX70*%
X314325000Y-57150000D03*
D21*
X319405000Y-57150000D03*
X309245000Y-57150000D03*
D23*
X310515000Y-54610000D03*
X316865000Y-52070000D03*
%TD*%
D22*
%TO.C,MX29*%
X128587500Y-57150000D03*
D21*
X123507500Y-57150000D03*
X133667500Y-57150000D03*
D23*
X124777500Y-54610000D03*
X131127500Y-52070000D03*
%TD*%
D21*
%TO.C,MX12*%
X57467500Y-19050000D03*
X47307500Y-19050000D03*
D22*
X52387500Y-19050000D03*
D23*
X48577500Y-16510000D03*
X54927500Y-13970000D03*
%TD*%
D22*
%TO.C,MX38*%
X166687500Y-57150000D03*
D21*
X171767500Y-57150000D03*
X161607500Y-57150000D03*
D23*
X162877500Y-54610000D03*
X169227500Y-52070000D03*
%TD*%
D21*
%TO.C,MX2*%
X-5080000Y-19050000D03*
X5080000Y-19050000D03*
D22*
X0Y-19050000D03*
D23*
X-3810000Y-16510000D03*
X2540000Y-13970000D03*
%TD*%
D22*
%TO.C,MX10*%
X19050000Y-76200000D03*
D21*
X13970000Y-76200000D03*
X24130000Y-76200000D03*
D23*
X15240000Y-73660000D03*
X21590000Y-71120000D03*
%TD*%
D22*
%TO.C,MX31*%
X123825000Y0D03*
D21*
X118745000Y0D03*
X128905000Y0D03*
D23*
X120015000Y2540000D03*
X126365000Y5080000D03*
%TD*%
D21*
%TO.C,MX51*%
X218757500Y-57150000D03*
D22*
X223837500Y-57150000D03*
D21*
X228917500Y-57150000D03*
D23*
X220027500Y-54610000D03*
X226377500Y-52070000D03*
%TD*%
D21*
%TO.C,MX19*%
X95567500Y-57150000D03*
X85407500Y-57150000D03*
D22*
X90487500Y-57150000D03*
D23*
X86677500Y-54610000D03*
X93027500Y-52070000D03*
%TD*%
D22*
%TO.C,MX27*%
X114300000Y-19050000D03*
D21*
X109220000Y-19050000D03*
X119380000Y-19050000D03*
D23*
X110490000Y-16510000D03*
X116840000Y-13970000D03*
%TD*%
D21*
%TO.C,MX39*%
X167005000Y0D03*
D22*
X161925000Y0D03*
D21*
X156845000Y0D03*
D23*
X158115000Y2540000D03*
X164465000Y5080000D03*
%TD*%
D22*
%TO.C,MX67*%
X276225000Y0D03*
D21*
X281305000Y0D03*
X271145000Y0D03*
D23*
X272415000Y2540000D03*
X278765000Y5080000D03*
%TD*%
D21*
%TO.C,MX49*%
X204470000Y-19050000D03*
D22*
X209550000Y-19050000D03*
D21*
X214630000Y-19050000D03*
D23*
X205740000Y-16510000D03*
X212090000Y-13970000D03*
%TD*%
D22*
%TO.C,MX20*%
X78581250Y-76200000D03*
D21*
X73501250Y-76200000D03*
X83661250Y-76200000D03*
D23*
X74771250Y-73660000D03*
X81121250Y-71120000D03*
%TD*%
D28*
%TO.C,D54*%
X236934375Y-23081250D03*
X236934375Y-19781250D03*
%TD*%
D29*
%TO.C,F1*%
X61725000Y-5953125D03*
X58925000Y-5953125D03*
%TD*%
D30*
%TO.C,U25*%
X290359375Y-8610000D03*
X291459375Y-8610000D03*
X291459375Y-10440000D03*
X290359375Y-10440000D03*
%TD*%
%TO.C,U23*%
X33581250Y8058750D03*
X34681250Y8058750D03*
X34681250Y6228750D03*
X33581250Y6228750D03*
%TD*%
D28*
%TO.C,D10*%
X11112500Y-78643750D03*
X11112500Y-75343750D03*
%TD*%
D30*
%TO.C,U11*%
X174471875Y-8610000D03*
X175571875Y-8610000D03*
X175571875Y-10440000D03*
X174471875Y-10440000D03*
%TD*%
D28*
%TO.C,D28*%
X127396875Y-40543750D03*
X127396875Y-37243750D03*
%TD*%
%TO.C,D61*%
X270271875Y-61181250D03*
X270271875Y-57881250D03*
%TD*%
D31*
%TO.C,C1*%
X53975000Y-25881250D03*
X53975000Y-27781250D03*
%TD*%
D28*
%TO.C,D48*%
X208359375Y-4031250D03*
X208359375Y-731250D03*
%TD*%
D30*
%TO.C,U8*%
X216937500Y-8610000D03*
X218037500Y-8610000D03*
X218037500Y-10440000D03*
X216937500Y-10440000D03*
%TD*%
%TO.C,U12*%
X25643750Y-65760000D03*
X26743750Y-65760000D03*
X26743750Y-67590000D03*
X25643750Y-67590000D03*
%TD*%
D28*
%TO.C,D71*%
X296862500Y-80231250D03*
X296862500Y-76931250D03*
%TD*%
D30*
%TO.C,U14*%
X142721875Y-8610000D03*
X143821875Y-8610000D03*
X143821875Y-10440000D03*
X142721875Y-10440000D03*
%TD*%
D28*
%TO.C,D11*%
X55959375Y-4031250D03*
X55959375Y-731250D03*
%TD*%
%TO.C,D35*%
X151209375Y-2443750D03*
X151209375Y856250D03*
%TD*%
%TO.C,D74*%
X306387500Y-4031250D03*
X306387500Y-731250D03*
%TD*%
%TO.C,D58*%
X246459375Y-4031250D03*
X246459375Y-731250D03*
%TD*%
%TO.C,D25*%
X113109375Y-80231250D03*
X113109375Y-76931250D03*
%TD*%
%TO.C,D60*%
X260746875Y-42131250D03*
X260746875Y-38831250D03*
%TD*%
%TO.C,D59*%
X255984375Y-21493750D03*
X255984375Y-18193750D03*
%TD*%
%TO.C,D14*%
X67468750Y-61181250D03*
X67468750Y-57881250D03*
%TD*%
%TO.C,D33*%
X146446875Y-42131250D03*
X146446875Y-38831250D03*
%TD*%
%TO.C,D13*%
X63103125Y-42131250D03*
X63103125Y-38831250D03*
%TD*%
D32*
%TO.C,C5*%
X42706250Y-38893750D03*
X44606250Y-38893750D03*
%TD*%
D28*
%TO.C,D70*%
X306387500Y-61181250D03*
X306387500Y-57881250D03*
%TD*%
D33*
%TO.C,R4*%
X27900000Y-37306250D03*
X26075000Y-37306250D03*
%TD*%
D28*
%TO.C,D1*%
X7937500Y-4031250D03*
X7937500Y-731250D03*
%TD*%
%TO.C,D3*%
X7937500Y-42131250D03*
X7937500Y-38831250D03*
%TD*%
%TO.C,D41*%
X184546875Y-42131250D03*
X184546875Y-38831250D03*
%TD*%
%TO.C,D37*%
X165496875Y-40543750D03*
X165496875Y-37243750D03*
%TD*%
D30*
%TO.C,U6*%
X-6900000Y-46710000D03*
X-5800000Y-46710000D03*
X-5800000Y-48540000D03*
X-6900000Y-48540000D03*
%TD*%
%TO.C,U13*%
X320125000Y-65760000D03*
X321225000Y-65760000D03*
X321225000Y-67590000D03*
X320125000Y-67590000D03*
%TD*%
D28*
%TO.C,D2*%
X7937500Y-21493750D03*
X7937500Y-18193750D03*
%TD*%
%TO.C,D6*%
X11112500Y-2443750D03*
X11112500Y856250D03*
%TD*%
%TO.C,D36*%
X160734375Y-23081250D03*
X160734375Y-19781250D03*
%TD*%
%TO.C,D65*%
X279400000Y-40543750D03*
X279400000Y-37243750D03*
%TD*%
%TO.C,D8*%
X11112500Y-40543750D03*
X11112500Y-37243750D03*
%TD*%
%TO.C,D45*%
X198834375Y-23081250D03*
X198834375Y-19781250D03*
%TD*%
D30*
%TO.C,U3*%
X-6900000Y-27660000D03*
X-5800000Y-27660000D03*
X-5800000Y-29490000D03*
X-6900000Y-29490000D03*
%TD*%
D28*
%TO.C,D18*%
X89296875Y-40543750D03*
X89296875Y-37243750D03*
%TD*%
D34*
%TO.C,J2*%
X24447500Y-10715625D03*
X26987500Y-10715625D03*
X24447500Y-8175625D03*
X26987500Y-8175625D03*
X24447500Y-5635625D03*
D35*
X26987500Y-5635625D03*
%TD*%
D28*
%TO.C,D16*%
X75009375Y-2443750D03*
X75009375Y856250D03*
%TD*%
D36*
%TO.C,J1*%
X87078125Y-11531250D03*
X87078125Y-5931250D03*
D37*
X83203125Y-7231250D03*
X83203125Y-8231250D03*
X83203125Y-9231250D03*
X83203125Y-10231250D03*
%TD*%
D28*
%TO.C,D31*%
X132159375Y-4031250D03*
X132159375Y-731250D03*
%TD*%
%TO.C,D26*%
X113109375Y-2443750D03*
X113109375Y856250D03*
%TD*%
%TO.C,D20*%
X86518750Y-78643750D03*
X86518750Y-75343750D03*
%TD*%
%TO.C,D69*%
X282575000Y-42131250D03*
X282575000Y-38831250D03*
%TD*%
D30*
%TO.C,U18*%
X110178125Y-65760000D03*
X111278125Y-65760000D03*
X111278125Y-67590000D03*
X110178125Y-67590000D03*
%TD*%
D31*
%TO.C,C6*%
X46434375Y-23656250D03*
X46434375Y-25556250D03*
%TD*%
D30*
%TO.C,U4*%
X216937500Y-65760000D03*
X218037500Y-65760000D03*
X218037500Y-67590000D03*
X216937500Y-67590000D03*
%TD*%
%TO.C,U9*%
X-6900000Y-65760000D03*
X-5800000Y-65760000D03*
X-5800000Y-67590000D03*
X-6900000Y-67590000D03*
%TD*%
%TO.C,U22*%
X320521875Y-8610000D03*
X321621875Y-8610000D03*
X321621875Y-10440000D03*
X320521875Y-10440000D03*
%TD*%
D28*
%TO.C,D44*%
X189309375Y-2443750D03*
X189309375Y856250D03*
%TD*%
%TO.C,D15*%
X60721875Y-80231250D03*
X60721875Y-76931250D03*
%TD*%
%TO.C,D53*%
X227409375Y-2443750D03*
X227409375Y856250D03*
%TD*%
D38*
%TO.C,C3*%
X24606250Y-34684375D03*
X24606250Y-32784375D03*
%TD*%
D28*
%TO.C,D51*%
X232171875Y-61181250D03*
X232171875Y-57881250D03*
%TD*%
%TO.C,D24*%
X117871875Y-61181250D03*
X117871875Y-57881250D03*
%TD*%
%TO.C,D30*%
X152796875Y-78643750D03*
X152796875Y-75343750D03*
%TD*%
%TO.C,D49*%
X217884375Y-21493750D03*
X217884375Y-18193750D03*
%TD*%
D39*
%TO.C,Y1*%
X51900000Y-27781250D03*
X49700000Y-27781250D03*
X49700000Y-26081250D03*
X51900000Y-26081250D03*
%TD*%
D28*
%TO.C,D62*%
X293687500Y-78643750D03*
X293687500Y-75343750D03*
%TD*%
D30*
%TO.C,U26*%
X-6503125Y-8610000D03*
X-5403125Y-8610000D03*
X-5403125Y-10440000D03*
X-6503125Y-10440000D03*
%TD*%
D28*
%TO.C,D32*%
X141684375Y-21493750D03*
X141684375Y-18193750D03*
%TD*%
%TO.C,D22*%
X103584375Y-21493750D03*
X103584375Y-18193750D03*
%TD*%
D30*
%TO.C,U19*%
X320125000Y-27660000D03*
X321225000Y-27660000D03*
X321225000Y-29490000D03*
X320125000Y-29490000D03*
%TD*%
D28*
%TO.C,D57*%
X265509375Y-80231250D03*
X265509375Y-76931250D03*
%TD*%
%TO.C,D23*%
X108346875Y-42131250D03*
X108346875Y-38831250D03*
%TD*%
%TO.C,D63*%
X265509375Y-2443750D03*
X265509375Y856250D03*
%TD*%
%TO.C,D55*%
X241696875Y-40543750D03*
X241696875Y-37243750D03*
%TD*%
%TO.C,D17*%
X84534375Y-23081250D03*
X84534375Y-19781250D03*
%TD*%
%TO.C,D68*%
X293687500Y-21493750D03*
X293687500Y-18193750D03*
%TD*%
%TO.C,D38*%
X175021875Y-59593750D03*
X175021875Y-56293750D03*
%TD*%
D31*
%TO.C,C4*%
X34925000Y-13734375D03*
X34925000Y-15634375D03*
%TD*%
D28*
%TO.C,D7*%
X11112500Y-23081250D03*
X11112500Y-19781250D03*
%TD*%
%TO.C,D40*%
X179784375Y-21493750D03*
X179784375Y-18193750D03*
%TD*%
%TO.C,D29*%
X136921875Y-59593750D03*
X136921875Y-56293750D03*
%TD*%
%TO.C,D12*%
X60325000Y-21493750D03*
X60325000Y-18193750D03*
%TD*%
D30*
%TO.C,U15*%
X77634375Y-65760000D03*
X78734375Y-65760000D03*
X78734375Y-67590000D03*
X77634375Y-67590000D03*
%TD*%
D28*
%TO.C,D66*%
X303212500Y-59593750D03*
X303212500Y-56293750D03*
%TD*%
%TO.C,D27*%
X122634375Y-23081250D03*
X122634375Y-19781250D03*
%TD*%
D40*
%TO.C,C7*%
X27937500Y-19050000D03*
X26037500Y-19050000D03*
%TD*%
D33*
%TO.C,R5*%
X11906250Y-27378125D03*
X10081250Y-27378125D03*
%TD*%
D28*
%TO.C,D72*%
X303212500Y-2443750D03*
X303212500Y856250D03*
%TD*%
D30*
%TO.C,U17*%
X110178125Y-8610000D03*
X111278125Y-8610000D03*
X111278125Y-10440000D03*
X110178125Y-10440000D03*
%TD*%
%TO.C,U24*%
X174471875Y-65760000D03*
X175571875Y-65760000D03*
X175571875Y-67590000D03*
X174471875Y-67590000D03*
%TD*%
D28*
%TO.C,D47*%
X213121875Y-59593750D03*
X213121875Y-56293750D03*
%TD*%
%TO.C,D5*%
X7937500Y-80231250D03*
X7937500Y-76931250D03*
%TD*%
D30*
%TO.C,U20*%
X77634375Y7661875D03*
X78734375Y7661875D03*
X78734375Y5831875D03*
X77634375Y5831875D03*
%TD*%
%TO.C,U16*%
X320125000Y-46710000D03*
X321225000Y-46710000D03*
X321225000Y-48540000D03*
X320125000Y-48540000D03*
%TD*%
D41*
%TO.C,SW1*%
X30237500Y134375D03*
X36437500Y3834375D03*
X30237500Y3834375D03*
X36437500Y134375D03*
%TD*%
D28*
%TO.C,D4*%
X7937500Y-61181250D03*
X7937500Y-57881250D03*
%TD*%
%TO.C,D64*%
X275034375Y-23081250D03*
X275034375Y-19781250D03*
%TD*%
%TO.C,D39*%
X170259375Y-4031250D03*
X170259375Y-731250D03*
%TD*%
D30*
%TO.C,U7*%
X252656250Y-65760000D03*
X253756250Y-65760000D03*
X253756250Y-67590000D03*
X252656250Y-67590000D03*
%TD*%
D28*
%TO.C,D9*%
X11112500Y-59593750D03*
X11112500Y-56293750D03*
%TD*%
D40*
%TO.C,C2*%
X51600000Y-24153125D03*
X49700000Y-24153125D03*
%TD*%
D28*
%TO.C,D42*%
X194071875Y-61181250D03*
X194071875Y-57881250D03*
%TD*%
D30*
%TO.C,U21*%
X142721875Y-65760000D03*
X143821875Y-65760000D03*
X143821875Y-67590000D03*
X142721875Y-67590000D03*
%TD*%
D28*
%TO.C,D56*%
X251221875Y-59593750D03*
X251221875Y-56293750D03*
%TD*%
%TO.C,D73*%
X296862500Y-23081250D03*
X296862500Y-19781250D03*
%TD*%
%TO.C,D43*%
X201215625Y-80231250D03*
X201215625Y-76931250D03*
%TD*%
%TO.C,D46*%
X203596875Y-40543750D03*
X203596875Y-37243750D03*
%TD*%
%TO.C,D67*%
X284559375Y-4031250D03*
X284559375Y-731250D03*
%TD*%
D33*
%TO.C,R1*%
X68778125Y-9868750D03*
X66953125Y-9868750D03*
%TD*%
D30*
%TO.C,U5*%
X252656250Y-8610000D03*
X253756250Y-8610000D03*
X253756250Y-10440000D03*
X252656250Y-10440000D03*
%TD*%
D33*
%TO.C,R2*%
X68778125Y-7593750D03*
X66953125Y-7593750D03*
%TD*%
D28*
%TO.C,D50*%
X222646875Y-42131250D03*
X222646875Y-38831250D03*
%TD*%
%TO.C,D34*%
X155971875Y-61181250D03*
X155971875Y-57881250D03*
%TD*%
%TO.C,D21*%
X93265625Y-4031250D03*
X93265625Y-731250D03*
%TD*%
D42*
%TO.C,U2*%
X75959375Y-9868750D03*
X75009375Y-9868750D03*
X74059375Y-9868750D03*
X74059375Y-7593750D03*
X75009375Y-7593750D03*
X75959375Y-7593750D03*
%TD*%
D43*
%TO.C,U1*%
X31321875Y-22478125D03*
X32121875Y-22478125D03*
X32921875Y-22478125D03*
X33721875Y-22478125D03*
X34521875Y-22478125D03*
X35321875Y-22478125D03*
X36121875Y-22478125D03*
X36921875Y-22478125D03*
X37721875Y-22478125D03*
X38521875Y-22478125D03*
X39321875Y-22478125D03*
D44*
X41021875Y-24178125D03*
X41021875Y-24978125D03*
X41021875Y-25778125D03*
X41021875Y-26578125D03*
X41021875Y-27378125D03*
X41021875Y-28178125D03*
X41021875Y-28978125D03*
X41021875Y-29778125D03*
X41021875Y-30578125D03*
X41021875Y-31378125D03*
X41021875Y-32178125D03*
D43*
X39321875Y-33878125D03*
X38521875Y-33878125D03*
X37721875Y-33878125D03*
X36921875Y-33878125D03*
X36121875Y-33878125D03*
X35321875Y-33878125D03*
X34521875Y-33878125D03*
X33721875Y-33878125D03*
X32921875Y-33878125D03*
X32121875Y-33878125D03*
X31321875Y-33878125D03*
D44*
X29621875Y-32178125D03*
X29621875Y-31378125D03*
X29621875Y-30578125D03*
X29621875Y-29778125D03*
X29621875Y-28978125D03*
X29621875Y-28178125D03*
X29621875Y-27378125D03*
X29621875Y-26578125D03*
X29621875Y-25778125D03*
X29621875Y-24978125D03*
X29621875Y-24178125D03*
%TD*%
D28*
%TO.C,D52*%
X236934375Y-78643750D03*
X236934375Y-75343750D03*
%TD*%
D30*
%TO.C,U10*%
X290359375Y-65760000D03*
X291459375Y-65760000D03*
X291459375Y-67590000D03*
X290359375Y-67590000D03*
%TD*%
D45*
%TO.C,R3*%
X37981250Y-3968750D03*
X39806250Y-3968750D03*
%TD*%
D28*
%TO.C,D19*%
X98821875Y-59593750D03*
X98821875Y-56293750D03*
%TD*%
M02*
